SplineFontDB: 1.0
FontName: Garuda
FullName: Garuda
FamilyName: Garuda
Weight: Book
Copyright: Generated by NECTEC for Public Domain\n\nModified by TLWG
Version: 2.0 : Dec 10, 2003
ItalicAngle: 0
UnderlinePosition: -27
UnderlineWidth: 10
Ascent: 840
Descent: 160
NeedsXUIDChange: 1
FSType: 0
PfmFamily: 33
TTFWeight: 400
TTFWidth: 5
Panose: 2 11 6 4 2 2 2 2 2 4
LineGap: 0
VLineGap: 0
OS2WinAscent: 0
OS2WinAOffset: 1
OS2WinDescent: 0
OS2WinDOffset: 1
ScriptLang: 3
 1 latn 1 dflt 
 1 thai 4 KUY  PAL  THA  dflt 
 1 thai 1 PAL  
ContextSub: glyph 0 2 ' RQD' 0 0 0 1
 String: 15 uni0E0D uni0E10
 BString: 0 
 FString: 0 
 1
  SeqLookup: 0 'nds0'
EndFPST
ChainSub: coverage 0 1 'ccmp' 0 0 0 1
 2 0 0
  Coverage: 19 uni0E4B uni0E4B.low
  Coverage: 7 uni0E4D
 2
  SeqLookup: 0 'amni'
  SeqLookup: 1 'G006'
EndFPST
ChainSub: coverage 0 1 'ccmp' 0 0 0 1
 2 0 0
  Coverage: 19 uni0E4A uni0E4A.low
  Coverage: 7 uni0E4D
 2
  SeqLookup: 0 'amni'
  SeqLookup: 1 'G005'
EndFPST
ChainSub: coverage 0 1 'ccmp' 0 0 0 1
 2 0 0
  Coverage: 19 uni0E49 uni0E49.low
  Coverage: 7 uni0E4D
 2
  SeqLookup: 0 'amni'
  SeqLookup: 1 'G004'
EndFPST
ChainSub: coverage 0 1 'ccmp' 0 0 0 1
 2 0 0
  Coverage: 19 uni0E48 uni0E48.low
  Coverage: 7 uni0E4D
 2
  SeqLookup: 0 'amni'
  SeqLookup: 1 'G003'
EndFPST
ChainSub: coverage 0 1 'ccmp' 0 0 0 1
 1 0 1
  Coverage: 15 uni0E0D uni0E10
  FCoverage: 23 uni0E38 uni0E39 uni0E3A
 1
  SeqLookup: 0 'ndsc'
EndFPST
ChainSub: coverage 0 1 'ccmp' 0 0 0 1
 1 2 0
  Coverage: 39 uni0E48 uni0E49 uni0E4A uni0E4B uni0E4C
  BCoverage: 23 uni0E38 uni0E39 uni0E3A

StartChar: .notdef
Encoding: 0 -1 0
OldEncoding: 0
Width: 500
VWidth: 2048
Flags: HW
HStem: 0 62<125 375> 778 62<125 375>
VStem: 62 62<62 778> 375 62<62 778>
Fore
62 0 m 1
 62 840 l 1
 438 840 l 1
 438 0 l 1
 62 0 l 1
125 62 m 1
 375 62 l 1
 375 778 l 1
 125 778 l 1
 125 62 l 1
EndSplineSet
MinimumDistance: x2,-1 
EndChar
StartChar: exclam
Encoding: 33 33 2
OldEncoding: 33
Width: 181
VWidth: 2048
Flags: HW
HStem: 0 65<59 125> 458 10G<56 127>
VStem: 56 71<363 467>
Fore
74 116 m 1
 56 364 l 1
 56 467 l 1
 127 467 l 1
 127 364 l 1
 111 116 l 1
 74 116 l 1
59 0 m 1
 59 65 l 1
 125 65 l 1
 125 0 l 1
 59 0 l 1
EndSplineSet
MinimumDistance: x3,-1 
EndChar
StartChar: quotedbl
Encoding: 34 34 3
OldEncoding: 34
Width: 231
VWidth: 2048
Flags: HW
HStem: 458 10G<30 95 136 201>
VStem: 30 65<390 467> 136 65<390 467>
Fore
46 302 m 1
 30 391 l 1
 30 467 l 1
 95 467 l 1
 95 391 l 1
 81 302 l 1
 46 302 l 1
151 302 m 1
 136 391 l 1
 136 467 l 1
 201 467 l 1
 201 391 l 1
 186 302 l 1
 151 302 l 1
EndSplineSet
MinimumDistance: x9,-1 
EndChar
StartChar: numbersign
Encoding: 35 35 4
OldEncoding: 35
Width: 363
VWidth: 2048
Flags: HW
HStem: -8 10G<33 81 181 229> 128 47<7 61 118 208 266 355> 291 47<7 93 151 242 300 355> 465 10G<131 179 279 327>
DStem: 124 262 222 262 67 -16 165 -16 192 596 290 596 144 359 242 359 268 973 366 973 212 693 309 693 427 262 526 262 371 -16 469 -16 495 596 594 596 447 359 545 359 572 973 670 973 515 693 614 693
Fore
33 -8 m 1
 61 128 l 1
 7 128 l 1
 7 175 l 1
 70 175 l 1
 94 291 l 1
 7 291 l 1
 7 338 l 1
 104 338 l 1
 131 475 l 1
 179 475 l 1
 151 338 l 1
 251 338 l 1
 279 475 l 1
 327 475 l 1
 300 338 l 1
 355 338 l 1
 355 291 l 1
 290 291 l 1
 266 175 l 1
 355 175 l 1
 355 128 l 1
 257 128 l 1
 229 -8 l 1
 181 -8 l 1
 208 128 l 1
 108 128 l 1
 81 -8 l 1
 33 -8 l 1
118 175 m 1
 218 175 l 1
 242 291 l 1
 142 291 l 1
 118 175 l 1
EndSplineSet
MinimumDistance: x14,-1 
EndChar
StartChar: dollar
Encoding: 36 36 5
OldEncoding: 36
Width: 363
VWidth: 2048
Flags: HW
VStem: 33 57<352 363> 163 34<-67 -10 39 213 276 435 482 510> 273 59<120 136>
Fore
163 -67 m 1
 163 -10 l 1
 75 1 29 48 23 130 c 1
 81 141 l 1
 89 79 116 45 163 39 c 1
 163 221 l 1
 76 240 33 284 33 353 c 0
 33 391 45 422 69 445 c 0
 92 466 123 479 163 483 c 1
 163 510 l 1
 196 510 l 1
 196 483 l 1
 270 476 311 437 321 368 c 1
 262 359 l 1
 255 402 233 427 196 435 c 1
 196 269 l 1
 287 250 333 205 333 133 c 0
 333 92 320 59 295 33 c 0
 269 7 237 -7 196 -9 c 1
 196 -67 l 1
 163 -67 l 1
163 435 m 1
 133 431 112 417 99 393 c 0
 93 382 90 370 90 357 c 0
 90 318 114 291 163 276 c 1
 163 435 l 1
196 39 m 1
 220 42 238 51 252 68 c 0
 266 85 273 105 273 129 c 0
 273 169 248 197 196 213 c 1
 196 39 l 1
EndSplineSet
MinimumDistance: x16,-1 
EndChar
StartChar: percent
Encoding: 37 37 6
OldEncoding: 37
Width: 580
VWidth: 2048
Flags: HW
HStem: -17 40<436 445> 190 40<436 445> 228 40<131 140> 436 40<131 140>
VStem: 38 50<342 358> 188 50<342 366> 340 50<100 116> 490 50<100 116>
DStem: 806 973 902 973 283 -35 380 -35
Fore
38 355 m 0
 38 403 53 438 83 459 c 0
 98 470 115 475 136 475 c 0
 175 475 204 458 223 423 c 0
 233 405 238 381 238 352 c 0
 238 317 230 289 213 266 c 0
 195 241 170 228 137 228 c 0
 103 228 77 241 60 268 c 0
 45 290 38 319 38 355 c 0
138 436 m 0
 104 436 88 407 88 349 c 0
 88 295 104 268 138 268 c 0
 171 268 188 296 188 354 c 0
 188 408 171 436 138 436 c 0
138 -17 m 1
 394 475 l 1
 440 475 l 1
 186 -17 l 1
 138 -17 l 1
340 110 m 0
 340 159 356 194 387 215 c 0
 401 225 418 230 438 230 c 0
 472 230 498 217 516 192 c 0
 532 170 540 141 540 106 c 0
 540 71 532 43 516 21 c 0
 498 -4 472 -17 439 -17 c 0
 401 -17 373 0 355 36 c 0
 345 55 340 79 340 110 c 0
440 190 m 0
 407 190 390 162 390 104 c 0
 390 50 407 22 440 22 c 0
 473 22 490 51 490 108 c 0
 490 163 474 190 440 190 c 0
EndSplineSet
MinimumDistance: x20,-1 
EndChar
StartChar: ampersand
Encoding: 38 38 7
OldEncoding: 38
Width: 435
VWidth: 2048
Flags: HW
HStem: -8 50<167 185> 428 47<191 208>
VStem: 28 62<128 138> 87 59<370 380> 253 59<370 380>
DStem: 346 473 457 536 561 206 629 317
Fore
310 55 m 1
 272 13 228 -8 176 -8 c 0
 120 -8 77 14 49 59 c 0
 35 80 28 104 28 129 c 0
 28 187 65 233 139 269 c 1
 104 309 87 343 87 371 c 0
 87 402 99 427 122 447 c 0
 145 466 171 475 203 475 c 0
 245 475 277 459 297 427 c 0
 307 412 312 395 312 375 c 0
 312 331 282 293 223 262 c 1
 307 155 l 1
 317 174 324 195 329 220 c 1
 389 207 l 1
 379 166 365 133 348 106 c 1
 369 78 393 54 420 35 c 1
 382 -11 l 1
 359 4 335 26 310 55 c 1
193 299 m 1
 233 322 253 347 253 374 c 0
 253 390 248 403 238 413 c 0
 228 423 215 428 200 428 c 0
 184 428 172 423 161 414 c 0
 151 404 146 391 146 376 c 0
 146 361 153 345 168 328 c 2
 193 299 l 1
274 101 m 1
 169 231 l 1
 116 199 90 167 90 132 c 0
 90 108 98 87 115 69 c 0
 132 51 153 42 177 42 c 0
 217 42 249 62 274 101 c 1
EndSplineSet
MinimumDistance: x9,-1 
EndChar
StartChar: quotesingle
Encoding: 39 39 8
OldEncoding: 39
Width: 124
VWidth: 2048
Flags: HW
HStem: 458 10G<29 94>
VStem: 29 65<389 467>
Fore
43 302 m 1
 29 389 l 1
 29 467 l 1
 94 467 l 1
 94 389 l 1
 79 302 l 1
 43 302 l 1
EndSplineSet
MinimumDistance: x3,-1 
EndChar
StartChar: parenleft
Encoding: 40 40 9
OldEncoding: 40
Width: 217
VWidth: 2048
Flags: HW
HStem: -137 10G<153 194> 465 10G<153 194>
VStem: 40 59<151 184>
Fore
153 -137 m 1
 77 -42 40 60 40 169 c 0
 40 273 77 375 153 475 c 1
 194 475 l 1
 130 371 99 269 99 169 c 0
 99 67 130 -35 194 -137 c 1
 153 -137 l 1
EndSplineSet
MinimumDistance: x4,-1 
EndChar
StartChar: parenright
Encoding: 41 41 10
OldEncoding: 41
Width: 217
VWidth: 2048
Flags: HW
HStem: -137 10G<40 81> 465 10G<40 81>
VStem: 135 59<151 184>
Fore
81 -137 m 1
 40 -137 l 1
 103 -35 135 67 135 169 c 0
 135 242 122 308 96 368 c 0
 84 395 65 431 40 475 c 1
 81 475 l 1
 156 375 194 273 194 169 c 0
 194 61 156 -42 81 -137 c 1
EndSplineSet
MinimumDistance: x6,-1 
EndChar
StartChar: asterisk
Encoding: 42 42 11
OldEncoding: 42
Width: 253
VWidth: 2048
Flags: HW
HStem: 465 10G<103 148>
Fore
21 381 m 1
 35 427 l 1
 69 415 94 405 109 396 c 1
 105 434 103 461 103 475 c 1
 148 475 l 1
 148 454 145 428 141 396 c 1
 163 407 188 417 216 427 c 1
 231 381 l 1
 204 373 178 367 152 364 c 1
 165 352 183 332 207 303 c 1
 168 276 l 1
 156 293 141 316 125 345 c 1
 109 315 95 292 83 276 c 1
 45 303 l 1
 70 334 88 354 99 364 c 1
 71 369 45 375 21 381 c 1
EndSplineSet
EndChar
StartChar: plus
Encoding: 43 43 12
OldEncoding: 43
Width: 381
VWidth: 2048
Flags: HW
HStem: 204 54<36 164 218 345> 375 10G<164 218>
VStem: 164 54<76 204 257 384>
Fore
164 76 m 1
 164 204 l 1
 36 204 l 1
 36 257 l 1
 164 257 l 1
 164 384 l 1
 218 384 l 1
 218 257 l 1
 345 257 l 1
 345 204 l 1
 218 204 l 1
 218 76 l 1
 164 76 l 1
EndSplineSet
MinimumDistance: x8,-1 y4,6 y4,5 y1,11 y1,0 x7,9 x7,8 x1,3 x1,2 
EndChar
StartChar: comma
Encoding: 44 44 13
OldEncoding: 44
Width: 181
VWidth: 2048
Flags: HW
HStem: -10 10G<58 90>
VStem: 58 65<-0 65>
Fore
58 0 m 1
 58 65 l 1
 124 65 l 1
 124 0 l 2
 124 -46 106 -77 70 -92 c 1
 54 -68 l 1
 77 -58 89 -35 90 0 c 1
 58 0 l 1
EndSplineSet
MinimumDistance: x2,-1 
EndChar
StartChar: hyphen
Encoding: 45 45 14
OldEncoding: 45
Width: 217
VWidth: 2048
Flags: HW
HStem: 140 58<21 197>
Fore
21 140 m 1
 21 198 l 1
 197 198 l 1
 197 140 l 1
 21 140 l 1
EndSplineSet
EndChar
StartChar: period
Encoding: 46 46 15
OldEncoding: 46
Width: 181
VWidth: 2048
Flags: HW
HStem: 0 65<59 125>
VStem: 59 65<0 65>
Fore
59 0 m 1
 59 65 l 1
 125 65 l 1
 125 0 l 1
 59 0 l 1
EndSplineSet
MinimumDistance: x2,-1 
EndChar
StartChar: slash
Encoding: 47 47 16
OldEncoding: 47
Width: 181
VWidth: 2048
Flags: HW
HStem: -8 10G<0 46> 465 10G<135 181>
DStem: 277 973 371 973 0 -16 95 -16
Fore
0 -8 m 1
 135 475 l 1
 181 475 l 1
 46 -8 l 1
 0 -8 l 1
EndSplineSet
EndChar
StartChar: zero
Encoding: 48 48 17
OldEncoding: 48
Width: 363
VWidth: 2048
Flags: HW
HStem: -8 47<175 184> 422 47<175 184>
VStem: 27 59<210 250> 273 59<210 250>
Fore
27 230 m 0
 27 390 78 469 180 469 c 0
 281 469 332 390 332 230 c 0
 332 72 281 -8 180 -8 c 0
 78 -8 27 72 27 230 c 0
86 230 m 0
 86 103 117 39 180 39 c 0
 242 39 273 103 273 230 c 0
 273 358 242 422 179 422 c 0
 117 422 86 358 86 230 c 0
EndSplineSet
MinimumDistance: x2,-1 
EndChar
StartChar: one
Encoding: 49 49 18
OldEncoding: 49
Width: 363
VWidth: 2048
Flags: HW
HStem: 0 10G<186 243> 459 10G<206 243>
VStem: 186 57<0 366>
Fore
243 0 m 1
 186 0 l 1
 186 366 l 1
 155 336 117 313 71 296 c 1
 71 352 l 1
 138 383 183 422 206 469 c 1
 243 469 l 1
 243 0 l 1
EndSplineSet
MinimumDistance: x0,-1 
EndChar
StartChar: two
Encoding: 50 50 19
OldEncoding: 50
Width: 363
VWidth: 2048
Flags: HW
HStem: 0 55<98 327> 422 47<174 190>
VStem: 268 59<333 344>
Fore
327 55 m 1
 327 0 l 1
 18 0 l 1
 18 49 58 107 138 173 c 0
 168 198 189 215 200 227 c 0
 223 249 241 270 252 290 c 0
 262 308 268 325 268 341 c 0
 268 366 259 385 242 400 c 0
 225 415 204 422 180 422 c 0
 151 422 129 413 113 397 c 0
 96 380 88 357 88 328 c 1
 29 334 l 1
 37 424 88 469 181 469 c 0
 222 469 257 458 284 436 c 0
 312 412 327 380 327 339 c 0
 327 304 311 267 279 229 c 0
 263 210 232 182 188 145 c 0
 158 120 142 106 140 104 c 0
 121 87 107 70 98 55 c 1
 327 55 l 1
EndSplineSet
MinimumDistance: x14,-1 
EndChar
StartChar: three
Encoding: 51 51 20
OldEncoding: 51
Width: 363
VWidth: 2048
Flags: HW
HStem: -8 47<167 184> 422 47<167 184>
VStem: 251 59<343 352> 272 61<130 141>
Fore
27 124 m 1
 85 131 l 1
 97 70 128 39 176 39 c 0
 204 39 227 48 245 67 c 0
 263 86 272 109 272 137 c 0
 272 163 264 185 247 202 c 0
 230 219 208 228 181 228 c 0
 170 228 157 225 141 221 c 1
 147 271 l 1
 161 271 l 2
 168 271 178 272 190 275 c 0
 231 285 251 310 251 349 c 0
 251 371 244 389 230 402 c 0
 216 415 197 422 175 422 c 0
 127 422 99 394 90 338 c 1
 33 348 l 1
 48 429 95 469 174 469 c 0
 212 469 244 459 270 438 c 0
 297 415 311 385 311 348 c 0
 311 304 289 273 246 253 c 1
 304 240 333 201 333 138 c 0
 333 94 318 59 288 32 c 0
 257 5 220 -8 176 -8 c 0
 120 -8 79 12 51 54 c 0
 38 73 30 97 27 124 c 1
EndSplineSet
MinimumDistance: x20,-1 
EndChar
StartChar: four
Encoding: 52 52 21
OldEncoding: 52
Width: 363
VWidth: 2048
Flags: HW
HStem: 0 10G<211 269> 112 53<65 211 269 332> 458 10G<222 269>
VStem: 211 58<0 112 165 375>
DStem: 454 957 432 768 17 337 133 337
Fore
211 0 m 1
 211 112 l 1
 8 112 l 1
 8 165 l 1
 222 467 l 1
 269 467 l 1
 269 165 l 1
 332 165 l 1
 332 112 l 1
 269 112 l 1
 269 0 l 1
 211 0 l 1
211 165 m 1
 211 375 l 1
 65 165 l 1
 211 165 l 1
EndSplineSet
MinimumDistance: x7,-1 x4,6 y6,4 y6,5 y1,10 y1,0 x6,8 x6,7 x1,3 x1,2 
EndChar
StartChar: five
Encoding: 53 53 22
OldEncoding: 53
Width: 363
VWidth: 2048
Flags: HW
HStem: -8 47<167 184> 259 51<176 191> 406 55<128 315>
VStem: 276 61<148 165>
DStem: 169 944 263 832 76 452 212 574
Fore
27 123 m 1
 87 127 l 1
 96 69 126 39 177 39 c 0
 213 39 241 56 261 89 c 0
 271 107 276 128 276 153 c 0
 276 185 267 210 250 230 c 0
 232 250 208 259 176 259 c 0
 139 259 111 244 91 214 c 1
 37 221 l 1
 83 461 l 1
 315 461 l 1
 315 406 l 1
 128 406 l 1
 104 280 l 1
 132 300 161 310 191 310 c 0
 249 310 291 286 318 237 c 0
 331 214 337 188 337 158 c 0
 337 92 311 43 258 13 c 0
 235 -1 208 -8 177 -8 c 0
 136 -8 101 4 75 26 c 0
 47 49 31 82 27 123 c 1
EndSplineSet
MinimumDistance: x16,-1 
EndChar
StartChar: six
Encoding: 54 54 23
OldEncoding: 54
Width: 363
VWidth: 2048
Flags: HW
HStem: -8 47<180 196> 422 47<180 196>
VStem: 274 59<140 157>
Fore
325 353 m 1
 268 349 l 1
 257 397 231 422 188 422 c 0
 148 422 119 400 101 357 c 0
 88 326 82 287 82 241 c 1
 109 283 147 303 195 303 c 0
 237 303 270 288 296 257 c 0
 321 229 333 194 333 152 c 0
 333 106 320 68 295 39 c 0
 268 8 232 -8 187 -8 c 0
 79 -8 24 68 24 219 c 0
 24 386 80 469 192 469 c 0
 242 469 279 451 303 416 c 0
 314 399 321 378 325 353 c 1
90 151 m 0
 90 121 98 95 115 74 c 0
 133 51 156 39 186 39 c 0
 214 39 237 51 253 74 c 0
 267 94 274 119 274 148 c 0
 274 191 260 222 231 240 c 0
 218 248 202 252 184 252 c 0
 147 252 120 236 103 205 c 0
 95 189 90 172 90 151 c 0
EndSplineSet
MinimumDistance: x7,-1 
EndChar
StartChar: seven
Encoding: 55 55 24
OldEncoding: 55
Width: 363
VWidth: 2048
Flags: HW
HStem: 0 10G<96 155> 406 55<31 260>
Fore
31 406 m 1
 31 461 l 1
 333 461 l 1
 333 417 l 1
 284 364 243 299 210 224 c 0
 178 148 160 73 155 0 c 1
 96 0 l 1
 98 69 114 141 145 216 c 0
 175 289 213 353 260 406 c 1
 31 406 l 1
EndSplineSet
EndChar
StartChar: eight
Encoding: 56 56 25
OldEncoding: 56
Width: 363
VWidth: 2048
Flags: HW
HStem: -8 47<174 191> 229 47<174 183> 422 47<174 183>
VStem: 26 59<125 141> 45 59<343 360> 256 59<343 352> 276 59<125 141>
Fore
115 253 m 1
 69 271 45 302 45 349 c 0
 45 393 65 427 104 451 c 0
 125 463 150 469 180 469 c 0
 232 469 271 451 296 413 c 0
 309 395 315 373 315 347 c 0
 315 302 292 271 247 253 c 1
 305 234 334 194 334 134 c 0
 334 91 319 56 289 30 c 0
 260 5 224 -8 180 -8 c 0
 136 -8 100 5 71 30 c 0
 41 57 26 92 26 135 c 0
 26 198 56 238 115 253 c 1
104 351 m 0
 104 328 111 310 125 296 c 0
 140 282 158 275 181 275 c 0
 202 275 220 282 235 295 c 0
 249 309 256 326 256 348 c 0
 256 369 249 387 234 401 c 0
 220 415 202 422 180 422 c 0
 159 422 141 415 126 402 c 0
 111 389 104 371 104 351 c 0
85 135 m 0
 85 106 94 83 112 66 c 0
 130 48 153 39 181 39 c 0
 209 39 232 48 249 65 c 0
 267 83 276 105 276 133 c 0
 276 161 267 184 248 202 c 0
 230 220 207 229 179 229 c 0
 144 229 118 214 100 186 c 0
 90 172 85 155 85 135 c 0
EndSplineSet
MinimumDistance: x7,-1 
EndChar
StartChar: nine
Encoding: 57 57 26
OldEncoding: 57
Width: 363
VWidth: 2048
Flags: HW
HStem: -8 47<159 176> 158 51<165 180> 422 47<173 184>
VStem: 27 59<304 321>
Fore
36 108 m 1
 91 113 l 1
 100 64 125 39 168 39 c 0
 215 39 248 67 266 124 c 0
 273 146 277 168 277 189 c 2
 277 220 l 1
 251 179 214 158 166 158 c 0
 124 158 90 174 63 204 c 0
 39 233 27 269 27 312 c 0
 27 375 51 421 98 450 c 0
 120 463 145 469 174 469 c 0
 236 469 282 440 312 382 c 0
 327 352 334 306 334 243 c 0
 334 76 279 -8 167 -8 c 0
 120 -8 84 9 60 42 c 0
 47 59 39 81 36 108 c 1
271 314 m 0
 271 344 263 368 248 388 c 0
 232 411 209 422 181 422 c 0
 152 422 129 410 110 387 c 0
 94 365 86 340 86 310 c 0
 86 281 94 258 111 239 c 0
 129 219 152 209 180 209 c 0
 209 209 232 220 248 241 c 0
 263 260 271 285 271 314 c 0
EndSplineSet
MinimumDistance: x19,-1 
EndChar
StartChar: colon
Encoding: 58 58 27
OldEncoding: 58
Width: 181
VWidth: 2048
Flags: HW
HStem: 0 65<59 125> 273 65<59 125>
VStem: 59 65<0 65 273 338>
Fore
59 273 m 1
 59 338 l 1
 125 338 l 1
 125 273 l 1
 59 273 l 1
59 0 m 1
 59 65 l 1
 125 65 l 1
 125 0 l 1
 59 0 l 1
EndSplineSet
MinimumDistance: x2,-1 
EndChar
StartChar: semicolon
Encoding: 59 59 28
OldEncoding: 59
Width: 181
VWidth: 2048
Flags: HW
HStem: -10 10G<58 90> 273 65<58 124>
VStem: 58 65<-0 65 273 338>
Fore
58 273 m 1
 58 338 l 1
 124 338 l 1
 124 273 l 1
 58 273 l 1
58 0 m 1
 58 65 l 1
 124 65 l 1
 124 0 l 2
 124 -46 106 -77 70 -92 c 1
 54 -68 l 1
 77 -58 89 -35 90 0 c 1
 58 0 l 1
EndSplineSet
MinimumDistance: x2,-1 
EndChar
StartChar: less
Encoding: 60 60 29
OldEncoding: 60
Width: 381
VWidth: 2048
Flags: HW
DStem: 73 418 204 473 707 148 707 264 707 796 707 679 73 528 204 473
Fore
36 204 m 1
 36 258 l 1
 345 389 l 1
 345 332 l 1
 100 231 l 1
 345 129 l 1
 345 72 l 1
 36 204 l 1
EndSplineSet
MinimumDistance: x2,-1 
EndChar
StartChar: equal
Encoding: 61 61 30
OldEncoding: 61
Width: 381
VWidth: 2048
Flags: HW
HStem: 133 54<36 345> 275 53<36 345>
Fore
345 275 m 1
 36 275 l 1
 36 328 l 1
 345 328 l 1
 345 275 l 1
345 133 m 1
 36 133 l 1
 36 187 l 1
 345 187 l 1
 345 133 l 1
EndSplineSet
EndChar
StartChar: greater
Encoding: 62 62 31
OldEncoding: 62
Width: 381
VWidth: 2048
Flags: HW
DStem: 73 679 73 796 575 473 707 528 575 473 707 418 73 264 73 148
Fore
345 204 m 1
 36 72 l 1
 36 129 l 1
 281 231 l 1
 36 332 l 1
 36 389 l 1
 345 258 l 1
 345 204 l 1
EndSplineSet
MinimumDistance: x0,-1 
EndChar
StartChar: question
Encoding: 63 63 32
OldEncoding: 63
Width: 363
VWidth: 2048
Flags: HW
HStem: 0 65<147 212> 428 47<177 186>
VStem: 147 65<0 65> 271 59<339 352>
Fore
150 115 m 1
 150 135 l 1
 149 158 154 180 165 201 c 0
 169 211 175 220 182 228 c 1
 204 246 230 273 262 310 c 1
 268 320 271 332 271 344 c 0
 271 375 257 399 228 417 c 0
 214 424 198 428 181 428 c 0
 129 428 98 397 88 333 c 1
 29 340 l 1
 40 430 90 475 180 475 c 0
 240 475 283 455 311 414 c 0
 324 395 330 373 330 348 c 0
 330 320 318 294 294 270 c 0
 270 246 249 223 230 201 c 0
 215 182 207 154 206 115 c 1
 150 115 l 1
147 0 m 1
 147 65 l 1
 212 65 l 1
 212 0 l 1
 147 0 l 1
EndSplineSet
MinimumDistance: x12,-1 
EndChar
StartChar: at
Encoding: 64 64 33
OldEncoding: 64
Width: 662
VWidth: 2048
Flags: HW
HStem: -137 47<339 372> -1 53<432 453> -1 47<271 284> 298 48<321 333> 429 47<332 364>
VStem: 35 47<136 168> 157 59<128 152> 576 47<214 244>
Fore
370 52 m 1
 340 17 307 -1 272 -1 c 0
 236 -1 207 14 186 45 c 0
 166 72 157 105 157 142 c 0
 157 176 165 209 182 242 c 0
 199 277 221 303 249 321 c 0
 274 337 299 346 322 346 c 0
 363 346 395 326 418 287 c 1
 429 336 l 1
 486 336 l 1
 440 123 l 2
 434 94 431 77 431 73 c 0
 431 59 438 52 453 52 c 0
 476 52 502 68 531 101 c 0
 561 134 576 177 576 228 c 0
 576 290 553 340 508 377 c 0
 465 412 412 429 349 429 c 0
 292 429 243 415 200 387 c 0
 158 359 126 320 104 269 c 0
 90 233 83 195 83 155 c 0
 83 47 126 -25 213 -62 c 0
 256 -81 304 -90 357 -90 c 0
 462 -90 537 -58 582 6 c 1
 639 6 l 1
 617 -42 577 -79 520 -104 c 0
 471 -126 417 -137 358 -137 c 0
 226 -137 133 -95 78 -10 c 0
 49 33 35 86 35 149 c 0
 35 243 66 323 126 388 c 0
 181 447 255 476 351 476 c 0
 428 476 492 454 543 410 c 0
 597 364 624 303 624 227 c 0
 624 172 605 122 569 75 c 0
 531 24 485 -1 432 -1 c 0
 392 -1 371 16 370 52 c 1
216 138 m 0
 216 114 221 94 232 77 c 0
 245 56 262 46 284 46 c 0
 319 46 347 65 371 103 c 0
 390 136 400 170 400 207 c 0
 400 232 394 253 382 270 c 0
 369 288 350 298 326 298 c 0
 293 298 265 279 244 241 c 0
 225 208 216 174 216 138 c 0
EndSplineSet
MinimumDistance: x31,-1 
EndChar
StartChar: A
Encoding: 65 65 34
OldEncoding: 65
Width: 435
VWidth: 2048
Flags: HW
HStem: 0 10G<-1 65 366 437> 142 50<134 292> 458 10G<179 245>
DStem: 366 957 379 674 -2 0 274 393 366 957 238 290 -2 0 133 0
Fore
-1 0 m 1
 179 467 l 1
 245 467 l 1
 437 0 l 1
 366 0 l 1
 312 142 l 1
 116 142 l 1
 65 0 l 1
 -1 0 l 1
134 192 m 1
 292 192 l 1
 244 321 l 2
 228 364 217 396 210 418 c 1
 205 389 196 359 185 329 c 2
 134 192 l 1
EndSplineSet
MinimumDistance: x12,-1 
EndChar
StartChar: B
Encoding: 66 66 35
OldEncoding: 66
Width: 435
VWidth: 2048
Flags: HW
HStem: 0 55<110 244> 216 55<110 228> 412 55<110 228>
VStem: 48 62<55 216 271 412> 317 61<339 349> 336 64<125 141>
Fore
48 0 m 1
 48 467 l 1
 223 467 l 2
 266 467 302 458 329 441 c 0
 362 420 378 389 378 348 c 0
 378 303 356 270 312 249 c 1
 371 231 401 194 401 135 c 0
 401 45 343 -0 226 0 c 2
 48 0 l 1
110 271 m 1
 211 271 l 2
 257 271 288 280 303 297 c 0
 313 308 317 322 317 340 c 0
 317 378 301 400 269 407 c 0
 253 410 231 412 203 412 c 2
 110 412 l 1
 110 271 l 1
110 55 m 1
 226 55 l 2
 259 55 284 60 301 69 c 0
 325 82 336 104 336 135 c 0
 336 168 324 190 299 203 c 0
 281 211 254 216 218 216 c 2
 110 216 l 1
 110 55 l 1
EndSplineSet
MinimumDistance: x6,-1 
EndChar
StartChar: C
Encoding: 67 67 36
OldEncoding: 67
Width: 471
VWidth: 2048
Flags: HW
HStem: -8 53<235 260> 422 53<243 260>
VStem: 33 63<218 250>
Fore
384 164 m 1
 446 148 l 1
 419 44 354 -8 252 -8 c 0
 180 -8 125 15 86 62 c 0
 51 105 33 164 33 237 c 0
 33 308 51 365 89 408 c 0
 128 453 183 475 253 475 c 0
 350 475 411 430 438 339 c 1
 377 325 l 1
 356 390 314 422 252 422 c 0
 199 422 159 404 132 368 c 0
 108 336 96 293 96 237 c 0
 96 182 107 137 129 104 c 0
 155 65 194 45 247 45 c 0
 321 45 367 85 384 164 c 1
EndSplineSet
MinimumDistance: x11,-1 
EndChar
StartChar: D
Encoding: 68 68 37
OldEncoding: 68
Width: 471
VWidth: 2048
Flags: HW
HStem: 0 55<112 230> 412 55<112 223>
VStem: 50 62<55 412> 373 63<218 250>
Fore
50 0 m 1
 50 467 l 1
 211 467 l 2
 279 467 329 454 362 429 c 0
 412 389 437 325 437 236 c 0
 437 79 364 0 219 0 c 2
 50 0 l 1
112 55 m 1
 212 55 l 2
 249 55 278 60 299 70 c 0
 325 82 344 103 356 134 c 0
 367 162 373 196 373 237 c 0
 373 294 361 338 338 367 c 0
 315 397 273 412 210 412 c 2
 112 412 l 1
 112 55 l 1
EndSplineSet
MinimumDistance: x4,-1 
EndChar
StartChar: E
Encoding: 69 69 38
OldEncoding: 69
Width: 435
VWidth: 2048
Flags: HW
HStem: 0 55<113 400> 214 55<113 372> 412 55<113 390>
VStem: 52 62<55 214 269 412>
Fore
52 0 m 1
 52 467 l 1
 390 467 l 1
 390 412 l 1
 113 412 l 1
 113 269 l 1
 372 269 l 1
 372 214 l 1
 113 214 l 1
 113 55 l 1
 400 55 l 1
 400 0 l 1
 52 0 l 1
EndSplineSet
MinimumDistance: x10,-1 x9,11 x9,10 x5,7 x5,6 x4,2 x4,3 
EndChar
StartChar: F
Encoding: 70 70 39
OldEncoding: 70
Width: 398
VWidth: 2048
Flags: HW
HStem: 0 10G<54 115> 212 55<115 334> 412 55<115 369>
VStem: 54 62<0 212 267 412>
Fore
54 0 m 1
 54 467 l 1
 369 467 l 1
 369 412 l 1
 115 412 l 1
 115 268 l 1
 334 268 l 1
 334 212 l 1
 115 212 l 1
 115 0 l 1
 54 0 l 1
EndSplineSet
MinimumDistance: x2,-1 y8,0 y8,9 x5,7 x5,6 x4,2 x4,3 
EndChar
StartChar: G
Encoding: 71 71 40
OldEncoding: 71
Width: 507
VWidth: 2048
Flags: HW
HStem: -8 56<261 285> 183 55<269 406> 422 53<253 277>
VStem: 35 64<218 250> 406 61<96 183>
Fore
269 183 m 1
 269 238 l 1
 467 238 l 1
 467 65 l 1
 406 16 341 -8 273 -8 c 0
 198 -8 140 13 100 56 c 0
 56 101 35 160 35 231 c 0
 35 305 55 364 96 408 c 0
 138 453 195 475 269 475 c 0
 374 475 438 429 460 336 c 1
 404 321 l 1
 385 389 340 422 269 422 c 0
 213 422 170 405 140 370 c 0
 112 338 99 293 99 235 c 0
 99 178 113 133 141 100 c 0
 171 65 214 48 270 48 c 0
 324 48 370 64 406 96 c 1
 406 183 l 1
 269 183 l 1
EndSplineSet
MinimumDistance: x2,-1 x17,1 x17,0 
EndChar
StartChar: H
Encoding: 72 72 41
OldEncoding: 72
Width: 471
VWidth: 2048
Flags: HW
HStem: 0 10G<52 114 357 419> 220 55<114 357> 458 10G<52 114 357 419>
VStem: 52 62<0 220 275 467> 357 62<0 220 275 467>
Fore
52 0 m 1
 52 467 l 1
 114 467 l 1
 114 275 l 1
 357 275 l 1
 357 467 l 1
 419 467 l 1
 419 0 l 1
 357 0 l 1
 357 220 l 1
 114 220 l 1
 114 0 l 1
 52 0 l 1
EndSplineSet
MinimumDistance: x6,-1 y10,0 y10,11 y9,7 y9,8 y4,6 y4,5 y3,1 y3,2 
EndChar
StartChar: I
Encoding: 73 73 42
OldEncoding: 73
Width: 181
VWidth: 2048
Flags: HW
HStem: 0 10G<61 123> 458 10G<61 123>
VStem: 61 62<0 467>
Fore
61 0 m 1
 61 467 l 1
 123 467 l 1
 123 0 l 1
 61 0 l 1
EndSplineSet
MinimumDistance: x2,-1 
EndChar
StartChar: J
Encoding: 74 74 43
OldEncoding: 74
Width: 326
VWidth: 2048
Flags: HW
HStem: -8 55<134 151> 458 10G<212 274>
VStem: 212 62<132 467>
Fore
18 133 m 1
 73 140 l 1
 76 78 99 47 143 47 c 0
 179 47 200 62 208 92 c 0
 211 105 212 123 212 146 c 2
 212 467 l 1
 274 467 l 1
 274 149 l 2
 274 44 231 -8 143 -8 c 0
 57 -8 16 39 18 133 c 1
EndSplineSet
MinimumDistance: x6,-1 
EndChar
StartChar: K
Encoding: 75 75 44
OldEncoding: 75
Width: 435
VWidth: 2048
Flags: HW
HStem: 0 10G<48 110 353 434> 458 10G<48 110 342 425>
VStem: 48 62<0 162 235 467>
DStem: 700 957 381 484 225 482 225 332
Fore
48 0 m 1
 48 467 l 1
 110 467 l 1
 110 235 l 1
 342 467 l 1
 425 467 l 1
 229 278 l 1
 434 0 l 1
 353 0 l 1
 186 236 l 1
 110 162 l 1
 110 0 l 1
 48 0 l 1
EndSplineSet
MinimumDistance: x9,-1 
EndChar
StartChar: L
Encoding: 76 76 45
OldEncoding: 76
Width: 363
VWidth: 2048
Flags: HW
HStem: 0 55<109 340> 458 10G<48 110>
VStem: 48 62<55 467>
Fore
48 0 m 1
 48 467 l 1
 110 467 l 1
 110 55 l 1
 340 55 l 1
 340 0 l 1
 48 0 l 1
EndSplineSet
MinimumDistance: x4,-1 y3,1 y3,2 x3,5 x3,4 
EndChar
StartChar: M
Encoding: 77 77 46
OldEncoding: 77
Width: 543
VWidth: 2048
Flags: HW
HStem: 0 10G<48 108 243 299 435 494> 458 10G<48 142 411 494>
VStem: 48 60<0 398> 435 60<0 391>
DStem: 221 815 290 957 498 0 562 138 842 957 890 801 613 291 612 0
Fore
48 0 m 1
 48 467 l 1
 142 467 l 1
 274 67 l 1
 299 142 l 1
 411 467 l 1
 494 467 l 1
 494 0 l 1
 435 0 l 1
 435 391 l 1
 299 0 l 1
 243 0 l 1
 108 398 l 1
 108 0 l 1
 48 0 l 1
EndSplineSet
MinimumDistance: x6,-1 
EndChar
StartChar: N
Encoding: 78 78 47
OldEncoding: 78
Width: 471
VWidth: 2048
Flags: HW
HStem: 0 10G<50 109 354 418> 458 10G<50 113 358 418>
VStem: 50 59<0 367> 358 60<101 467>
DStem: 223 752 232 957 726 0 734 206
Fore
50 0 m 1
 50 467 l 1
 113 467 l 1
 358 101 l 1
 358 467 l 1
 418 467 l 1
 418 0 l 1
 354 0 l 1
 109 367 l 1
 109 0 l 1
 50 0 l 1
EndSplineSet
MinimumDistance: x5,-1 
EndChar
StartChar: O
Encoding: 79 79 48
OldEncoding: 79
Width: 507
VWidth: 2048
Flags: HW
HStem: -8 53<242 267> 422 53<242 267>
VStem: 32 63<210 243> 415 64<218 250>
Fore
32 228 m 0
 32 326 65 397 132 442 c 0
 165 464 207 476 255 476 c 0
 321 476 374 453 416 409 c 0
 458 365 479 306 479 233 c 0
 479 133 443 62 371 22 c 0
 335 2 297 -8 255 -8 c 0
 213 -8 174 2 140 22 c 0
 104 43 77 72 59 109 c 0
 41 146 32 185 32 228 c 0
95 227 m 0
 95 152 121 99 172 67 c 0
 195 52 223 45 255 45 c 0
 307 45 348 64 376 102 c 0
 402 135 415 179 415 233 c 0
 415 312 390 367 340 400 c 0
 316 415 288 422 256 422 c 0
 204 422 164 405 136 371 c 0
 109 337 95 288 95 227 c 0
EndSplineSet
MinimumDistance: x4,-1 
EndChar
StartChar: P
Encoding: 80 80 49
OldEncoding: 80
Width: 435
VWidth: 2048
Flags: HW
HStem: 0 10G<50 112> 190 55<112 246> 412 55<112 246>
VStem: 50 62<0 190 245 412> 343 64<320 336>
Fore
50 0 m 1
 50 467 l 1
 227 467 l 2
 284 467 325 459 351 444 c 0
 388 421 407 383 407 332 c 0
 407 237 349 190 232 190 c 2
 112 190 l 1
 112 0 l 1
 50 0 l 1
112 245 m 1
 233 245 l 2
 306 245 343 273 343 330 c 0
 343 357 336 377 321 391 c 0
 307 405 277 412 232 412 c 2
 112 412 l 1
 112 245 l 1
EndSplineSet
MinimumDistance: x4,-1 y6,0 y6,7 
EndChar
StartChar: Q
Encoding: 81 81 50
OldEncoding: 81
Width: 507
VWidth: 2048
Flags: HW
HStem: -8 53<238 263> 422 53<238 263>
VStem: 28 64<221 246> 411 64<221 246>
Fore
404 50 m 1
 433 30 460 16 484 7 c 1
 466 -36 l 1
 432 -24 399 -5 365 21 c 1
 331 2 292 -8 250 -8 c 0
 182 -8 127 16 86 62 c 0
 47 107 28 164 28 234 c 0
 28 305 47 363 86 407 c 0
 126 453 182 476 252 476 c 0
 340 476 403 441 443 373 c 0
 465 337 475 291 475 234 c 0
 475 157 451 95 404 50 c 1
269 129 m 1
 304 119 333 104 356 84 c 1
 393 118 411 167 411 234 c 0
 411 288 398 332 373 366 c 0
 344 403 304 422 252 422 c 0
 185 422 138 393 111 335 c 0
 98 307 92 273 92 234 c 0
 92 180 105 135 130 102 c 0
 159 64 199 45 252 45 c 0
 274 45 295 49 314 58 c 1
 295 70 275 79 253 84 c 1
 269 129 l 1
EndSplineSet
MinimumDistance: x10,-1 
EndChar
StartChar: R
Encoding: 82 82 51
OldEncoding: 82
Width: 471
VWidth: 2048
Flags: HW
HStem: 0 10G<51 113 385 463> 208 54<113 192> 416 52<113 271>
VStem: 51 62<0 208 261 416> 361 63<335 344>
DStem: 663 199 782 260 789 0 949 0
Fore
51 0 m 1
 51 467 l 1
 258 467 l 2
 299 467 329 464 349 457 c 0
 376 447 398 427 413 397 c 0
 421 381 425 362 425 340 c 0
 425 267 381 224 293 212 c 1
 325 199 354 170 382 127 c 2
 463 0 l 1
 385 0 l 1
 324 97 l 2
 310 119 299 135 292 146 c 0
 278 164 264 179 252 188 c 0
 236 201 213 208 185 208 c 2
 113 208 l 1
 113 0 l 1
 51 0 l 1
113 261 m 1
 246 261 l 2
 323 261 361 287 361 340 c 0
 361 390 328 416 261 416 c 2
 113 416 l 1
 113 261 l 1
EndSplineSet
MinimumDistance: x8,-1 y14,0 y14,15 
EndChar
StartChar: S
Encoding: 83 83 52
OldEncoding: 83
Width: 435
VWidth: 2048
Flags: HW
HStem: -8 55<210 241> 421 54<198 229>
VStem: 47 60<343 352> 342 60<125 133>
Fore
29 150 m 1
 88 155 l 1
 97 83 143 47 226 47 c 0
 256 47 281 53 302 64 c 0
 329 78 342 99 342 127 c 0
 342 158 324 180 288 193 c 0
 271 199 242 207 199 216 c 0
 133 232 89 254 67 282 c 0
 54 300 47 322 47 347 c 0
 47 400 73 437 125 459 c 0
 150 470 179 475 211 475 c 0
 261 475 301 464 332 443 c 0
 366 419 385 383 387 335 c 1
 328 331 l 1
 322 391 284 421 214 421 c 0
 143 421 107 397 107 351 c 0
 107 323 123 304 154 293 c 0
 168 288 189 282 218 276 c 0
 256 267 283 260 297 255 c 0
 327 245 351 232 367 216 c 0
 390 194 401 166 401 132 c 0
 401 87 383 52 347 26 c 0
 315 3 275 -8 229 -8 c 0
 172 -8 126 4 92 28 c 0
 52 55 32 96 29 150 c 1
EndSplineSet
MinimumDistance: x20,-1 
EndChar
StartChar: T
Encoding: 84 84 53
OldEncoding: 84
Width: 398
VWidth: 2048
Flags: HW
HStem: 0 10G<169 231> 412 55<15 169 231 386>
VStem: 169 62<0 412>
Fore
169 0 m 1
 169 412 l 1
 15 412 l 1
 15 467 l 1
 386 467 l 1
 386 412 l 1
 231 412 l 1
 231 0 l 1
 169 0 l 1
EndSplineSet
MinimumDistance: x4,-1 y1,7 y1,0 x6,4 x6,5 x1,3 x1,2 
EndChar
StartChar: U
Encoding: 85 85 54
OldEncoding: 85
Width: 471
VWidth: 2048
Flags: HW
HStem: -8 56<223 239> 458 10G<51 113 357 419>
VStem: 51 62<179 467> 357 62<179 467>
Fore
357 467 m 1
 419 467 l 1
 419 197 l 2
 419 121 403 67 371 36 c 0
 340 7 296 -8 236 -8 c 0
 168 -8 120 10 91 44 c 0
 64 76 51 127 51 197 c 2
 51 467 l 1
 113 467 l 1
 113 198 l 2
 113 139 124 99 144 78 c 0
 164 58 193 48 231 48 c 0
 287 48 324 65 342 101 c 0
 352 120 357 153 357 198 c 2
 357 467 l 1
EndSplineSet
MinimumDistance: x1,-1 
EndChar
StartChar: V
Encoding: 86 86 55
OldEncoding: 86
Width: 435
VWidth: 2048
Flags: HW
HStem: 0 10G<184 248> 458 10G<3 70 367 430>
Fore
184 0 m 1
 3 467 l 1
 70 467 l 1
 191 128 l 1
 200 103 208 77 216 51 c 1
 221 72 230 98 241 128 c 2
 367 467 l 1
 430 467 l 1
 248 0 l 1
 184 0 l 1
EndSplineSet
EndChar
StartChar: W
Encoding: 87 87 56
OldEncoding: 87
Width: 616
VWidth: 2048
Flags: HW
HStem: 0 10G<132 195 421 480> 458 10G<8 71 272 347 547 609>
DStem: 557 957 603 729 375 311 400 0 631 841 710 957 862 0 847 473
Fore
132 0 m 1
 8 467 l 1
 71 467 l 1
 143 161 l 1
 150 128 157 96 162 65 c 1
 183 152 l 1
 272 467 l 1
 347 467 l 1
 414 231 l 2
 431 169 443 114 450 65 c 1
 456 96 464 130 473 167 c 2
 547 467 l 1
 609 467 l 1
 480 0 l 1
 421 0 l 1
 308 411 l 1
 306 400 301 382 294 356 c 1
 195 0 l 1
 132 0 l 1
EndSplineSet
MinimumDistance: x8,-1 
EndChar
StartChar: X
Encoding: 88 88 57
OldEncoding: 88
Width: 435
VWidth: 2048
Flags: HW
HStem: 0 10G<3 77 355 431> 458 10G<24 98 351 418>
DStem: 50 957 200 957 376 499 374 712 376 499 398 334 6 0 158 0 486 341 521 506 727 0 883 0 719 957 857 957 527 703 521 506
Fore
3 0 m 1
 184 244 l 1
 24 467 l 1
 98 467 l 1
 183 348 l 2
 200 323 213 304 220 290 c 1
 228 303 240 321 257 343 c 2
 351 467 l 1
 418 467 l 1
 254 247 l 1
 431 0 l 1
 355 0 l 1
 237 167 l 2
 232 174 225 185 217 198 c 1
 209 184 201 173 194 163 c 2
 77 0 l 1
 3 0 l 1
EndSplineSet
MinimumDistance: x10,-1 
EndChar
StartChar: Y
Encoding: 89 89 58
OldEncoding: 89
Width: 435
VWidth: 2048
Flags: HW
HStem: 0 10G<182 244> 458 10G<2 77 358 430>
VStem: 182 62<0 198>
DStem: 4 957 158 957 373 405 347 668
Fore
182 0 m 1
 182 198 l 1
 2 467 l 1
 77 467 l 1
 169 326 l 2
 185 302 201 276 217 248 c 1
 236 280 253 308 268 330 c 2
 358 467 l 1
 430 467 l 1
 244 198 l 1
 244 0 l 1
 182 0 l 1
EndSplineSet
MinimumDistance: x9,-1 
EndChar
StartChar: Z
Encoding: 90 90 59
OldEncoding: 90
Width: 398
VWidth: 2048
Flags: HW
HStem: 0 55<84 382> 412 55<40 301>
Fore
13 0 m 1
 13 58 l 1
 252 356 l 2
 271 379 287 398 301 412 c 1
 40 412 l 1
 40 467 l 1
 375 467 l 1
 375 412 l 1
 84 55 l 1
 382 55 l 1
 382 0 l 1
 13 0 l 1
EndSplineSet
EndChar
StartChar: bracketleft
Encoding: 91 91 60
OldEncoding: 91
Width: 181
VWidth: 2048
Flags: HW
HStem: -130 48<102 171> 420 47<102 171>
VStem: 44 57<-83 420>
Fore
44 -130 m 1
 44 467 l 1
 171 467 l 1
 171 420 l 1
 102 420 l 1
 102 -82 l 1
 171 -82 l 1
 171 -130 l 1
 44 -130 l 1
EndSplineSet
MinimumDistance: x2,-1 x5,7 x5,6 x4,2 x4,3 
EndChar
StartChar: backslash
Encoding: 92 92 61
OldEncoding: 92
Width: 181
VWidth: 2048
Flags: HW
HStem: -8 10G<135 181> 465 10G<0 46>
DStem: 0 973 95 973 277 -16 371 -16
Fore
135 -8 m 1
 0 475 l 1
 46 475 l 1
 181 -8 l 1
 135 -8 l 1
EndSplineSet
EndChar
StartChar: bracketright
Encoding: 93 93 62
OldEncoding: 93
Width: 181
VWidth: 2048
Flags: HW
HStem: -130 48<12 82> 420 47<12 82>
VStem: 82 58<-82 420>
Fore
139 -130 m 1
 12 -130 l 1
 12 -82 l 1
 82 -82 l 1
 82 420 l 1
 12 420 l 1
 12 467 l 1
 139 467 l 1
 139 -130 l 1
EndSplineSet
MinimumDistance: x0,-1 x4,6 x4,5 x3,1 x3,2 
EndChar
StartChar: asciicircum
Encoding: 94 94 63
OldEncoding: 94
Width: 306
VWidth: 2048
Flags: HW
HStem: 465 10G<130 176>
Fore
76 220 m 1
 17 220 l 1
 130 475 l 1
 176 475 l 1
 289 220 l 1
 231 220 l 1
 153 410 l 1
 76 220 l 1
EndSplineSet
EndChar
StartChar: underscore
Encoding: 95 95 64
OldEncoding: 95
Width: 363
VWidth: 2048
Flags: HW
HStem: -130 42<-10 371>
Fore
-10 -130 m 1
 -10 -88 l 1
 371 -88 l 1
 371 -130 l 1
 -10 -130 l 1
EndSplineSet
EndChar
StartChar: grave
Encoding: 96 96 65
OldEncoding: 96
Width: 217
VWidth: 2048
Flags: HW
HStem: 460 10G<28 105>
Fore
148 380 m 1
 102 380 l 1
 28 470 l 1
 105 470 l 1
 148 380 l 1
EndSplineSet
EndChar
StartChar: a
Encoding: 97 97 66
OldEncoding: 97
Width: 363
VWidth: 2048
Flags: HW
HStem: -8 45<139 153> 0 10G<275 335> 299 47<171 188>
VStem: 23 62<85 94> 259 58<140 170 214 235>
Fore
264 42 m 1
 225 9 183 -8 139 -8 c 0
 106 -8 79 0 59 16 c 0
 35 33 23 57 23 89 c 0
 23 125 40 153 72 172 c 0
 89 183 117 190 157 195 c 0
 204 201 238 208 259 215 c 1
 259 230 l 2
 259 276 232 299 178 299 c 0
 152 299 132 294 119 285 c 0
 106 276 96 259 89 234 c 1
 34 242 l 1
 48 311 99 346 186 346 c 0
 235 346 270 336 292 315 c 0
 309 298 317 266 317 218 c 2
 317 69 l 2
 317 45 323 22 335 0 c 1
 275 0 l 1
 270 12 266 26 264 42 c 1
259 170 m 1
 239 162 208 155 166 148 c 0
 112 141 85 121 85 91 c 0
 85 55 108 37 153 37 c 0
 185 37 211 45 229 62 c 0
 249 81 259 110 259 149 c 2
 259 170 l 1
EndSplineSet
MinimumDistance: x14,-1 
EndChar
StartChar: b
Encoding: 98 98 67
OldEncoding: 98
Width: 363
VWidth: 2048
Flags: HW
HStem: -8 47<183 194> 0 10G<42 96> 299 47<183 194> 458 10G<42 100>
VStem: 42 53<0 42 156 180> 42 58<301 467> 278 59<164 180>
Fore
96 0 m 1
 42 0 l 1
 42 467 l 1
 100 467 l 1
 100 301 l 1
 124 331 155 346 193 346 c 0
 251 346 293 319 318 266 c 0
 330 240 336 209 336 174 c 0
 336 125 325 83 301 49 c 0
 275 11 237 -8 190 -8 c 0
 150 -8 118 9 96 42 c 1
 96 0 l 1
95 172 m 0
 95 113 110 74 138 54 c 0
 152 44 168 40 185 40 c 0
 217 40 241 54 257 83 c 0
 271 107 278 136 278 169 c 0
 278 223 264 262 236 284 c 0
 222 294 207 299 188 299 c 0
 157 299 133 285 116 257 c 0
 102 234 95 205 95 172 c 0
EndSplineSet
MinimumDistance: x7,-1 
EndChar
StartChar: c
Encoding: 99 99 68
OldEncoding: 99
Width: 326
VWidth: 2048
Flags: HW
HStem: -8 47<173 190> 299 47<173 190>
VStem: 25 59<156 180>
Fore
264 124 m 1
 320 117 l 1
 314 79 299 48 274 26 c 0
 249 3 218 -8 180 -8 c 0
 129 -8 90 9 63 43 c 0
 38 74 25 116 25 168 c 0
 25 246 50 299 99 326 c 0
 123 339 150 346 180 346 c 0
 256 346 301 311 315 239 c 1
 259 230 l 1
 249 276 223 299 182 299 c 0
 117 299 84 256 84 169 c 0
 84 83 116 40 179 40 c 0
 228 40 256 68 264 124 c 1
EndSplineSet
MinimumDistance: x11,-1 
EndChar
StartChar: d
Encoding: 100 100 69
OldEncoding: 100
Width: 363
VWidth: 2048
Flags: HW
HStem: -8 47<165 179> 0 10G<263 316> 299 47<163 174> 458 10G<259 316>
VStem: 22 59<156 180> 259 57<300 467> 263 53<0 42 156 180>
Fore
263 0 m 1
 263 42 l 1
 241 9 210 -8 168 -8 c 0
 121 -8 85 11 58 47 c 0
 34 80 22 120 22 169 c 0
 22 243 45 295 90 325 c 0
 111 339 136 346 166 346 c 0
 205 346 236 331 259 300 c 1
 259 467 l 1
 316 467 l 1
 316 0 l 1
 263 0 l 1
81 169 m 0
 81 116 95 78 124 56 c 0
 138 45 154 40 173 40 c 0
 205 40 228 53 244 81 c 0
 257 103 264 131 264 164 c 0
 264 201 257 230 245 254 c 0
 229 284 204 299 171 299 c 0
 111 299 81 256 81 169 c 0
EndSplineSet
MinimumDistance: x9,-1 
EndChar
StartChar: e
Encoding: 101 101 70
OldEncoding: 101
Width: 363
VWidth: 2048
Flags: HW
HStem: -8 47<180 196> 155 47<86 275> 299 47<172 188>
Fore
275 109 m 1
 334 102 l 1
 314 29 265 -8 185 -8 c 0
 117 -8 70 19 43 73 c 0
 30 98 24 130 24 167 c 0
 24 219 37 261 63 294 c 0
 91 329 131 346 182 346 c 0
 225 346 260 333 286 308 c 0
 300 294 312 277 320 259 c 0
 328 240 333 218 335 193 c 0
 335 189 335 177 335 155 c 1
 83 155 l 1
 85 122 94 95 110 74 c 0
 129 51 154 40 186 40 c 0
 229 40 258 63 275 109 c 1
86 202 m 1
 275 202 l 1
 270 266 239 299 183 299 c 0
 155 299 132 289 114 271 c 0
 98 253 88 230 86 202 c 1
EndSplineSet
EndChar
StartChar: f
Encoding: 102 102 71
OldEncoding: 102
Width: 181
VWidth: 2048
Flags: HW
HStem: 0 10G<57 114> 294 44<6 57 114 180> 423 52<151 163>
VStem: 57 57<0 294 338 375>
Fore
57 0 m 1
 57 294 l 1
 6 294 l 1
 6 338 l 1
 57 338 l 1
 57 375 l 2
 57 411 64 436 80 452 c 0
 95 467 119 475 150 475 c 0
 167 475 185 473 204 470 c 1
 195 419 l 1
 184 422 172 423 162 423 c 0
 143 423 130 419 124 411 c 0
 117 403 114 389 114 370 c 2
 114 338 l 1
 180 338 l 1
 180 294 l 1
 114 294 l 1
 114 0 l 1
 57 0 l 1
EndSplineSet
MinimumDistance: x14,-1 y1,17 y1,0 x13,15 x13,14 x1,3 x1,2 
EndChar
StartChar: g
Encoding: 103 103 72
OldEncoding: 103
Width: 363
VWidth: 2048
Flags: HW
HStem: -137 47<153 178> 0 47<165 178> 299 47<165 178> 329 10G<267 319>
VStem: 21 59<159 184> 266 54<159 184 298 338>
Fore
33 -28 m 1
 88 -36 l 1
 93 -72 119 -90 166 -90 c 0
 201 -90 226 -80 242 -61 c 0
 255 -44 261 -9 261 44 c 1
 236 15 205 -0 167 0 c 0
 121 0 84 18 57 53 c 0
 33 84 21 124 21 171 c 0
 21 221 33 261 56 293 c 0
 83 328 120 346 167 346 c 0
 208 346 241 330 267 298 c 1
 267 338 l 1
 319 338 l 1
 319 46 l 2
 319 -24 307 -72 281 -98 c 0
 256 -124 218 -137 167 -137 c 0
 127 -137 96 -129 72 -113 c 0
 45 -94 32 -66 33 -28 c 1
80 175 m 0
 80 90 111 47 173 47 c 0
 205 47 230 61 246 88 c 0
 259 110 266 139 266 173 c 0
 266 207 259 236 245 258 c 0
 228 285 204 299 172 299 c 0
 141 299 117 285 101 259 c 0
 87 236 80 208 80 175 c 0
EndSplineSet
MinimumDistance: x12,-1 
EndChar
StartChar: h
Encoding: 104 104 73
OldEncoding: 104
Width: 363
VWidth: 2048
Flags: HW
HStem: 0 10G<43 101 261 319> 458 10G<43 101>
VStem: 43 58<0 196 300 467> 261 58<0 227>
Fore
43 0 m 1
 43 467 l 1
 101 467 l 1
 101 300 l 1
 127 331 161 346 202 346 c 0
 261 346 297 325 310 283 c 0
 316 264 319 241 319 214 c 2
 319 0 l 1
 261 0 l 1
 261 214 l 2
 261 269 237 297 190 297 c 0
 146 297 119 279 108 243 c 0
 103 227 101 208 101 185 c 2
 101 0 l 1
 43 0 l 1
EndSplineSet
MinimumDistance: x6,-1 
EndChar
StartChar: i
Encoding: 105 105 74
OldEncoding: 105
Width: 145
VWidth: 2048
Flags: HW
HStem: 0 10G<43 101> 329 10G<43 101> 458 10G<43 101>
VStem: 43 57<0 338 401 467>
Fore
43 401 m 1
 43 467 l 1
 101 467 l 1
 101 401 l 1
 43 401 l 1
43 0 m 1
 43 338 l 1
 101 338 l 1
 101 0 l 1
 43 0 l 1
EndSplineSet
MinimumDistance: x2,-1 
EndChar
StartChar: j
Encoding: 106 106 75
OldEncoding: 106
Width: 145
VWidth: 2048
Flags: HW
HStem: -137 50<7 15> 329 10G<42 100> 458 10G<42 100>
VStem: 42 58<-36 338 401 467>
Fore
42 401 m 1
 42 467 l 1
 100 467 l 1
 100 401 l 1
 42 401 l 1
-30 -131 m 1
 -19 -83 l 1
 -8 -85 1 -87 8 -87 c 0
 27 -87 38 -77 41 -57 c 0
 42 -48 42 -35 42 -17 c 2
 42 338 l 1
 100 338 l 1
 100 -19 l 2
 100 -73 89 -108 66 -124 c 0
 53 -133 36 -137 15 -137 c 0
 -0 -137 -15 -135 -30 -131 c 1
EndSplineSet
MinimumDistance: x2,-1 
EndChar
StartChar: k
Encoding: 107 107 76
OldEncoding: 107
Width: 326
VWidth: 2048
Flags: HW
HStem: 0 10G<43 101 253 324> 329 10G<236 311> 458 10G<43 101>
VStem: 43 57<0 134 201 467>
DStem: 289 354 371 436 518 0 663 0 484 693 636 693 206 411 371 436
Fore
43 0 m 1
 43 467 l 1
 101 467 l 1
 101 201 l 1
 236 338 l 1
 311 338 l 1
 181 213 l 1
 324 0 l 1
 253 0 l 1
 141 173 l 1
 101 134 l 1
 101 0 l 1
 43 0 l 1
EndSplineSet
MinimumDistance: x7,-1 
EndChar
StartChar: l
Encoding: 108 108 77
OldEncoding: 108
Width: 145
VWidth: 2048
Flags: HW
HStem: 0 10G<42 99> 458 10G<42 99>
VStem: 42 57<0 467>
Fore
42 0 m 1
 42 467 l 1
 99 467 l 1
 99 0 l 1
 42 0 l 1
EndSplineSet
MinimumDistance: x2,-1 
EndChar
StartChar: m
Encoding: 109 109 78
OldEncoding: 109
Width: 543
VWidth: 2048
Flags: HW
HStem: 0 10G<43 101 244 302 445 502> 296 50<184 192 384 397> 329 10G<43 94>
VStem: 43 58<0 196> 244 58<0 211> 445 57<0 227>
Fore
43 0 m 1
 43 338 l 1
 94 338 l 1
 94 291 l 1
 118 328 152 346 197 346 c 0
 247 346 278 326 292 287 c 1
 319 326 354 346 397 346 c 0
 467 346 502 308 502 232 c 2
 502 0 l 1
 445 0 l 1
 445 213 l 2
 445 269 425 296 384 296 c 0
 329 296 302 263 302 197 c 2
 302 0 l 1
 244 0 l 1
 244 220 l 2
 244 271 224 296 184 296 c 0
 147 296 122 280 110 247 c 0
 104 230 101 206 101 176 c 2
 101 0 l 1
 43 0 l 1
EndSplineSet
MinimumDistance: x7,-1 
EndChar
StartChar: n
Encoding: 110 110 79
OldEncoding: 110
Width: 363
VWidth: 2048
Flags: HW
HStem: 0 10G<43 101 261 318> 329 10G<43 95>
VStem: 43 58<0 196> 261 57<0 219>
Fore
43 0 m 1
 43 338 l 1
 95 338 l 1
 95 291 l 1
 119 328 155 346 203 346 c 0
 279 346 318 305 318 223 c 2
 318 0 l 1
 261 0 l 1
 261 206 l 2
 261 266 237 296 190 296 c 0
 131 296 101 259 101 185 c 2
 101 0 l 1
 43 0 l 1
EndSplineSet
MinimumDistance: x5,-1 
EndChar
StartChar: o
Encoding: 111 111 80
OldEncoding: 111
Width: 363
VWidth: 2048
Flags: HW
HStem: -8 47<169 186> 299 47<169 186>
VStem: 21 59<156 180> 280 59<156 180>
Fore
21 169 m 0
 21 222 35 264 61 295 c 0
 89 329 129 346 180 346 c 0
 241 346 287 321 316 271 c 0
 331 245 339 213 339 174 c 0
 339 120 326 77 300 45 c 0
 272 10 232 -8 180 -8 c 0
 114 -8 67 20 41 74 c 0
 28 101 21 132 21 169 c 0
81 169 m 0
 81 114 96 76 127 55 c 0
 142 45 159 40 180 40 c 0
 215 40 241 53 258 81 c 0
 273 104 280 134 280 171 c 0
 280 207 272 236 257 259 c 0
 240 285 214 299 180 299 c 0
 146 299 120 285 103 258 c 0
 88 236 81 206 81 169 c 0
EndSplineSet
MinimumDistance: x4,-1 
EndChar
StartChar: p
Encoding: 112 112 81
OldEncoding: 112
Width: 363
VWidth: 2048
Flags: HW
HStem: -130 10G<43 101> -8 47<183 194> 301 45<183 194> 329 10G<43 95>
VStem: 43 52<151 183 294 338> 43 58<-130 35> 278 59<159 183>
Fore
43 -130 m 1
 43 338 l 1
 95 338 l 1
 95 294 l 1
 120 329 153 346 193 346 c 0
 241 346 277 328 303 293 c 0
 326 261 337 221 337 172 c 0
 337 123 325 82 301 48 c 0
 274 11 237 -8 189 -8 c 0
 153 -8 123 7 101 35 c 1
 101 -130 l 1
 43 -130 l 1
95 167 m 0
 95 114 109 76 137 55 c 0
 150 45 166 40 186 40 c 0
 218 40 243 54 259 84 c 0
 272 107 278 137 278 172 c 0
 278 206 272 234 259 258 c 0
 243 287 219 301 188 301 c 0
 157 301 133 286 116 256 c 0
 102 231 95 202 95 167 c 0
EndSplineSet
MinimumDistance: x6,-1 
EndChar
StartChar: q
Encoding: 113 113 82
OldEncoding: 113
Width: 363
VWidth: 2048
Flags: HW
HStem: -130 10G<259 316> -8 47<165 180> 301 45<163 176> 329 10G<265 316>
VStem: 23 59<159 183> 259 58<-130 36> 265 52<151 175 293 338>
Fore
259 -130 m 1
 259 36 l 1
 238 7 208 -8 170 -8 c 0
 126 -8 90 10 63 44 c 0
 36 79 23 122 23 172 c 0
 23 221 34 261 57 293 c 0
 82 328 118 346 166 346 c 0
 208 346 241 329 265 293 c 1
 265 338 l 1
 316 338 l 1
 316 -130 l 1
 259 -130 l 1
82 170 m 0
 82 116 96 78 125 56 c 0
 139 45 156 40 175 40 c 0
 206 40 229 53 245 81 c 0
 258 104 265 132 265 165 c 0
 265 200 258 230 245 254 c 0
 228 285 204 301 171 301 c 0
 139 301 116 286 101 257 c 0
 88 234 82 205 82 170 c 0
EndSplineSet
MinimumDistance: x9,-1 
EndChar
StartChar: r
Encoding: 114 114 83
OldEncoding: 114
Width: 217
VWidth: 2048
Flags: HW
HStem: 0 10G<42 100> 287 59<164 168> 329 10G<42 94>
VStem: 42 57<0 188>
Fore
42 0 m 1
 42 338 l 1
 94 338 l 1
 94 287 l 1
 116 326 140 346 167 346 c 0
 187 346 206 340 226 328 c 1
 207 274 l 1
 193 283 179 287 165 287 c 0
 135 287 116 270 107 235 c 0
 102 216 100 197 100 177 c 2
 100 0 l 1
 42 0 l 1
EndSplineSet
MinimumDistance: x9,-1 
EndChar
StartChar: s
Encoding: 115 115 84
OldEncoding: 115
Width: 326
VWidth: 2048
Flags: HW
HStem: -8 47<152 177> 299 47<145 169>
VStem: 30 55<249 258> 242 59<92 100>
Fore
20 101 m 1
 77 110 l 1
 83 63 113 40 165 40 c 0
 216 40 242 57 242 93 c 0
 242 109 233 121 215 130 c 0
 209 132 193 137 167 144 c 0
 137 151 120 155 115 157 c 0
 95 163 79 170 67 179 c 0
 42 196 30 220 30 249 c 0
 30 285 47 313 83 332 c 0
 101 341 125 346 154 346 c 0
 209 346 246 333 267 306 c 0
 278 292 285 274 289 251 c 1
 232 244 l 1
 227 280 202 299 158 299 c 0
 109 299 85 284 85 255 c 0
 85 239 93 228 109 222 c 0
 118 218 136 213 165 205 c 0
 185 200 206 194 226 188 c 1
 250 180 268 170 280 157 c 0
 294 141 301 122 301 100 c 0
 301 64 287 37 258 18 c 0
 232 1 201 -8 165 -8 c 0
 81 -8 33 28 20 101 c 1
EndSplineSet
MinimumDistance: x20,-1 
EndChar
StartChar: t
Encoding: 116 116 85
OldEncoding: 116
Width: 181
VWidth: 2048
Flags: HW
HStem: -4 54<133 145> 294 44<12 54 111 168>
VStem: 54 57<89 294 338 422>
Fore
168 51 m 1
 177 0 l 1
 160 -3 146 -4 133 -4 c 0
 97 -4 74 6 62 28 c 0
 57 39 54 62 54 99 c 2
 54 294 l 1
 12 294 l 1
 12 338 l 1
 54 338 l 1
 54 422 l 1
 111 457 l 1
 111 338 l 1
 168 338 l 1
 168 294 l 1
 111 294 l 1
 111 96 l 2
 111 72 115 57 124 53 c 0
 129 51 135 49 143 49 c 0
 150 49 158 50 168 51 c 1
EndSplineSet
MinimumDistance: x0,-1 x11,13 x11,12 x5,7 x5,6 
EndChar
StartChar: u
Encoding: 117 117 86
OldEncoding: 117
Width: 363
VWidth: 2048
Flags: HW
HStem: -8 50<157 170> 0 10G<265 316> 329 10G<42 99 259 316>
VStem: 42 57<128 338> 259 58<140 338>
Fore
265 0 m 1
 265 50 l 1
 239 11 203 -8 157 -8 c 0
 116 -8 85 4 66 27 c 0
 50 48 42 81 42 129 c 2
 42 338 l 1
 99 338 l 1
 99 151 l 2
 99 107 104 78 114 65 c 0
 126 50 144 42 169 42 c 0
 214 42 242 60 252 97 c 0
 257 113 259 133 259 157 c 2
 259 338 l 1
 316 338 l 1
 316 0 l 1
 265 0 l 1
EndSplineSet
MinimumDistance: x13,-1 
EndChar
StartChar: v
Encoding: 118 118 87
OldEncoding: 118
Width: 326
VWidth: 2048
Flags: HW
HStem: 0 10G<137 190> 329 10G<8 69 260 319>
DStem: 17 693 141 693 281 0 290 278
Fore
137 0 m 1
 8 338 l 1
 69 338 l 1
 142 136 l 2
 149 114 157 91 163 67 c 1
 168 85 175 107 185 132 c 2
 260 338 l 1
 319 338 l 1
 190 0 l 1
 137 0 l 1
EndSplineSet
MinimumDistance: x3,-1 
EndChar
StartChar: w
Encoding: 119 119 88
OldEncoding: 119
Width: 471
VWidth: 2048
Flags: HW
HStem: 0 10G<105 166 301 360> 329 10G<2 61 207 266 411 466>
DStem: 423 693 479 533 313 287 339 0 479 533 544 693 616 0 682 159
Fore
105 0 m 1
 2 338 l 1
 61 338 l 1
 135 70 l 1
 138 85 144 108 153 140 c 2
 207 338 l 1
 266 338 l 1
 333 78 l 1
 411 338 l 1
 466 338 l 1
 360 0 l 1
 301 0 l 1
 234 260 l 1
 166 0 l 1
 105 0 l 1
EndSplineSet
MinimumDistance: x7,-1 
EndChar
StartChar: x
Encoding: 120 120 89
OldEncoding: 120
Width: 326
VWidth: 2048
Flags: HW
HStem: 0 10G<5 74 251 322> 329 10G<14 86 244 312>
DStem: 29 693 176 693 263 360 282 531 500 693 640 693 383 529 401 367
Fore
5 0 m 1
 128 176 l 1
 14 338 l 1
 86 338 l 1
 138 259 l 2
 146 246 154 233 161 221 c 1
 167 230 175 242 187 258 c 2
 244 338 l 1
 312 338 l 1
 196 179 l 1
 322 0 l 1
 251 0 l 1
 163 134 l 1
 74 0 l 1
 5 0 l 1
EndSplineSet
MinimumDistance: x8,-1 
EndChar
StartChar: y
Encoding: 121 121 90
OldEncoding: 121
Width: 326
VWidth: 2048
Flags: HW
HStem: -137 56<66 78> 329 10G<11 72 263 321>
DStem: 22 693 148 693 285 -1 292 292 539 693 657 693 391 289 393 -12
Fore
41 -130 m 1
 34 -77 l 1
 47 -80 57 -82 67 -82 c 0
 93 -82 110 -72 119 -54 c 0
 122 -46 129 -29 138 -3 c 1
 139 -0 l 1
 11 338 l 1
 72 338 l 1
 143 143 l 2
 153 114 161 88 167 64 c 1
 174 90 181 115 191 141 c 2
 263 338 l 1
 321 338 l 1
 192 -6 l 2
 180 -39 171 -60 167 -69 c 0
 155 -93 142 -111 128 -121 c 0
 113 -132 97 -137 78 -137 c 0
 67 -137 54 -135 41 -130 c 1
EndSplineSet
MinimumDistance: x12,-1 
EndChar
StartChar: z
Encoding: 122 122 91
OldEncoding: 122
Width: 326
VWidth: 2048
Flags: HW
HStem: 0 49<129 312> 292 46<25 193>
DStem: 467 602 619 616 26 95 171 95
Fore
13 0 m 1
 13 46 l 1
 228 294 l 1
 204 293 182 292 164 292 c 2
 25 292 l 1
 25 338 l 1
 302 338 l 1
 302 301 l 1
 83 46 l 1
 109 48 133 49 156 49 c 2
 312 49 l 1
 312 0 l 1
 13 0 l 1
EndSplineSet
MinimumDistance: x6,-1 
EndChar
StartChar: braceleft
Encoding: 123 123 92
OldEncoding: 123
Width: 218
VWidth: 2048
Flags: HW
HStem: -137 50<182 203> 425 50<182 203>
VStem: 84 54<282 363>
Fore
18 195 m 1
 51 196 71 211 79 242 c 0
 83 258 84 291 84 340 c 0
 84 383 88 414 97 432 c 0
 107 454 124 468 145 472 c 0
 154 474 167 475 185 475 c 2
 203 475 l 1
 203 425 l 1
 193 425 l 2
 169 425 154 420 146 410 c 0
 141 402 138 385 138 360 c 0
 138 313 138 287 138 282 c 0
 135 251 129 226 117 208 c 0
 106 192 91 179 71 169 c 1
 116 151 138 104 138 25 c 0
 138 -29 140 -61 145 -70 c 0
 152 -82 167 -87 193 -87 c 2
 203 -87 l 1
 203 -137 l 1
 185 -137 l 2
 154 -137 132 -132 117 -120 c 0
 101 -107 91 -89 88 -67 c 1
 85 38 l 1
 83 107 61 142 18 143 c 1
 18 195 l 1
EndSplineSet
MinimumDistance: x11,-1 
EndChar
StartChar: bar
Encoding: 124 124 93
OldEncoding: 124
Width: 169
VWidth: 2048
Flags: HW
HStem: -137 10G<60 110> 465 10G<60 110>
VStem: 60 50<-137 475>
Fore
60 -137 m 1
 60 475 l 1
 110 475 l 1
 110 -137 l 1
 60 -137 l 1
EndSplineSet
MinimumDistance: x2,-1 
EndChar
StartChar: braceright
Encoding: 125 125 94
OldEncoding: 125
Width: 218
VWidth: 2048
Flags: HW
HStem: -137 10G<15 33> 143 52<194 200> 465 10G<15 33>
VStem: 80 54<-21 43 337 363>
Fore
200 195 m 1
 200 143 l 1
 170 142 151 129 141 102 c 0
 136 87 133 61 133 23 c 0
 133 -36 130 -74 122 -91 c 0
 111 -114 95 -129 72 -134 c 0
 62 -136 49 -137 33 -137 c 2
 15 -137 l 1
 15 -87 l 1
 25 -87 l 2
 49 -87 64 -82 71 -72 c 0
 77 -64 80 -47 80 -21 c 0
 80 28 80 54 80 57 c 0
 82 89 89 113 101 131 c 0
 111 148 127 160 146 169 c 1
 109 187 88 215 83 255 c 0
 81 276 79 320 78 387 c 1
 76 403 71 413 62 419 c 0
 55 423 42 425 25 425 c 2
 15 425 l 1
 15 475 l 1
 33 475 l 2
 69 475 95 467 110 449 c 0
 125 432 133 395 133 336 c 0
 133 269 141 227 156 211 c 0
 166 201 181 196 200 195 c 1
EndSplineSet
MinimumDistance: x3,-1 
EndChar
StartChar: asciitilde
Encoding: 126 126 95
OldEncoding: 126
Width: 381
VWidth: 2048
Flags: HW
Fore
28 178 m 1
 28 243 l 1
 50 268 80 281 116 281 c 0
 139 281 173 272 216 253 c 0
 240 243 258 238 271 238 c 0
 300 238 327 253 354 282 c 1
 354 214 l 1
 328 190 299 178 266 178 c 0
 243 178 213 187 174 204 c 0
 149 215 128 221 111 221 c 0
 85 221 58 206 28 178 c 1
EndSplineSet
EndChar
StartChar: uni0E10.descless
Encoding: 128 63232 96
OldEncoding: 63232
Width: 346
Flags: HW
HStem: -2 41 349 41
VStem: 138 47 240 47
Fore
317 340 m 1
 317 340 l 0
 316 340 296 330 278 330 c 0
 234 330 209 346 165 346 c 0
 117 347 98 324 98 324 c 2
 99 324 185 319 242 280 c 0
 264 264 279 240 279 209 c 2
 279 62 l 2
 279 24 248 -2 205 -2 c 0
 166 -2 136 23 136 58 c 2
 136 107 l 1
 136 107 111 97 86 108 c 0
 61 118 46 143 51 177 c 0
 56 208 82 228 115 228 c 0
 163 228 181 195 181 161 c 2
 181 70 l 2
 181 55 188 39 209 38 c 0
 231 38 234 56 234 71 c 2
 234 204 l 2
 234 242 201 266 154 278 c 0
 95 294 34 298 26 297 c 1
 52 346 78 375 139 383 c 0
 190 390 216 370 265 366 c 0
 286 364 304 375 305 375 c 1
 317 340 l 1
115 135 m 0
 155 135 155 195 115 195 c 0
 74 195 74 135 115 135 c 0
EndSplineSet
MinimumDistance: x0,-1 
EndChar
StartChar: uni0E34.left
Encoding: 129 63233 97
OldEncoding: 63233
Width: 0
Flags: HW
HStem: 456 39 535 39
VStem: -482 293
Fore
-136 426 m 0
 -136 426 l 0
 -191 449 -223 457 -290 456 c 0
 -342 456 -378 449 -428 430 c 1
 -427 511 -370 573 -283 574 c 0
 -198 575 -136 507 -136 426 c 0
-178 474 m 1
 -196 515 -234 538 -280 538 c 0
 -326 538 -358 517 -377 479 c 1
 -354 485 -333 491 -286 492 c 0
 -239 493 -204 482 -178 474 c 1
EndSplineSet
EndChar
StartChar: uni0E35.left
Encoding: 130 63234 98
OldEncoding: 63234
Width: 0
Flags: HW
HStem: 456 39 534 39
VStem: -231 45
Fore
-128 425 m 0
 -128 425 l 0
 -184 448 -216 456 -282 456 c 0
 -335 455 -371 448 -421 429 c 1
 -422 511 -357 573 -276 573 c 0
 -203 573 -184 535 -183 535 c 1
 -183 617 l 1
 -138 617 l 5
 -138 490 l 2
 -138 489 -133 475 -131 460 c 0
 -129 446 -128 428 -128 425 c 0
-171 473 m 1
 -189 514 -226 537 -273 537 c 0
 -319 537 -351 516 -370 478 c 1
 -347 485 -326 490 -278 491 c 0
 -231 492 -197 482 -171 473 c 1
EndSplineSet
MinimumDistance: x10,-1 
EndChar
StartChar: uni0E36.left
Encoding: 131 63235 99
OldEncoding: 63235
Width: 0
Flags: HW
HStem: 452 39 529 39
VStem: -430 293
Fore
-137 552 m 0
 -137 552 l 0
 -142 538 -153 527 -167 521 c 1
 -157 507 -151 501 -145 479 c 0
 -137 448 -138 435 -138 421 c 1
 -193 444 -225 452 -292 452 c 0
 -344 451 -380 444 -430 425 c 1
 -431 478 -407 523 -368 547 c 0
 -310 583 -255 568 -251 568 c 1
 -252 576 -257 588 -245 608 c 0
 -227 639 -181 638 -161 626 c 0
 -134 610 -126 579 -137 552 c 0
-192 546 m 0
 -192 546 l 0
 -153 546 -153 606 -192 606 c 0
 -232 606 -232 546 -192 546 c 0
-180 469 m 1
 -198 511 -236 534 -282 534 c 0
 -328 534 -360 512 -379 474 c 1
 -356 481 -335 486 -288 487 c 0
 -241 488 -206 478 -180 469 c 1
EndSplineSet
MinimumDistance: x12,-1 
EndChar
StartChar: uni0E37.left
Encoding: 132 63236 100
OldEncoding: 63236
Width: 0
Flags: HW
HStem: 457 39 538 29
VStem: -261 45 -183 45
Fore
-125 426 m 0
 -125 426 l 0
 -181 449 -213 457 -279 457 c 0
 -332 456 -368 449 -418 430 c 1
 -419 452 -416 506 -374 543 c 0
 -335 577 -281 580 -261 577 c 1
 -261 621 l 1
 -218 621 l 1
 -218 568 l 1
 -217 568 -206 564 -199 560 c 0
 -192 555 -183 545 -183 545 c 1
 -183 621 l 1
 -140 621 l 1
 -140 490 l 2
 -140 488 -132 471 -130 459 c 0
 -127 445 -125 430 -125 426 c 0
-168 474 m 1
 -186 515 -223 538 -270 538 c 0
 -316 538 -348 517 -367 479 c 1
 -344 485 -323 491 -275 492 c 0
 -228 493 -194 483 -168 474 c 1
EndSplineSet
MinimumDistance: x11,-1 
EndChar
StartChar: ellipsis
Encoding: 133 8230 101
OldEncoding: 8230
Width: 372
VWidth: 2048
Flags: HW
VStem: 36 76<38 40> 158 76<38 40> 281 76<38 40>
Fore
319 0 m 0
 297 0 284 13 281 38 c 1
 281 64 293 77 319 77 c 0
 344 77 357 64 357 38 c 0
 357 13 344 0 319 0 c 0
196 0 m 0
 174 0 161 13 158 38 c 1
 158 64 171 77 196 77 c 0
 221 77 234 64 234 38 c 0
 234 13 221 0 196 0 c 0
74 0 m 0
 52 0 39 13 36 38 c 1
 36 64 49 77 74 77 c 0
 99 77 112 64 112 38 c 0
 112 13 99 0 74 0 c 0
EndSplineSet
MinimumDistance: x3,-1 
EndChar
StartChar: uni0E48.low_left
Encoding: 134 63237 102
OldEncoding: 63237
Width: 0
Flags: HW
HStem: 434 119
VStem: -206 45<434 579>
Fore
-161 434 m 1
 -206 434 l 1
 -206 579 l 1
 -161 579 l 1
 -161 434 l 1
EndSplineSet
MinimumDistance: x0,-1 
EndChar
StartChar: uni0E49.low_left
Encoding: 135 63238 103
OldEncoding: 63238
Width: 0
Flags: HW
Fore
-120 519 m 1
 -120 519 l 0
 -138 494 -157 474 -202 454 c 0
 -248 433 -288 433 -322 438 c 1
 -313 443 -305 452 -299 461 c 0
 -294 468 -287 478 -287 483 c 1
 -310 480 -324 487 -337 500 c 0
 -359 523 -350 580 -304 587 c 0
 -258 594 -241 563 -238 537 c 0
 -234 501 -258 468 -260 468 c 0
 -231 474 -213 483 -189 501 c 0
 -156 524 -140 543 -120 581 c 1
 -120 519 l 1
-294 507 m 0
 -258 507 -258 562 -294 562 c 0
 -331 562 -331 507 -294 507 c 0
EndSplineSet
MinimumDistance: x8,-1 
EndChar
StartChar: uni0E4A.low_left
Encoding: 136 63239 104
OldEncoding: 63239
Width: 0
Flags: HW
HStem: 496 16
Fore
-115 544 m 1
 -115 544 l 0
 -118 519 -128 500 -143 481 c 0
 -172 446 -208 433 -253 436 c 1
 -245 441 -227 464 -223 494 c 0
 -221 516 -227 543 -249 546 c 0
 -270 549 -285 534 -288 529 c 1
 -291 534 -313 549 -331 544 c 0
 -349 539 -358 523 -357 504 c 1
 -348 511 -342 514 -326 514 c 0
 -303 514 -288 494 -289 473 c 0
 -290 450 -308 432 -335 433 c 0
 -374 435 -396 478 -386 526 c 0
 -380 552 -363 574 -334 577 c 0
 -315 578 -298 569 -289 552 c 1
 -279 568 -262 577 -243 577 c 0
 -215 577 -193 553 -190 524 c 0
 -186 490 -203 465 -205 462 c 1
 -184 473 -170 487 -160 507 c 0
 -148 529 -146 563 -146 572 c 1
 -115 544 l 1
-330 454 m 0
 -304 454 -304 494 -330 494 c 0
 -356 494 -356 454 -330 454 c 0
EndSplineSet
MinimumDistance: x11,-1 
EndChar
StartChar: uni0E4B.low_left
Encoding: 137 63240 105
OldEncoding: 63240
Width: 0
Flags: HW
HStem: 491 39
VStem: -286 45
Fore
-139 491 m 1
 -192 491 l 1
 -192 435 l 1
 -238 435 l 1
 -238 491 l 1
 -292 491 l 1
 -292 534 l 1
 -238 534 l 1
 -238 593 l 1
 -192 593 l 1
 -192 534 l 1
 -139 534 l 1
 -139 491 l 1
EndSplineSet
MinimumDistance: x0,-1 y5,3 y5,4 y11,9 y11,10 x8,6 x8,7 x11,1 x11,0 
EndChar
StartChar: uni0E4C.low_left
Encoding: 138 63241 106
OldEncoding: 63241
Width: 0
Flags: HW
HStem: 436 29 515 29
Fore
-91 634 m 1
 -91 634 l 0
 -93 626 -92 598 -125 580 c 0
 -165 558 -215 572 -249 555 c 0
 -267 546 -268 530 -269 528 c 1
 -260 535 -254 539 -236 539 c 0
 -209 539 -186 518 -186 489 c 0
 -186 456 -210 437 -239 436 c 0
 -288 434 -317 485 -305 530 c 0
 -291 581 -251 595 -185 595 c 0
 -133 595 -139 632 -136 634 c 1
 -91 634 l 1
-240 461 m 0
 -204 461 -205 515 -241 515 c 0
 -276 515 -275 461 -240 461 c 0
EndSplineSet
MinimumDistance: x0,-1 
EndChar
StartChar: uni0E48.low
Encoding: 139 63242 107
OldEncoding: 63242
Width: 0
Flags: HW
HStem: 434 119
VStem: -158 45
AnchorPoint: "AboveBase" -74 430 mark 0
Fore
-78 434 m 1
 -123 434 l 1
 -123 579 l 1
 -78 579 l 1
 -78 434 l 1
EndSplineSet
MinimumDistance: x0,-1 
Substitution: 0 65534 'amni' uni0E4D
EndChar
StartChar: uni0E49.low
Encoding: 140 63243 108
OldEncoding: 63243
Width: 0
Flags: HW
AnchorPoint: "AboveBase" -74 430 mark 0
Fore
2 535 m 0
 2 535 l 0
 0 526 -39 479 -91 461 c 0
 -142 443 -200 443 -238 460 c 1
 -228 466 -232 463 -209 484 c 0
 -201 491 -185 516 -185 521 c 1
 -206 518 -224 525 -238 540 c 0
 -262 565 -256 627 -202 635 c 0
 -151 643 -133 608 -130 580 c 0
 -126 541 -152 502 -164 484 c 1
 -106 489 -74 512 -61 523 c 0
 -49 533 -19 555 2 604 c 1
 2 575 2 549 2 535 c 0
-190 548 m 0
 -151 548 -151 608 -190 608 c 0
 -230 608 -230 548 -190 548 c 0
EndSplineSet
MinimumDistance: x9,-1 
Substitution: 0 65534 'amni' uni0E4D
EndChar
StartChar: uni0E4A.low
Encoding: 141 63244 109
OldEncoding: 63244
Width: 0
Flags: HW
HStem: 493 16
AnchorPoint: "AboveBase" -74 430 mark 0
Fore
16 542 m 1
 16 542 l 0
 12 517 2 499 -13 480 c 0
 -42 445 -78 431 -123 434 c 1
 -115 439 -96 462 -93 492 c 0
 -91 514 -97 541 -119 544 c 0
 -139 547 -155 533 -158 528 c 1
 -160 533 -183 547 -201 542 c 0
 -219 537 -228 521 -227 503 c 1
 -218 509 -211 512 -196 512 c 0
 -173 512 -158 492 -159 471 c 0
 -160 448 -178 430 -205 431 c 0
 -244 434 -266 477 -256 524 c 0
 -250 551 -233 572 -204 575 c 0
 -185 577 -168 567 -159 551 c 1
 -149 566 -132 575 -112 575 c 0
 -84 575 -63 552 -59 522 c 0
 -56 488 -73 463 -75 460 c 1
 -54 471 -40 485 -30 506 c 0
 -18 528 -16 561 -16 570 c 1
 16 542 l 1
-200 491 m 0
 -226 491 -227 452 -201 452 c 0
 -175 452 -174 491 -200 491 c 0
EndSplineSet
MinimumDistance: x11,-1 
Substitution: 0 65534 'amni' uni0E4D
EndChar
StartChar: uni0E4B.low
Encoding: 142 63245 110
OldEncoding: 63245
Width: 0
Flags: HW
HStem: 504 41
VStem: -151 47
AnchorPoint: "AboveBase" -74 430 mark 0
Fore
-23 527 m 1
 -24 487 l 1
 -76 488 l 1
 -76 474 -76 433 -76 436 c 1
 -117 436 l 1
 -117 488 l 1
 -170 487 l 1
 -169 526 l 1
 -116 527 l 1
 -116 582 l 1
 -76 582 l 1
 -75 527 l 1
 -23 527 l 1
EndSplineSet
MinimumDistance: x10,-1 
Substitution: 0 65534 'amni' uni0E4D
EndChar
StartChar: uni0E4C.low
Encoding: 143 63246 111
OldEncoding: 63246
Width: 0
Flags: HW
HStem: 435 29 523 29
AnchorPoint: "AboveBase" -74 430 mark 0
Fore
42 656 m 1
 42 656 l 0
 40 647 41 617 5 596 c 0
 -38 571 -93 588 -133 568 c 0
 -152 558 -154 541 -155 538 c 1
 -144 546 -139 550 -118 550 c 0
 -89 550 -63 528 -63 494 c 0
 -63 459 -90 437 -121 435 c 0
 -176 433 -210 490 -195 540 c 0
 -179 597 -135 612 -62 613 c 0
 -4 614 -10 654 -7 656 c 1
 42 656 l 1
-122 463 m 0
 -83 462 -84 523 -123 523 c 0
 -163 523 -162 464 -122 463 c 0
EndSplineSet
MinimumDistance: x0,-1 
EndChar
StartChar: uni0E0D.descless
Encoding: 144 63247 112
OldEncoding: 63247
Width: 522
Flags: HW
HStem: 0 41 361 41
VStem: 74 47 286 47 443 47
Fore
454 72 m 1
 454 72 l 0
 454 56 456 42 448 28 c 0
 438 11 421 0 401 0 c 2
 230 0 l 1
 230 43 l 1
 258 43 l 1
 258 290 l 2
 258 328 230 346 170 347 c 0
 114 349 84 327 84 327 c 2
 86 327 113 315 129 304 c 0
 148 292 166 276 166 276 c 1
 163 276 136 271 119 252 c 0
 106 239 99 221 99 201 c 2
 99 120 l 1
 99 120 124 130 149 119 c 0
 174 109 189 84 184 50 c 0
 179 19 153 -1 120 -1 c 0
 72 -1 54 32 54 66 c 2
 54 210 l 2
 54 222 58 238 68 254 c 0
 76 269 92 278 92 278 c 1
 92 278 75 294 53 302 c 0
 33 310 22 315 4 318 c 1
 17 335 76 383 168 387 c 0
 260 391 303 344 303 292 c 2
 303 43 l 1
 385 43 l 2
 393 43 399 45 404 52 c 0
 410 59 409 66 409 74 c 2
 409 385 l 1
 454 385 l 1
 454 72 l 1
123 31 m 0
 163 31 163 91 123 91 c 0
 82 91 82 31 123 31 c 0
EndSplineSet
MinimumDistance: x4,-1 y8,5 y8,6 x0,6 x0,5 
EndChar
StartChar: quoteleft
Encoding: 145 8216 113
OldEncoding: 8216
Width: 175
Flags: HW
Fore
110 443 m 1
 101 441 88 433 75 418 c 0
 65 405 63 386 63 384 c 1
 79 388 95 384 107 373 c 0
 128 354 123 308 95 296 c 0
 61 283 36 298 28 315 c 0
 11 346 22 403 49 434 c 0
 65 452 85 464 110 469 c 1
 110 443 l 1
EndSplineSet
EndChar
StartChar: quoteright
Encoding: 146 8217 114
OldEncoding: 8217
Width: 182
Flags: HW
Fore
133 451 m 0
 149 420 137 363 110 332 c 0
 93 314 74 302 49 297 c 1
 49 323 l 1
 58 325 71 333 84 348 c 0
 94 361 96 380 96 382 c 1
 80 378 64 382 52 393 c 0
 31 412 35 458 64 470 c 0
 98 484 124 468 133 451 c 0
EndSplineSet
EndChar
StartChar: quotedblleft
Encoding: 147 8220 115
OldEncoding: 8220
Width: 316
Flags: HW
Fore
271 441 m 1
 271 441 l 0
 263 439 249 431 237 416 c 0
 226 403 224 384 224 382 c 1
 241 386 256 382 269 372 c 1
 290 353 285 306 257 295 c 0
 222 281 196 296 188 313 c 0
 171 345 184 401 211 432 c 0
 227 451 246 462 271 467 c 1
 271 441 l 1
121 443 m 1
 113 441 99 433 87 418 c 0
 76 405 74 386 74 384 c 1
 90 388 106 384 118 373 c 0
 140 354 135 308 107 296 c 0
 72 283 48 298 39 315 c 0
 23 346 34 403 61 434 c 0
 77 452 96 464 121 469 c 1
 121 443 l 1
EndSplineSet
EndChar
StartChar: quotedblright
Encoding: 148 8221 116
OldEncoding: 8221
Width: 347
Flags: HW
Fore
288 449 m 0
 288 449 l 0
 304 418 294 361 267 330 c 0
 250 312 231 300 206 295 c 1
 206 321 l 1
 215 323 228 331 241 346 c 0
 251 359 253 378 253 380 c 1
 237 376 221 380 209 391 c 0
 187 410 192 457 220 468 c 0
 255 482 279 466 288 449 c 0
140 451 m 0
 156 420 144 363 116 332 c 0
 100 314 81 302 56 297 c 1
 56 323 l 1
 64 325 78 333 90 348 c 0
 101 361 103 380 103 382 c 1
 87 378 71 382 59 393 c 0
 37 412 42 458 70 470 c 0
 105 484 131 468 140 451 c 0
EndSplineSet
EndChar
StartChar: bullet
Encoding: 149 8226 117
OldEncoding: 8226
Width: 345
Flags: HW
Fore
177 64 m 0
 32 64 32 283 177 283 c 0
 322 283 322 64 177 64 c 0
EndSplineSet
EndChar
StartChar: endash
Encoding: 150 8211 118
OldEncoding: 8211
Width: 358
Flags: HW
HStem: 175 39
VStem: 41 314
Fore
341 168 m 1
 27 168 l 1
 27 213 l 1
 341 213 l 1
 341 168 l 1
EndSplineSet
EndChar
StartChar: emdash
Encoding: 151 8212 119
OldEncoding: 8212
Width: 463
Flags: HW
HStem: 182 41
Fore
445 168 m 1
 27 168 l 1
 27 213 l 1
 445 213 l 1
 445 168 l 1
EndSplineSet
EndChar
StartChar: uni0E31.left
Encoding: 152 63248 120
OldEncoding: 63248
Width: 0
Flags: HW
Fore
-13 518 m 1
 -13 518 l 0
 -34 499 -76 474 -120 463 c 0
 -187 447 -279 443 -307 507 c 0
 -320 537 -307 592 -256 598 c 0
 -209 603 -180 565 -186 528 c 0
 -190 503 -196 501 -202 494 c 1
 -175 493 -149 493 -109 510 c 0
 -57 533 -18 580 -13 588 c 1
 -13 518 l 1
-246 568 m 0
 -289 568 -290 505 -247 505 c 0
 -205 505 -204 568 -246 568 c 0
EndSplineSet
MinimumDistance: x4,-1 
EndChar
StartChar: uni0E4D.left
Encoding: 153 63249 121
OldEncoding: 63249
Width: 0
Flags: HW
Fore
-216 426 m 0
 -216 426 l 0
 -304 426 -304 560 -216 560 c 4
 -127 560 -127 426 -216 426 c 0
-216 457 m 0
 -167 457 -167 529 -216 529 c 0
 -264 529 -264 457 -216 457 c 0
EndSplineSet
EndChar
StartChar: uni0E47.left
Encoding: 154 63250 122
OldEncoding: 63250
Width: 0
Flags: HW
VStem: -248 50
Fore
-127 633 m 1
 -127 633 l 0
 -127 632 -128 569 -202 561 c 0
 -229 559 -255 566 -281 568 c 0
 -306 571 -327 568 -342 548 c 0
 -352 534 -352 519 -347 505 c 1
 -346 499 l 1
 -337 512 -327 521 -309 524 c 0
 -274 531 -242 507 -230 496 c 1
 -210 544 -138 530 -144 474 c 0
 -147 448 -168 430 -201 435 c 0
 -245 442 -265 497 -307 484 c 0
 -325 478 -331 457 -331 435 c 2
 -331 430 l 1
 -365 443 -387 466 -391 504 c 0
 -396 552 -370 589 -336 598 c 0
 -308 606 -288 605 -271 603 c 0
 -253 601 -238 597 -218 597 c 0
 -178 598 -175 633 -175 633 c 1
 -175 637 l 1
 -127 637 l 1
 -127 633 l 1
-171 480 m 0
 -171 489 -177 498 -189 498 c 0
 -200 498 -206 489 -206 480 c 0
 -206 470 -200 462 -189 462 c 0
 -177 462 -171 470 -171 480 c 0
EndSplineSet
MinimumDistance: x17,-1 
EndChar
StartChar: uni0E48.left
Encoding: 155 63251 123
OldEncoding: 63251
Width: 0
Flags: HW
HStem: 651 119
VStem: -185 45<651 765>
Fore
-140 651 m 1
 -185 651 l 1
 -185 765 l 1
 -140 765 l 1
 -140 651 l 1
EndSplineSet
MinimumDistance: x0,-1 
EndChar
StartChar: uni0E49.left
Encoding: 156 63252 124
OldEncoding: 63252
Width: 0
Flags: HW
Fore
-56 726 m 1
 -56 726 l 0
 -73 702 -90 682 -134 663 c 0
 -179 643 -219 643 -252 648 c 1
 -243 654 -236 661 -230 669 c 0
 -225 677 -220 688 -219 692 c 1
 -238 689 -253 696 -266 709 c 0
 -287 731 -280 785 -233 791 c 0
 -188 796 -173 769 -170 744 c 0
 -167 710 -189 679 -191 678 c 0
 -163 684 -142 695 -121 711 c 0
 -89 734 -65 766 -56 786 c 1
 -56 726 l 1
-222 716 m 0
 -187 716 -193 769 -223 767 c 0
 -255 764 -257 716 -222 716 c 0
EndSplineSet
MinimumDistance: x9,-1 
EndChar
StartChar: uni0E4A.left
Encoding: 157 63253 125
OldEncoding: 63253
Width: 0
Flags: HW
HStem: 701 16
Fore
-9 747 m 1
 -9 747 l 0
 -13 723 -22 705 -37 687 c 0
 -65 653 -100 640 -144 643 c 1
 -136 647 -118 670 -115 699 c 0
 -112 720 -119 746 -140 749 c 0
 -160 752 -175 738 -177 733 c 1
 -180 738 -202 752 -219 747 c 0
 -237 743 -246 727 -245 709 c 1
 -236 715 -230 718 -215 718 c 0
 -192 718 -177 699 -178 678 c 0
 -179 656 -197 638 -223 640 c 0
 -261 642 -283 684 -273 729 c 0
 -267 756 -250 776 -222 779 c 0
 -204 781 -188 771 -178 756 c 1
 -169 771 -152 779 -134 779 c 0
 -106 779 -85 757 -82 728 c 0
 -79 695 -95 671 -97 668 c 1
 -77 678 -63 692 -53 712 c 0
 -42 733 -40 766 -40 774 c 1
 -9 747 l 1
-218 699 m 0
 -243 699 -244 661 -219 661 c 0
 -194 661 -193 699 -218 699 c 0
EndSplineSet
MinimumDistance: x16,-1 
EndChar
StartChar: uni0E4B.left
Encoding: 158 63254 126
OldEncoding: 63254
Width: 0
Flags: HW
HStem: 687 38
VStem: -184 44
Fore
-87 687 m 1
 -139 687 l 1
 -139 638 l 1
 -183 638 l 1
 -183 687 l 1
 -236 687 l 1
 -236 728 l 1
 -183 728 l 1
 -183 780 l 1
 -139 780 l 1
 -139 728 l 1
 -87 728 l 1
 -87 687 l 1
EndSplineSet
MinimumDistance: x10,-1 y8,6 y8,7 y11,1 y11,0 x5,3 x5,4 x11,9 x11,10 
EndChar
StartChar: uni0E4C.left
Encoding: 159 63255 127
OldEncoding: 63255
Width: 0
Flags: HW
HStem: 600 29 672 29
Fore
-66 779 m 1
 -66 779 l 0
 -67 773 -67 746 -96 730 c 0
 -131 711 -177 723 -208 708 c 0
 -222 701 -225 686 -226 684 c 1
 -217 690 -213 694 -196 694 c 0
 -171 694 -151 675 -151 648 c 0
 -151 619 -172 601 -198 600 c 0
 -242 600 -268 646 -258 686 c 0
 -246 730 -210 745 -150 745 c 0
 -103 745 -108 778 -106 779 c 2
 -66 779 l 1
-199 623 m 0
 -167 623 -168 672 -200 672 c 0
 -232 672 -231 623 -199 623 c 0
EndSplineSet
MinimumDistance: x12,-1 
EndChar
StartChar: uni0E01
Encoding: 161 3585 129
OldEncoding: 3585
Width: 409
Flags: HW
HStem: 0 41 361 41
VStem: 78 47 316 47
Fore
339 0 m 1
 294 0 l 1
 294 273 l 2
 294 327 251 348 192 347 c 0
 136 347 103 325 103 325 c 2
 105 325 124 315 140 304 c 0
 156 294 177 276 177 276 c 1
 174 276 147 271 130 252 c 0
 117 239 110 221 110 201 c 2
 110 0 l 1
 65 0 l 1
 65 210 l 2
 65 222 69 238 79 254 c 0
 87 269 103 278 103 278 c 1
 103 278 86 294 64 302 c 0
 44 310 33 315 15 318 c 1
 28 334 101 387 190 387 c 0
 280 387 339 346 339 275 c 2
 339 0 l 1
EndSplineSet
MinimumDistance: x0,-1 
EndChar
StartChar: uni0E02
Encoding: 162 3586 130
OldEncoding: 3586
Width: 423
Flags: HW
HStem: 0 41 348 53
VStem: 160 47 299 47
Fore
346 77 m 1
 346 77 l 0
 346 64 346 45 336 30 c 0
 323 10 302 0 277 0 c 2
 119 0 l 1
 119 43 l 1
 167 43 l 1
 167 185 l 2
 167 199 167 208 171 222 c 0
 180 250 203 271 195 310 c 0
 189 344 146 354 117 348 c 1
 135 340 145 331 150 305 c 0
 155 279 143 235 92 231 c 0
 48 227 22 256 20 295 c 0
 18 344 58 383 112 386 c 0
 185 390 222 363 237 324 c 0
 248 294 240 264 226 239 c 0
 218 224 213 204 213 194 c 2
 213 43 l 1
 267 43 l 2
 278 43 288 46 294 54 c 0
 299 60 301 69 301 78 c 2
 301 385 l 1
 346 385 l 1
 346 77 l 1
86 326 m 0
 46 326 45 265 86 265 c 0
 126 265 127 326 86 326 c 0
EndSplineSet
MinimumDistance: x5,-1 y9,6 y9,7 x8,10 x8,9 
EndChar
StartChar: uni0E03
Encoding: 163 3587 131
OldEncoding: 3587
Width: 442
Flags: HW
HStem: -4 41
VStem: 196 47 323 47
Fore
370 73 m 1
 370 73 l 0
 370 61 369 41 359 26 c 0
 347 7 325 -4 300 -4 c 2
 156 -4 l 1
 156 39 l 1
 202 39 l 1
 202 273 l 2
 202 275 230 295 229 308 c 0
 228 324 202 341 201 341 c 2
 153 317 l 1
 109 341 l 1
 98 336 89 330 83 320 c 0
 75 307 69 295 69 285 c 1
 87 294 106 292 123 287 c 0
 156 277 169 230 152 198 c 0
 131 159 69 159 42 197 c 0
 21 228 21 281 41 321 c 0
 55 351 72 369 101 383 c 1
 153 353 l 1
 206 383 l 1
 222 374 235 364 247 350 c 1
 263 334 273 319 273 318 c 2
 273 296 l 2
 273 295 265 286 262 282 c 0
 257 276 253 272 247 268 c 1
 247 39 l 1
 291 39 l 2
 301 39 312 42 318 50 c 0
 322 56 324 65 324 74 c 2
 324 381 l 1
 370 381 l 1
 370 73 l 1
99 198 m 0
 141 198 141 261 99 261 c 0
 58 261 58 198 99 198 c 0
EndSplineSet
MinimumDistance: x6,-1 x5,7 x5,6 
EndChar
StartChar: uni0E04
Encoding: 164 3588 132
OldEncoding: 3588
Width: 400
Flags: HW
HStem: 0 41 244 41 361 41
VStem: 54 47 119 47 329 47
Fore
327 0 m 1
 282 0 l 1
 282 257 l 2
 282 312 244 348 172 347 c 0
 91 347 63 293 59 249 c 0
 56 202 80 167 82 165 c 1
 82 207 l 2
 82 230 98 274 146 274 c 0
 180 274 205 254 210 223 c 0
 215 190 200 165 175 154 c 0
 150 143 125 153 125 153 c 1
 125 0 l 1
 80 0 l 1
 80 64 l 2
 80 75 78 85 73 95 c 0
 58 129 15 188 17 250 c 0
 20 324 73 384 176 387 c 0
 270 390 327 335 327 259 c 2
 327 0 l 1
147 181 m 0
 187 181 187 242 147 242 c 0
 107 242 107 181 147 181 c 0
EndSplineSet
MinimumDistance: x4,-1 
EndChar
StartChar: uni0E05
Encoding: 165 3589 133
OldEncoding: 3589
Width: 386
Flags: HW
HStem: 0 39 151 29<147 159>
VStem: 299 45
Fore
310 0 m 1
 265 0 l 1
 265 267 l 2
 265 291 264 302 254 319 c 0
 244 334 238 340 224 346 c 1
 172 308 l 1
 118 349 l 1
 87 332 54 310 46 247 c 0
 41 204 78 133 80 130 c 1
 79 132 71 239 124 268 c 0
 169 292 214 269 223 232 c 0
 233 192 216 152 159 151 c 0
 135 151 120 162 120 162 c 1
 115 131 114 125 112 78 c 0
 110 48 112 29 113 0 c 1
 66 0 l 1
 64 13 65 30 53 70 c 0
 37 122 1 172 7 251 c 0
 12 324 62 363 127 387 c 1
 171 353 l 1
 220 387 l 1
 242 382 264 371 283 349 c 0
 301 329 310 304 310 270 c 2
 310 0 l 1
163 180 m 0
 207 180 207 246 163 246 c 0
 118 246 118 180 163 180 c 0
EndSplineSet
MinimumDistance: x5,-1 
EndChar
StartChar: uni0E06
Encoding: 166 3590 134
OldEncoding: 3590
Width: 503
Flags: HW
HStem: -2 20 128 41
VStem: 203 47 395 47
Fore
429 89 m 1
 429 89 l 0
 429 58 429 27 404 11 c 0
 376 -8 344 -3 316 23 c 2
 234 102 l 1
 234 54 l 2
 234 24 208 -2 177 -2 c 0
 114 -2 90 67 116 122 c 0
 129 150 157 164 188 164 c 1
 188 277 l 2
 188 279 217 298 216 312 c 0
 215 328 189 345 188 345 c 2
 140 321 l 1
 96 345 l 1
 85 340 76 334 70 323 c 0
 62 311 56 298 56 289 c 1
 74 297 93 296 110 291 c 0
 143 281 156 234 139 202 c 0
 118 163 56 163 29 201 c 0
 8 232 8 285 28 325 c 0
 42 355 59 372 88 387 c 1
 140 357 l 1
 193 387 l 1
 209 378 222 368 234 354 c 1
 250 338 260 322 260 321 c 2
 260 300 l 2
 260 299 252 290 249 286 c 0
 244 280 239 275 234 271 c 1
 234 155 l 1
 320 77 l 2
 335 64 348 44 366 44 c 0
 382 45 384 65 384 81 c 2
 384 385 l 1
 429 385 l 1
 429 89 l 1
86 202 m 0
 86 202 l 0
 128 202 128 265 86 265 c 0
 45 265 45 202 86 202 c 0
188 62 m 2
 188 123 l 1
 174 123 160 122 152 107 c 0
 139 82 146 32 171 36 c 0
 183 38 188 41 188 62 c 2
EndSplineSet
MinimumDistance: x11,-1 
EndChar
StartChar: uni0E07
Encoding: 167 3591 135
OldEncoding: 3591
Width: 324
Flags: HW
HStem: -4 20 155 41
VStem: 214 47
Fore
252 78 m 1
 252 78 l 0
 252 49 249 22 225 8 c 0
 194 -11 160 -7 135 21 c 0
 111 48 106 107 72 135 c 0
 56 148 43 148 24 149 c 1
 24 190 l 1
 27 190 64 192 93 172 c 0
 146 136 146 37 185 38 c 0
 205 39 207 58 207 72 c 2
 207 266 l 1
 207 266 182 256 157 267 c 0
 132 277 117 302 122 336 c 0
 127 367 153 387 186 387 c 0
 234 387 252 354 252 320 c 2
 252 78 l 1
186 294 m 0
 226 294 226 354 186 354 c 0
 145 354 145 294 186 294 c 0
EndSplineSet
MinimumDistance: x4,-1 
EndChar
StartChar: uni0E08
Encoding: 168 3592 136
OldEncoding: 3592
Width: 360
Flags: HW
HStem: -2 41 361 41
VStem: 161 47 263 47
Fore
290 62 m 1
 290 62 l 0
 290 24 259 -2 216 -2 c 0
 176 -2 147 23 147 58 c 2
 147 143 l 1
 147 143 122 134 97 144 c 0
 72 155 57 180 62 214 c 0
 67 245 93 265 125 265 c 0
 174 265 192 232 192 197 c 2
 192 70 l 2
 192 55 199 39 220 38 c 0
 242 38 245 56 245 71 c 2
 245 273 l 2
 245 322 206 348 149 346 c 0
 101 345 63 324 46 282 c 1
 8 300 l 1
 35 359 84 386 154 387 c 0
 237 387 290 345 290 278 c 2
 290 62 l 1
125 171 m 0
 166 171 166 232 125 232 c 0
 85 232 85 171 125 171 c 0
EndSplineSet
MinimumDistance: x4,-1 
EndChar
StartChar: uni0E09
Encoding: 169 3593 137
OldEncoding: 3593
Width: 389
Flags: HW
HStem: -2 41 123 41 361 41
VStem: 119 47 290 47
Fore
386 53 m 0
 386 53 l 0
 379 12 352 -2 324 -2 c 0
 287 -2 266 22 266 52 c 2
 266 99 l 1
 266 99 256 97 229 55 c 0
 205 17 181 -6 148 -2 c 0
 112 2 99 26 99 58 c 2
 99 134 l 1
 99 134 74 124 49 135 c 0
 24 145 9 170 14 204 c 0
 19 235 45 255 78 255 c 0
 126 255 144 222 144 188 c 2
 144 76 l 2
 144 62 143 40 158 40 c 0
 178 40 196 73 215 103 c 0
 238 139 261 148 263 149 c 1
 263 273 l 2
 263 320 221 348 167 347 c 0
 117 347 78 329 56 285 c 1
 22 304 l 1
 51 359 101 386 162 387 c 0
 247 388 309 348 309 279 c 2
 309 155 l 1
 309 155 336 156 359 140 c 0
 384 121 391 88 386 53 c 0
341 101 m 0
 341 101 l 0
 330 123 309 118 308 118 c 1
 308 62 l 2
 308 43 315 36 326 37 c 0
 349 37 354 77 341 101 c 0
78 162 m 0
 118 162 118 222 78 222 c 0
 37 222 37 162 78 162 c 0
EndSplineSet
MinimumDistance: x8,-1 
EndChar
StartChar: uni0E0A
Encoding: 170 3594 138
OldEncoding: 3594
Width: 393
Flags: HW
HStem: 0 41 348 53
VStem: 170 47 309 47
Fore
362 371 m 1
 362 371 l 0
 360 370 346 354 317 342 c 0
 294 332 262 320 259 320 c 0
 260 320 285 312 302 294 c 0
 320 275 323 257 323 242 c 2
 323 77 l 2
 323 64 323 45 313 30 c 0
 300 10 279 0 254 0 c 2
 96 0 l 1
 96 43 l 1
 144 43 l 1
 144 185 l 2
 144 199 144 208 148 222 c 0
 157 250 180 271 172 310 c 0
 166 344 123 354 94 348 c 1
 112 340 122 331 127 305 c 0
 132 279 120 235 69 231 c 0
 25 227 -1 256 -3 295 c 0
 -5 344 35 383 89 386 c 0
 162 390 199 363 214 324 c 0
 225 294 217 264 203 239 c 0
 195 224 190 204 190 194 c 2
 190 43 l 1
 244 43 l 2
 255 43 265 46 271 54 c 0
 276 60 278 69 278 78 c 2
 278 230 l 2
 278 250 276 265 261 280 c 0
 243 297 218 302 218 302 c 1
 209 336 l 1
 213 336 256 350 288 368 c 0
 321 386 345 415 345 416 c 1
 362 371 l 1
63 326 m 0
 23 326 22 265 63 265 c 0
 103 265 104 326 63 326 c 0
EndSplineSet
MinimumDistance: x13,-1 x6,8 x6,7 
EndChar
StartChar: uni0E0B
Encoding: 171 3595 139
OldEncoding: 3595
Width: 423
Flags: HW
HStem: 0 41 186 41
VStem: 203 47 342 47
Fore
398 371 m 1
 398 371 l 0
 396 370 382 354 353 342 c 0
 330 332 298 320 295 320 c 0
 296 320 321 312 338 294 c 0
 356 275 359 257 359 242 c 2
 359 77 l 2
 359 64 359 45 349 30 c 0
 337 10 315 0 290 0 c 2
 132 0 l 1
 132 43 l 1
 180 43 l 1
 180 279 l 1
 210 310 l 1
 210 310 206 323 199 331 c 0
 187 345 179 347 179 347 c 1
 136 325 l 1
 93 347 l 1
 84 345 81 343 72 332 c 0
 62 321 58 307 58 305 c 1
 58 305 127 322 138 253 c 0
 142 227 131 182 80 179 c 0
 35 177 12 204 8 243 c 0
 -4 350 80 388 82 388 c 2
 135 366 l 1
 187 387 l 2
 189 387 214 377 227 361 c 0
 234 351 244 341 247 331 c 2
 255 302 l 1
 226 269 l 1
 226 43 l 1
 281 43 l 2
 291 43 302 46 308 54 c 0
 312 60 314 69 314 78 c 2
 314 230 l 2
 314 250 312 265 297 280 c 0
 280 297 255 302 255 302 c 1
 246 333 l 1
 248 333 292 350 324 368 c 0
 358 386 381 415 381 416 c 1
 398 371 l 1
75 274 m 0
 34 274 33 213 74 213 c 0
 114 213 115 274 75 274 c 0
EndSplineSet
MinimumDistance: x13,-1 x6,8 x6,7 
EndChar
StartChar: uni0E0C
Encoding: 172 3596 140
OldEncoding: 3596
Width: 517
Flags: HW
HStem: -2 41 124 214 361 41
VStem: 69 47 285 47 427 47
Fore
296 293 m 0
 297 149 l 0
 297 148 318 146 340 109 c 0
 355 84 372 46 386 49 c 0
 396 50 395 64 395 74 c 2
 395 385 l 1
 440 385 l 1
 440 62 l 2
 440 27 425 3 403 0 c 0
 378 -3 359 6 342 34 c 0
 320 70 296 97 296 97 c 1
 296 45 l 2
 296 23 274 -4 243 -2 c 0
 203 0 180 40 184 85 c 0
 188 135 214 150 251 156 c 1
 251 291 l 2
 251 328 218 347 158 347 c 0
 103 347 84 325 84 325 c 2
 86 325 105 315 121 304 c 0
 137 294 158 276 158 276 c 1
 155 276 128 271 111 252 c 0
 98 239 91 221 91 201 c 2
 91 120 l 1
 91 120 116 130 141 119 c 0
 166 109 181 84 176 50 c 0
 171 19 145 -1 112 -1 c 0
 64 -1 46 32 46 66 c 2
 46 210 l 2
 46 222 50 238 60 254 c 0
 68 269 84 278 84 278 c 1
 84 278 67 294 45 302 c 0
 25 310 14 315 -4 318 c 1
 9 335 68 383 160 387 c 1
 249 387 296 349 296 293 c 0
250 51 m 0
 250 120 l 0
 249 120 225 124 220 90 c 0
 217 69 218 38 238 38 c 0
 244 38 250 45 250 51 c 0
112 32 m 0
 153 32 153 92 112 92 c 0
 72 92 72 32 112 32 c 0
EndSplineSet
MinimumDistance: x17,-1 
EndChar
StartChar: uni0E0D
Encoding: 173 3597 141
OldEncoding: 3597
Width: 544
Flags: HW
HStem: -192 41 -75 30 0 41 361 41
VStem: 81 47 293 47 450 47
Fore
468 72 m 1
 468 72 l 0
 468 56 469 42 461 28 c 0
 452 10 434 0 414 0 c 2
 253 0 l 1
 253 43 l 1
 281 43 l 1
 281 290 l 2
 281 328 250 347 193 347 c 0
 137 347 115 325 115 325 c 2
 117 325 136 315 152 304 c 0
 168 294 189 276 189 276 c 1
 186 276 159 271 142 252 c 0
 129 239 122 221 122 201 c 2
 122 120 l 1
 122 120 147 130 172 119 c 0
 197 109 212 84 207 50 c 0
 202 19 176 -1 143 -1 c 0
 95 -1 77 32 77 66 c 2
 77 210 l 2
 77 222 81 238 91 254 c 0
 99 269 115 278 115 278 c 1
 115 278 98 294 76 302 c 0
 56 310 45 315 27 318 c 1
 40 335 99 383 191 387 c 0
 283 391 326 344 326 292 c 2
 326 43 l 1
 399 43 l 2
 406 43 412 45 418 52 c 0
 424 59 423 66 423 74 c 2
 423 385 l 1
 468 385 l 1
 468 72 l 1
464 -40 m 1
 464 -40 l 0
 465 -51 463 -97 443 -129 c 0
 427 -156 394 -182 349 -185 c 0
 293 -188 238 -166 233 -111 c 0
 229 -80 244 -42 291 -41 c 0
 335 -41 358 -77 350 -114 c 0
 345 -138 326 -142 325 -142 c 0
 326 -142 342 -150 365 -142 c 0
 388 -135 402 -121 412 -99 c 0
 420 -79 421 -40 421 -40 c 1
 464 -40 l 1
143 32 m 0
 143 32 l 0
 184 32 184 92 143 92 c 0
 103 92 103 32 143 32 c 0
293 -72 m 0
 257 -72 256 -128 292 -128 c 0
 329 -128 330 -72 293 -72 c 0
EndSplineSet
MinimumDistance: x26,-1 x17,19 x17,18 
Substitution: 0 65534 'nds0' uni0E0D.descless
Substitution: 0 65534 'ndsc' uni0E0D.descless
EndChar
StartChar: uni0E0E
Encoding: 174 3598 142
OldEncoding: 3598
Width: 436
Flags: HW
HStem: 361 41
VStem: 126 47 231 47 344 47
AnchorPoint: "BelowBase" 362 -203 basechar 0
Fore
363 -106 m 1
 264 -207 l 1
 264 -207 252 -192 230 -167 c 0
 220 -157 202 -143 200 -142 c 1
 197 -147 179 -167 164 -177 c 0
 120 -208 65 -199 47 -170 c 0
 29 -141 41 -96 73 -81 c 0
 129 -54 184 -84 186 -86 c 1
 186 -85 196 -68 202 -46 c 0
 208 -26 209 -8 209 -5 c 1
 254 -5 l 1
 254 -7 253 -31 243 -56 c 0
 231 -90 221 -103 219 -107 c 1
 266 -147 l 1
 318 -100 l 1
 318 271 l 2
 318 325 288 348 229 347 c 0
 173 347 145 325 145 325 c 2
 147 325 166 315 183 304 c 0
 199 294 219 276 219 276 c 1
 216 276 190 271 172 252 c 0
 160 239 153 221 153 201 c 2
 153 66 l 2
 153 32 135 -1 87 -1 c 0
 54 -1 28 19 23 50 c 0
 18 84 33 109 58 119 c 0
 83 130 108 120 108 120 c 1
 108 210 l 2
 108 222 111 238 121 254 c 0
 130 269 145 278 145 278 c 1
 145 278 129 294 107 302 c 0
 87 310 76 315 58 318 c 1
 70 335 138 387 227 387 c 0
 317 387 363 342 363 273 c 2
 363 -106 l 1
87 32 m 0
 87 32 l 0
 127 32 127 92 87 92 c 0
 46 92 46 32 87 32 c 0
164 -117 m 0
 164 -116 110 -88 87 -117 c 0
 71 -138 88 -161 111 -159 c 0
 147 -155 164 -122 164 -117 c 0
EndSplineSet
MinimumDistance: x12,-1 
EndChar
StartChar: uni0E0F
Encoding: 175 3599 143
OldEncoding: 3599
Width: 433
Flags: HW
HStem: 361 41
VStem: 125 47 191 47 341 47
AnchorPoint: "BelowBase" 359 -203 basechar 0
Fore
362 -104 m 1
 362 -104 l 0
 356 -124 348 -138 337 -154 c 0
 322 -175 308 -189 285 -202 c 1
 241 -141 l 1
 195 -203 l 1
 161 -155 l 1
 161 -155 150 -177 140 -184 c 0
 123 -197 113 -207 85 -203 c 0
 47 -198 33 -150 43 -115 c 0
 51 -89 69 -65 98 -64 c 0
 126 -64 150 -87 152 -90 c 1
 152 -90 160 -70 166 -45 c 0
 173 -20 172 -7 172 -6 c 1
 212 -6 l 1
 212 -7 208 -41 199 -72 c 0
 192 -97 181 -115 180 -116 c 1
 193 -139 l 1
 241 -69 l 1
 290 -145 l 1
 297 -141 302 -135 307 -127 c 0
 312 -119 316 -113 317 -104 c 1
 317 287 l 2
 317 326 291 347 230 347 c 0
 174 347 146 325 146 325 c 2
 148 325 167 315 184 304 c 0
 200 294 220 276 220 276 c 1
 217 276 191 271 173 252 c 0
 161 239 154 221 154 201 c 2
 154 66 l 2
 154 32 136 -1 88 -1 c 0
 55 -1 29 19 24 50 c 0
 19 84 34 109 59 119 c 0
 84 130 109 120 109 120 c 1
 109 210 l 2
 109 222 112 238 122 254 c 0
 131 269 146 278 146 278 c 1
 146 278 130 294 108 302 c 0
 88 310 77 315 59 318 c 1
 71 335 139 386 228 387 c 0
 317 387 362 350 362 289 c 2
 362 -104 l 1
88 32 m 0
 88 32 l 0
 128 32 128 92 88 92 c 0
 47 92 47 32 88 32 c 0
135 -120 m 1
 135 -120 115 -97 99 -99 c 0
 72 -102 67 -166 94 -169 c 0
 115 -172 135 -120 135 -120 c 1
EndSplineSet
MinimumDistance: x11,-1 
EndChar
StartChar: uni0E10
Encoding: 176 3600 144
OldEncoding: 3600
Width: 345
Flags: HW
HStem: -2 41 349 41
VStem: 76 47 141 47 243 47
Fore
316 340 m 1
 316 340 l 0
 315 340 295 330 277 330 c 0
 233 330 208 346 164 346 c 0
 116 347 97 324 97 324 c 2
 98 324 184 319 241 280 c 0
 263 264 278 240 278 209 c 2
 278 62 l 2
 278 24 247 -2 204 -2 c 0
 165 -2 135 23 135 58 c 2
 135 107 l 1
 135 107 110 97 85 108 c 0
 60 118 45 143 50 177 c 0
 55 208 81 228 114 228 c 0
 162 228 180 195 180 161 c 2
 180 70 l 2
 180 55 187 39 208 38 c 0
 230 38 233 56 233 71 c 2
 233 204 l 2
 233 247 194 269 152 280 c 0
 94 295 33 298 25 297 c 1
 51 346 77 375 138 383 c 0
 189 390 215 370 264 366 c 0
 285 364 303 375 304 375 c 1
 316 340 l 1
277 -147 m 1
 208 -193 l 1
 164 -163 l 1
 113 -193 l 1
 112 -193 l 2
 110 -193 108 -187 108 -186 c 0
 104 -178 101 -171 95 -164 c 2
 93 -161 l 1
 88 -169 70 -189 52 -189 c 0
 18 -189 -2 -162 -1 -133 c 0
 0 -108 11 -92 32 -83 c 0
 51 -74 78 -83 89 -93 c 1
 89 -92 l 1
 92 -85 l 1
 98 -66 101 -45 103 -25 c 1
 141 -25 l 1
 141 -26 l 2
 141 -31 137 -59 132 -81 c 0
 126 -105 117 -120 115 -124 c 1
 126 -144 l 1
 165 -123 l 1
 208 -150 l 1
 242 -129 l 1
 242 -115 l 1
 227 -120 212 -118 199 -110 c 0
 176 -96 170 -64 185 -42 c 0
 197 -24 220 -18 241 -24 c 0
 273 -33 277 -61 277 -83 c 2
 277 -147 l 1
114 135 m 0
 114 135 l 0
 154 135 154 195 114 195 c 0
 73 195 73 135 114 135 c 0
246 -69 m 0
 246 -69 l 0
 245 -43 206 -44 207 -70 c 0
 208 -97 247 -95 246 -69 c 0
70 -127 m 1
 70 -125 53 -111 42 -114 c 0
 27 -120 29 -157 49 -155 c 0
 58 -154 63 -148 66 -141 c 0
 69 -134 70 -127 70 -127 c 1
EndSplineSet
MinimumDistance: x22,-1 
Substitution: 0 65534 'nds0' uni0E10.descless
Substitution: 0 65534 'ndsc' uni0E10.descless
EndChar
StartChar: uni0E11
Encoding: 177 3601 145
OldEncoding: 3601
Width: 532
Flags: HW
HStem: 0 41
VStem: 200 47 428 47
Fore
458 0 m 1
 413 0 l 1
 413 309 l 2
 413 321 408 333 396 335 c 0
 385 337 374 325 370 319 c 1
 368 318 331 257 311 215 c 0
 282 154 249 94 244 55 c 0
 242 34 241 21 241 0 c 1
 193 0 l 1
 193 277 l 2
 193 279 221 298 220 312 c 0
 219 328 193 345 192 345 c 2
 144 321 l 1
 100 345 l 1
 89 340 80 334 74 323 c 0
 66 311 60 298 60 289 c 1
 78 297 97 296 114 291 c 0
 147 281 160 234 143 202 c 0
 122 163 60 163 33 201 c 0
 12 232 12 285 32 325 c 0
 46 355 63 372 92 387 c 1
 144 357 l 1
 197 387 l 1
 213 378 226 368 238 354 c 1
 254 338 264 322 264 321 c 2
 264 300 l 2
 264 299 256 290 253 286 c 0
 249 281 244 276 238 271 c 1
 238 153 l 1
 247 184 272 234 296 278 c 0
 329 339 360 381 392 385 c 0
 411 387 426 376 438 364 c 0
 450 350 458 337 458 318 c 2
 458 0 l 1
90 202 m 0
 132 202 132 265 90 265 c 0
 49 265 49 202 90 202 c 0
EndSplineSet
MinimumDistance: x5,-1 
EndChar
StartChar: uni0E12
Encoding: 178 3602 146
OldEncoding: 3602
Width: 535
Flags: HW
HStem: -2 20
VStem: 102 47 301 47 440 47
Fore
458 65 m 1
 458 65 l 0
 458 40 455 15 433 4 c 0
 387 -18 365 25 347 58 c 0
 311 122 324 90 323 94 c 1
 323 46 l 2
 323 32 315 9 295 2 c 0
 263 -10 236 4 222 28 c 0
 203 60 203 107 226 137 c 0
 240 156 267 163 279 164 c 1
 279 279 l 2
 279 297 276 312 265 324 c 0
 255 337 246 344 237 346 c 1
 182 305 l 1
 125 346 l 1
 123 346 68 321 56 260 c 0
 48 216 63 177 84 134 c 0
 100 101 111 74 112 72 c 1
 112 73 121 96 131 116 c 0
 141 136 148 150 150 154 c 1
 148 154 126 151 106 168 c 0
 84 188 81 226 99 251 c 0
 119 281 163 284 189 265 c 0
 212 247 219 222 212 195 c 0
 203 158 159 105 143 47 c 0
 137 25 137 21 136 0 c 1
 88 0 l 1
 88 2 85 30 73 65 c 0
 50 131 11 167 13 237 c 0
 15 330 71 363 131 387 c 1
 182 349 l 1
 235 388 l 1
 235 388 262 378 284 359 c 0
 320 327 324 297 324 279 c 2
 324 150 l 2
 324 149 339 141 352 119 c 0
 378 74 386 43 404 43 c 0
 415 43 412 60 412 69 c 2
 412 385 l 1
 458 385 l 1
 458 65 l 1
151 183 m 0
 151 183 l 0
 193 182 193 246 151 247 c 0
 108 248 108 184 151 183 c 0
279 51 m 2
 279 130 l 1
 263 125 253 116 247 101 c 0
 239 80 246 37 266 37 c 0
 277 37 279 44 279 51 c 2
EndSplineSet
MinimumDistance: x9,-1 
EndChar
StartChar: uni0E13
Encoding: 179 3603 147
OldEncoding: 3603
Width: 534
Flags: HW
HStem: -2 41 131 41 361 41
VStem: 91 47 307 47 456 47
Fore
535 91 m 0
 535 91 l 0
 540 30 508 -2 468 -2 c 0
 424 -1 410 29 410 56 c 2
 410 119 l 1
 386 104 371 90 352 68 c 0
 333 45 309 0 308 0 c 2
 264 0 l 1
 264 289 l 2
 264 324 239 347 177 347 c 0
 121 347 94 325 94 325 c 2
 96 325 115 315 131 304 c 0
 147 294 168 276 168 276 c 1
 165 276 138 271 121 252 c 0
 108 239 101 221 101 201 c 2
 101 120 l 1
 101 120 126 130 151 119 c 0
 176 109 191 84 186 50 c 0
 181 19 155 -1 122 -1 c 0
 74 -1 56 32 56 66 c 2
 56 210 l 2
 56 222 60 238 70 254 c 0
 78 269 94 278 94 278 c 1
 94 278 77 294 55 302 c 0
 35 310 24 315 6 318 c 1
 19 335 86 386 175 387 c 0
 267 387 309 347 309 291 c 2
 309 75 l 1
 310 77 331 110 357 132 c 0
 381 152 406 163 408 163 c 1
 408 385 l 1
 453 385 l 1
 453 167 l 1
 490 167 531 148 535 91 c 0
495 97 m 0
 495 97 l 0
 488 125 468 126 453 126 c 1
 453 60 l 2
 453 48 457 36 475 37 c 0
 500 37 500 78 495 97 c 0
122 32 m 0
 163 32 163 92 122 92 c 0
 82 92 82 32 122 32 c 0
EndSplineSet
MinimumDistance: x14,-1 
EndChar
StartChar: uni0E14
Encoding: 180 3604 148
OldEncoding: 3604
Width: 401
Flags: HW
HStem: 78 16 216 16
VStem: 148 18
Fore
328 0 m 1
 282 0 l 1
 282 264 l 2
 282 313 241 348 179 348 c 0
 122 347 71 313 64 250 c 0
 59 207 73 178 93 141 c 0
 114 102 125 77 126 80 c 0
 138 104 136 96 144 114 c 1
 150 124 158 139 165 150 c 1
 150 151 134 159 123 168 c 0
 100 189 95 226 114 253 c 0
 136 285 190 287 215 260 c 0
 247 227 229 181 209 147 c 0
 184 106 176 93 155 57 c 0
 145 40 141 22 138 0 c 1
 99 0 l 1
 99 26 107 30 88 70 c 0
 64 120 19 174 25 253 c 0
 30 325 97 385 177 385 c 0
 273 385 328 333 328 268 c 2
 328 0 l 1
168 182 m 0
 212 182 212 248 168 248 c 0
 124 248 124 182 168 182 c 0
EndSplineSet
MinimumDistance: x5,-1 
EndChar
StartChar: uni0E15
Encoding: 181 3605 149
OldEncoding: 3605
Width: 421
Flags: HW
HStem: 78 16
VStem: 169 18
Fore
348 0 m 1
 303 0 l 1
 303 267 l 2
 303 291 303 303 292 319 c 0
 282 335 276 341 262 347 c 1
 210 309 l 1
 156 350 l 1
 122 337 83 313 76 250 c 0
 71 207 84 176 106 141 c 0
 128 105 141 68 142 70 c 0
 148 82 152 91 166 115 c 1
 173 130 177 138 185 150 c 1
 169 151 152 154 137 168 c 0
 114 190 109 226 127 253 c 0
 150 286 204 288 230 261 c 0
 261 227 242 183 226 147 c 0
 211 116 196 92 181 55 c 0
 173 37 163 26 163 0 c 1
 115 0 l 1
 112 26 113 35 102 70 c 0
 86 123 30 175 36 254 c 0
 42 327 96 370 165 388 c 1
 209 354 l 1
 258 388 l 1
 281 383 302 372 321 350 c 0
 339 330 348 305 348 271 c 2
 348 0 l 1
186 180 m 0
 230 180 230 246 186 246 c 0
 141 246 141 180 186 180 c 0
EndSplineSet
MinimumDistance: x5,-1 
EndChar
StartChar: uni0E16
Encoding: 182 3606 150
OldEncoding: 3606
Width: 410
Flags: HW
HStem: -1 20 361 41
VStem: 78 47 316 47
Fore
340 0 m 1
 295 0 l 1
 295 273 l 2
 295 327 252 348 193 347 c 0
 137 347 104 325 104 325 c 2
 106 325 125 315 141 304 c 0
 157 294 178 276 178 276 c 1
 175 276 148 271 131 252 c 0
 118 239 111 221 111 201 c 2
 111 120 l 1
 111 120 136 130 161 119 c 0
 186 109 201 84 196 50 c 0
 191 19 165 -1 132 -1 c 0
 84 -1 66 32 66 66 c 2
 66 210 l 2
 66 222 70 238 80 254 c 0
 88 269 104 278 104 278 c 1
 104 278 87 294 65 302 c 0
 45 310 34 315 16 318 c 1
 29 334 102 387 191 387 c 0
 281 387 340 346 340 275 c 2
 340 0 l 1
132 32 m 0
 173 32 173 92 132 92 c 0
 92 92 92 32 132 32 c 0
EndSplineSet
MinimumDistance: x4,-1 
EndChar
StartChar: uni0E17
Encoding: 183 3607 151
OldEncoding: 3607
Width: 451
Flags: HW
HStem: 0 41
VStem: 115 47 353 47
Fore
379 0 m 1
 334 0 l 1
 334 301 l 2
 334 313 334 334 328 342 c 0
 320 352 296 352 282 331 c 0
 264 304 209 227 180 142 c 0
 161 88 160 58 160 0 c 1
 115 0 l 1
 115 265 l 1
 115 265 90 255 65 266 c 0
 40 276 25 301 30 335 c 0
 35 366 61 386 94 386 c 0
 142 386 160 353 160 319 c 2
 160 195 l 1
 160 195 192 261 215 302 c 0
 244 354 275 388 313 386 c 0
 338 385 341 382 356 366 c 0
 379 340 379 313 379 295 c 2
 379 0 l 1
94 293 m 0
 134 293 134 353 94 353 c 0
 53 353 53 293 94 293 c 0
EndSplineSet
MinimumDistance: x4,-1 
EndChar
StartChar: uni0E18
Encoding: 184 3608 152
OldEncoding: 3608
Width: 358
Flags: HW
HStem: 0 41 358 41
VStem: 123 47 260 47
Fore
226 283 m 0
 226 283 l 0
 260 261 273 247 285 220 c 1
 285 58 l 2
 285 42 280 33 271 21 c 0
 260 8 246 3 228 0 c 1
 57 0 l 1
 56 43 l 1
 100 43 l 1
 100 284 l 1
 65 289 l 1
 26 290 l 2
 7 290 22 325 34 341 c 0
 62 377 92 383 135 384 c 0
 191 385 214 365 273 364 c 0
 295 364 316 371 328 385 c 1
 348 348 l 1
 336 340 327 334 313 330 c 0
 285 323 268 324 236 330 c 1
 197 342 173 344 156 348 c 0
 141 350 126 348 112 348 c 0
 100 348 90 344 81 338 c 0
 72 332 63 323 67 323 c 0
 144 320 205 298 226 283 c 0
240 62 m 1
 240 208 l 1
 231 229 224 239 199 253 c 0
 182 262 163 270 145 273 c 1
 145 42 l 1
 173 41 197 42 221 44 c 0
 231 44 235 54 240 62 c 1
EndSplineSet
MinimumDistance: x8,-1 
EndChar
StartChar: uni0E19
Encoding: 185 3609 153
OldEncoding: 3609
Width: 436
Flags: HW
HStem: -497 20 -364 41
VStem: 739 47 924 47
Fore
408 29 m 0
 408 29 l 0
 392 1 353 -11 325 4 c 0
 299 17 294 43 294 73 c 2
 294 133 l 1
 293 133 265 135 204 85 c 0
 159 47 143 3 141 -2 c 1
 96 -2 l 1
 96 263 l 1
 96 263 71 253 46 264 c 0
 21 275 6 300 11 333 c 0
 16 364 42 384 75 384 c 0
 123 384 141 352 141 317 c 2
 141 76 l 1
 141 76 166 111 210 140 c 0
 246 164 291 175 294 175 c 1
 294 383 l 1
 339 383 l 1
 339 174 l 1
 342 174 366 177 397 150 c 0
 426 125 428 62 408 29 c 0
379 90 m 0
 379 90 l 0
 376 138 336 133 335 133 c 1
 335 74 l 2
 335 46 342 35 357 36 c 0
 379 38 381 71 379 90 c 0
75 291 m 0
 115 291 115 352 75 352 c 0
 34 352 34 291 75 291 c 0
EndSplineSet
MinimumDistance: x12,-1 
EndChar
StartChar: uni0E1A
Encoding: 186 3610 154
OldEncoding: 3610
Width: 420
Flags: HW
HStem: 0 39
VStem: 121 43 329 43
Fore
345 58 m 1
 345 58 l 0
 345 41 340 29 329 17 c 0
 319 7 303 0 286 0 c 2
 43 0 l 1
 43 43 l 1
 91 43 l 1
 91 265 l 1
 91 265 68 255 44 266 c 0
 20 276 6 301 11 335 c 0
 15 366 40 386 71 386 c 0
 117 386 134 353 134 319 c 2
 134 43 l 1
 273 43 l 2
 282 43 291 46 297 53 c 0
 304 60 302 68 302 77 c 2
 302 385 l 1
 345 385 l 1
 345 58 l 1
71 293 m 0
 110 293 110 353 71 353 c 0
 33 353 33 293 71 293 c 0
EndSplineSet
MinimumDistance: x4,-1 x0,2 y19,1 x1,19 x1,0 
EndChar
StartChar: uni0E1B
Encoding: 187 3611 155
OldEncoding: 3611
Width: 415
Flags: HW
HStem: 0 41
VStem: 116 47 343 47
AnchorPoint: "AboveBase" 277 430 basechar 0
Fore
347 58 m 1
 347 58 l 0
 347 41 342 29 331 17 c 0
 321 7 305 0 288 0 c 2
 48 0 l 1
 48 43 l 1
 96 43 l 1
 96 265 l 1
 96 265 73 255 49 266 c 0
 25 276 11 301 16 335 c 0
 20 366 45 386 76 386 c 0
 122 386 139 353 139 319 c 2
 139 43 l 1
 275 43 l 2
 284 43 293 46 299 53 c 0
 306 60 304 68 304 77 c 2
 304 578 l 1
 347 578 l 1
 347 58 l 1
76 293 m 0
 115 293 115 353 76 353 c 0
 38 353 38 293 76 293 c 0
EndSplineSet
MinimumDistance: x4,-1 x0,2 y19,1 x1,19 x1,0 
EndChar
StartChar: uni0E1C
Encoding: 188 3612 156
OldEncoding: 3612
Width: 417
Flags: HW
HStem: 0 41
VStem: 84 47 348 47
Fore
339 0 m 1
 296 0 l 0
 290 19 271 59 247 92 c 0
 227 121 210 138 197 148 c 1
 184 138 171 126 146 93 c 0
 122 63 105 23 98 1 c 1
 55 1 l 1
 55 319 l 2
 55 349 74 385 118 386 c 0
 149 386 174 366 178 335 c 0
 183 301 169 276 146 266 c 0
 122 255 98 265 98 265 c 1
 98 85 l 1
 99 88 123 127 145 150 c 0
 164 170 176 183 197 198 c 1
 217 184 230 170 248 151 c 0
 271 127 296 86 296 85 c 2
 296 385 l 1
 339 385 l 1
 339 0 l 1
118 293 m 0
 156 293 156 353 118 353 c 0
 80 353 80 293 118 293 c 0
EndSplineSet
MinimumDistance: x4,-1 
EndChar
StartChar: uni0E1D
Encoding: 189 3613 157
OldEncoding: 3613
Width: 417
Flags: HW
HStem: 0 41
VStem: 45 47 309 47
AnchorPoint: "AboveBase" 279 430 basechar 0
Fore
347 0 m 1
 304 0 l 0
 298 19 279 59 255 92 c 0
 235 121 218 138 205 148 c 1
 192 138 179 126 154 93 c 0
 130 63 113 23 106 1 c 1
 63 1 l 1
 63 319 l 2
 63 349 82 385 126 386 c 0
 157 386 182 366 186 335 c 0
 191 301 177 276 154 266 c 0
 130 255 106 265 106 265 c 1
 106 85 l 1
 107 88 131 127 153 150 c 0
 172 170 184 183 205 198 c 1
 225 184 238 170 256 151 c 0
 279 127 304 86 304 85 c 2
 304 578 l 1
 347 578 l 1
 347 0 l 1
126 293 m 0
 164 293 164 353 126 353 c 0
 88 353 88 293 126 293 c 0
EndSplineSet
MinimumDistance: x4,-1 
EndChar
StartChar: uni0E1E
Encoding: 190 3614 158
OldEncoding: 3614
Width: 456
Flags: HW
HStem: 0 41
VStem: 115 47 246 47 384 47
Fore
382 0 m 1
 340 0 l 0
 339 4 330 60 280 166 c 0
 246 238 236 302 236 302 c 1
 236 300 230 239 193 161 c 0
 144 59 137 1 137 0 c 1
 93 0 l 1
 93 265 l 1
 93 265 70 255 46 266 c 0
 22 276 8 301 13 335 c 0
 17 366 42 386 73 386 c 0
 119 386 136 353 136 319 c 2
 136 128 l 1
 136 128 154 168 170 207 c 0
 184 240 195 275 202 307 c 0
 214 358 211 383 211 385 c 1
 256 385 l 1
 256 384 257 358 269 308 c 0
 277 274 289 244 303 214 c 0
 322 171 338 132 339 128 c 1
 339 385 l 1
 382 385 l 1
 382 0 l 1
73 293 m 0
 112 293 112 353 73 353 c 0
 35 353 35 293 73 293 c 0
EndSplineSet
MinimumDistance: x4,-1 
EndChar
StartChar: uni0E1F
Encoding: 191 3615 159
OldEncoding: 3615
Width: 456
Flags: HW
HStem: 0 41
VStem: 116 47 247 47 385 47
AnchorPoint: "AboveBase" 318 430 basechar 0
Fore
380 0 m 1
 338 0 l 0
 337 4 328 60 278 166 c 0
 244 238 234 302 234 302 c 1
 234 300 228 239 191 161 c 0
 142 59 135 1 135 0 c 1
 91 0 l 1
 91 265 l 1
 91 265 68 255 44 266 c 0
 20 276 6 301 11 335 c 0
 15 366 40 386 71 386 c 0
 117 386 134 353 134 319 c 2
 134 128 l 1
 134 128 152 168 168 207 c 0
 182 240 193 275 200 307 c 0
 212 358 209 383 209 385 c 1
 254 385 l 1
 254 384 255 358 267 308 c 0
 275 274 287 244 301 214 c 0
 320 171 336 132 337 128 c 1
 337 577 l 1
 380 577 l 1
 380 0 l 1
71 293 m 0
 110 293 110 353 71 353 c 0
 33 353 33 293 71 293 c 0
EndSplineSet
MinimumDistance: x4,-1 
EndChar
StartChar: uni0E20
Encoding: 192 3616 160
OldEncoding: 3616
Width: 465
Flags: HW
HStem: -1 20 361 41
VStem: 119 47 357 47
Fore
390 0 m 1
 345 0 l 1
 345 273 l 2
 345 327 301 348 243 347 c 0
 187 347 153 325 153 325 c 2
 155 325 174 315 191 304 c 0
 207 294 227 276 227 276 c 1
 224 276 198 271 180 252 c 0
 168 239 161 221 161 201 c 2
 161 66 l 2
 161 32 143 -1 95 -1 c 0
 62 -1 36 19 31 50 c 0
 26 84 41 109 66 119 c 0
 91 130 116 120 116 120 c 1
 116 210 l 2
 116 222 119 238 129 254 c 0
 138 269 153 278 153 278 c 1
 153 278 137 294 115 302 c 0
 95 310 84 315 66 318 c 1
 78 334 151 387 241 387 c 0
 330 387 390 346 390 275 c 2
 390 0 l 1
95 32 m 0
 135 32 135 92 95 92 c 0
 54 92 54 32 95 32 c 0
EndSplineSet
MinimumDistance: x4,-1 
EndChar
StartChar: uni0E21
Encoding: 193 3617 161
OldEncoding: 3617
Width: 434
Flags: HW
HStem: -2 20 128 41
VStem: 112 47 304 47
Fore
356 89 m 1
 356 89 l 0
 356 58 356 27 331 11 c 0
 303 -8 268 -5 243 23 c 2
 171 102 l 1
 171 54 l 2
 171 24 145 -2 114 -2 c 0
 52 -2 27 67 53 122 c 0
 67 150 94 164 126 164 c 1
 126 265 l 1
 126 265 101 255 76 266 c 0
 51 276 36 301 41 335 c 0
 46 366 72 386 105 386 c 0
 153 386 171 353 171 319 c 2
 171 155 l 1
 247 77 l 2
 261 63 275 44 293 44 c 0
 309 45 310 65 310 81 c 2
 310 385 l 1
 356 385 l 1
 356 89 l 1
105 293 m 0
 105 293 l 0
 145 293 145 353 105 353 c 0
 64 353 64 293 105 293 c 0
126 62 m 2
 126 123 l 1
 111 123 97 122 89 107 c 0
 76 82 83 32 108 36 c 0
 121 38 126 41 126 62 c 2
EndSplineSet
MinimumDistance: x10,-1 
EndChar
StartChar: uni0E22
Encoding: 194 3618 162
OldEncoding: 3618
Width: 406
Flags: HW
HStem: 0 41
VStem: 66 47 303 47
Fore
101 95 m 0
 101 95 l 0
 100 68 101 43 101 43 c 1
 253 43 l 2
 261 43 267 46 273 50 c 0
 280 56 284 65 284 76 c 2
 284 385 l 1
 329 385 l 1
 329 74 l 2
 329 53 324 36 310 21 c 0
 296 6 278 0 256 0 c 2
 56 0 l 1
 56 92 l 2
 56 113 60 140 71 155 c 0
 81 169 103 179 115 183 c 1
 103 185 81 193 69 207 c 0
 58 222 56 227 56 245 c 2
 56 318 l 2
 56 348 76 384 122 385 c 0
 155 385 181 365 186 334 c 0
 191 300 176 275 151 265 c 0
 126 254 101 264 101 264 c 1
 101 243 l 2
 101 229 104 223 122 209 c 0
 136 198 178 194 178 194 c 1
 178 194 178 173 178 168 c 0
 178 170 135 168 119 150 c 0
 106 134 102 126 101 95 c 0
122 292 m 0
 163 292 163 352 122 352 c 0
 82 352 82 292 122 292 c 0
EndSplineSet
MinimumDistance: x4,-1 y7,4 y7,5 
EndChar
StartChar: uni0E23
Encoding: 195 3619 163
OldEncoding: 3619
Width: 327
Flags: HW
HStem: -1 20
VStem: 214 47
Fore
316 345 m 1
 316 345 l 0
 299 338 292 333 270 330 c 0
 221 324 180 361 124 346 c 0
 102 341 89 326 90 326 c 2
 90 326 163 318 216 286 c 0
 260 260 264 238 264 201 c 2
 264 66 l 2
 264 32 245 -1 197 -1 c 0
 164 -1 138 19 134 50 c 0
 129 84 143 109 168 119 c 0
 193 130 218 120 218 120 c 1
 218 208 l 2
 218 244 188 264 135 280 c 0
 87 294 19 303 21 304 c 1
 20 304 46 360 94 376 c 0
 172 403 209 366 255 366 c 0
 277 366 293 379 294 379 c 1
 316 345 l 1
197 32 m 0
 238 32 238 92 197 92 c 0
 157 92 157 32 197 32 c 0
EndSplineSet
MinimumDistance: x7,-1 
EndChar
StartChar: uni0E24
Encoding: 196 3620 164
OldEncoding: 3620
Width: 398
Flags: HW
HStem: 361 41
VStem: 78 47 316 47
Fore
333 -140 m 1
 288 -140 l 1
 288 273 l 2
 288 327 245 348 186 347 c 0
 130 347 97 325 97 325 c 2
 99 325 118 315 134 304 c 0
 150 294 171 276 171 276 c 1
 168 276 141 271 124 252 c 0
 111 239 104 221 104 201 c 2
 104 120 l 1
 104 120 129 130 154 119 c 0
 179 109 194 84 189 50 c 0
 184 19 158 -1 125 -1 c 0
 77 -1 59 32 59 66 c 2
 59 210 l 2
 59 222 63 238 73 254 c 0
 81 269 97 278 97 278 c 1
 97 278 80 294 58 302 c 0
 38 310 27 315 9 318 c 1
 22 334 95 387 184 387 c 0
 274 387 333 346 333 275 c 2
 333 -140 l 1
125 32 m 0
 166 32 166 92 125 92 c 0
 85 92 85 32 125 32 c 0
EndSplineSet
MinimumDistance: x4,-1 
EndChar
StartChar: uni0E25
Encoding: 197 3621 165
OldEncoding: 3621
Width: 387
Flags: HW
HStem: -1 20
VStem: 63 47 283 47
Fore
314 0 m 1
 269 0 l 1
 269 41 l 2
 269 53 244 111 215 156 c 0
 188 197 153 246 124 236 c 0
 111 232 102 217 102 201 c 2
 102 120 l 1
 102 120 127 130 152 119 c 0
 177 109 192 84 187 50 c 0
 182 19 156 -1 124 -1 c 0
 75 -1 57 32 57 66 c 2
 57 199 l 2
 57 239 84 268 113 272 c 0
 170 282 200 242 226 208 c 0
 256 169 268 143 269 140 c 1
 269 267 l 2
 269 314 247 346 175 346 c 0
 106 347 76 307 67 285 c 1
 34 308 l 1
 46 328 62 350 97 369 c 0
 136 390 216 392 257 368 c 0
 307 339 314 299 314 269 c 2
 314 0 l 1
124 32 m 0
 164 32 164 92 124 92 c 0
 83 92 83 32 124 32 c 0
EndSplineSet
MinimumDistance: x4,-1 
EndChar
StartChar: uni0E26
Encoding: 198 3622 166
OldEncoding: 3622
Width: 435
Flags: HW
HStem: 361 41
VStem: 125 47 363 47
Fore
364 -140 m 1
 318 -140 l 1
 318 273 l 2
 318 327 275 348 216 347 c 0
 161 347 127 325 127 325 c 2
 129 325 148 315 164 304 c 0
 181 294 201 276 201 276 c 1
 198 276 171 271 154 252 c 0
 141 239 135 221 135 201 c 2
 135 66 l 2
 135 32 116 -1 68 -1 c 0
 35 -1 9 19 5 50 c 0
 0 84 14 109 39 119 c 0
 64 130 89 120 89 120 c 1
 89 210 l 2
 89 222 93 238 103 254 c 0
 111 269 127 278 127 278 c 1
 127 278 111 294 88 302 c 0
 68 310 58 315 39 318 c 1
 52 334 125 387 215 387 c 0
 304 387 364 346 364 275 c 2
 364 -140 l 1
68 32 m 0
 109 32 109 92 68 92 c 0
 28 92 28 32 68 32 c 0
EndSplineSet
MinimumDistance: x4,-1 
EndChar
StartChar: uni0E27
Encoding: 199 3623 167
OldEncoding: 3623
Width: 356
Flags: HW
HStem: -1 20 361 41
VStem: 253 47
Fore
285 66 m 1
 285 66 l 0
 285 32 267 -1 219 -1 c 0
 186 -1 160 19 155 50 c 0
 150 84 165 109 190 119 c 0
 215 130 240 120 240 120 c 1
 240 269 l 2
 240 329 202 348 147 348 c 0
 89 349 54 311 45 280 c 1
 10 296 l 1
 26 338 69 386 146 387 c 0
 232 388 285 339 285 277 c 2
 285 66 l 1
219 32 m 0
 259 32 259 92 219 92 c 0
 178 92 178 32 219 32 c 0
EndSplineSet
MinimumDistance: x4,-1 
EndChar
StartChar: uni0E28
Encoding: 200 3624 168
OldEncoding: 3624
Width: 398
Flags: HW
HStem: 0 41 244 41 361 41
VStem: 37 47 102 47 312 47
Fore
356 390 m 1
 356 390 l 1
 356 390 350 367 336 346 c 0
 324 330 312 318 310 317 c 1
 310 316 319 308 322 291 c 0
 325 278 326 267 326 259 c 2
 326 0 l 1
 281 0 l 1
 281 239 l 2
 281 244 280 251 280 259 c 0
 279 279 272 286 272 287 c 1
 272 287 259 272 239 256 c 0
 224 243 205 231 204 231 c 1
 214 203 205 167 174 154 c 0
 145 141 124 153 124 153 c 1
 124 0 l 1
 79 0 l 1
 79 64 l 2
 79 75 77 85 72 95 c 0
 57 129 14 188 16 250 c 0
 19 324 71 386 175 387 c 0
 257 388 286 348 286 349 c 1
 286 349 295 358 304 376 c 0
 312 393 315 404 315 404 c 1
 356 390 l 1
257 320 m 0
 257 320 l 0
 247 327 240 348 171 347 c 0
 91 347 62 293 58 249 c 0
 55 202 79 167 81 165 c 1
 81 207 l 2
 81 230 96 274 145 274 c 0
 175 275 185 261 186 260 c 1
 201 269 211 277 223 287 c 0
 240 300 246 307 257 320 c 0
146 181 m 0
 186 181 186 242 146 242 c 0
 106 242 106 181 146 181 c 0
EndSplineSet
MinimumDistance: x11,-1 
EndChar
StartChar: uni0E29
Encoding: 201 3625 169
OldEncoding: 3625
Width: 435
Flags: HW
HStem: 0 41 151 41 253 30
VStem: 128 47 363 47
Fore
435 236 m 1
 435 236 l 1
 435 236 428 208 402 184 c 0
 386 168 377 162 359 154 c 1
 359 58 l 2
 359 41 355 29 344 17 c 0
 334 7 317 0 300 0 c 2
 53 0 l 1
 53 43 l 1
 101 43 l 1
 101 265 l 1
 101 265 78 255 54 266 c 0
 30 276 16 301 21 335 c 0
 25 366 50 386 81 386 c 0
 127 386 144 353 144 319 c 2
 144 43 l 1
 287 43 l 2
 296 43 305 46 312 53 c 0
 318 60 316 68 316 77 c 2
 316 145 l 1
 315 145 289 137 249 145 c 0
 215 152 186 167 179 198 c 0
 171 233 189 271 232 272 c 0
 267 274 287 248 288 219 c 0
 288 193 276 183 270 178 c 1
 272 178 282 177 293 177 c 0
 307 178 315 183 316 183 c 1
 316 385 l 1
 359 385 l 1
 359 195 l 1
 361 196 375 207 384 219 c 0
 398 238 401 256 401 257 c 1
 435 236 l 1
234 188 m 0
 234 188 l 0
 269 189 267 244 232 244 c 0
 197 243 199 187 234 188 c 0
81 293 m 0
 120 293 120 353 81 353 c 0
 43 353 43 293 81 293 c 0
EndSplineSet
MinimumDistance: x12,-1 x6,8 y5,7 x7,5 x7,6 
EndChar
StartChar: uni0E2A
Encoding: 202 3626 170
OldEncoding: 3626
Width: 378
Flags: HW
HStem: -1 20
VStem: 67 47 287 47
Fore
358 362 m 1
 358 362 l 0
 350 346 345 338 330 320 c 0
 316 303 302 294 302 292 c 1
 302 292 303 284 303 280 c 0
 303 276 303 275 303 269 c 2
 303 0 l 1
 258 0 l 1
 258 41 l 2
 258 53 233 111 204 156 c 0
 177 197 142 246 113 236 c 0
 100 232 91 217 91 201 c 2
 91 120 l 1
 91 120 116 130 141 119 c 0
 166 109 181 84 176 50 c 0
 171 19 145 -1 113 -1 c 0
 64 -1 46 32 46 66 c 2
 46 199 l 2
 46 239 74 268 102 272 c 0
 147 280 173 259 176 257 c 1
 190 263 201 269 215 277 c 0
 233 288 250 303 251 303 c 1
 248 307 237 346 164 346 c 0
 95 347 66 306 56 285 c 1
 23 308 l 1
 35 328 50 351 86 369 c 0
 131 391 194 389 233 372 c 0
 269 357 283 334 284 332 c 1
 293 340 296 342 308 359 c 0
 315 368 323 385 325 390 c 1
 358 362 l 1
258 140 m 0
 258 267 l 1
 258 267 240 254 229 248 c 0
 218 242 208 237 196 232 c 1
 203 223 189 242 215 208 c 0
 245 169 256 143 258 140 c 0
113 32 m 0
 153 32 153 92 113 92 c 0
 72 92 72 32 113 32 c 0
EndSplineSet
MinimumDistance: x11,-1 
EndChar
StartChar: uni0E2B
Encoding: 203 3627 171
OldEncoding: 3627
Width: 425
Flags: HW
HStem: 34 41 395 41
VStem: 127 47 365 47
Fore
286 291 m 0
 286 291 l 0
 287 292 288 293 289 293 c 0
 302 300 315 318 317 330 c 0
 319 342 311 363 286 363 c 0
 260 363 254 347 253 335 c 0
 252 323 259 312 269 302 c 0
 273 298 279 295 286 291 c 0
302 227 m 0
 302 227 l 0
 300 234 298 241 286 251 c 1
 281 245 273 238 269 233 c 0
 251 210 232 188 206 147 c 0
 173 96 156 58 142 0 c 1
 97 0 l 1
 97 265 l 1
 97 265 72 255 47 266 c 0
 22 276 7 301 12 335 c 0
 17 366 43 386 76 386 c 0
 124 386 142 353 142 319 c 2
 142 117 l 1
 142 117 168 165 202 207 c 0
 218 227 240 253 260 271 c 1
 256 272 254 276 250 278 c 0
 218 298 219 315 217 334 c 0
 215 354 233 392 285 392 c 0
 336 392 349 357 352 336 c 0
 355 315 344 297 334 287 c 0
 329 282 322 277 314 271 c 1
 321 265 326 259 328 256 c 0
 335 246 343 233 347 221 c 0
 353 200 351 175 351 150 c 2
 351 0 l 1
 306 0 l 1
 306 179 l 2
 306 207 306 211 302 227 c 0
76 293 m 0
 116 293 116 353 76 353 c 0
 35 353 35 293 76 293 c 0
EndSplineSet
MinimumDistance: x8,-1 
EndChar
StartChar: uni0E2C
Encoding: 204 3628 172
OldEncoding: 3628
Width: 461
Flags: HW
HStem: 0 41 288 30
VStem: 113 47 244 47 382 47
Fore
356 352 m 0
 356 352 l 0
 356 358 332 383 299 384 c 0
 265 385 236 363 239 359 c 0
 244 352 265 335 297 334 c 0
 326 334 354 339 356 352 c 0
350 70 m 1
 350 67 l 1
 350 67 350 303 350 305 c 1
 350 305 336 299 294 297 c 0
 243 295 193 335 197 358 c 0
 199 370 227 420 295 420 c 0
 350 420 372 392 379 384 c 0
 389 372 382 379 391 369 c 1
 401 378 409 389 414 396 c 0
 420 406 430 417 436 429 c 1
 441 423 464 397 459 402 c 1
 450 386 451 384 431 360 c 0
 419 347 398 325 396 328 c 1
 396 0 l 1
 337 0 l 1
 240 218 l 1
 243 213 146 0 146 0 c 1
 91 0 l 1
 91 257 l 1
 91 257 73 247 49 258 c 0
 25 269 11 294 16 327 c 0
 20 358 45 378 76 378 c 0
 122 378 140 346 140 311 c 1
 140 311 137 83 139 85 c 1
 225 284 l 1
 227 285 246 284 257 284 c 1
 350 70 l 1
76 285 m 0
 115 285 115 346 76 346 c 0
 38 346 38 285 76 285 c 0
EndSplineSet
MinimumDistance: x25,-1 
EndChar
StartChar: uni0E2D
Encoding: 205 3629 173
OldEncoding: 3629
Width: 370
Flags: HW
HStem: 0 41 361 41
VStem: 90 45 299 45
Fore
302 60 m 1
 302 60 l 0
 302 44 298 32 290 20 c 0
 279 6 261 0 248 0 c 2
 114 0 l 2
 97 0 84 6 72 18 c 0
 62 29 57 45 57 64 c 2
 57 199 l 2
 57 230 76 266 120 267 c 0
 151 267 176 246 180 216 c 0
 185 182 171 157 147 146 c 0
 123 136 100 145 100 145 c 1
 100 78 l 2
 100 68 101 61 107 54 c 0
 112 48 119 43 127 43 c 2
 233 43 l 2
 241 43 250 45 254 51 c 0
 259 57 259 66 259 75 c 2
 259 272 l 2
 259 318 228 350 174 350 c 0
 120 350 84 324 71 290 c 1
 37 311 l 1
 63 364 112 386 173 387 c 0
 248 389 302 344 302 274 c 2
 302 60 l 1
120 173 m 0
 158 173 158 234 120 234 c 0
 81 234 81 173 120 173 c 0
EndSplineSet
MinimumDistance: x6,-1 
EndChar
StartChar: uni0E2E
Encoding: 206 3630 174
OldEncoding: 3630
Width: 357
Flags: HW
HStem: 0 41 265 41 361 41
VStem: 38 47 295 47
Fore
326 369 m 1
 326 369 l 0
 320 355 314 346 306 334 c 0
 299 324 291 316 283 309 c 1
 284 306 288 299 288 292 c 0
 288 283 288 281 288 274 c 2
 288 60 l 2
 288 44 285 32 277 20 c 0
 266 6 248 0 234 0 c 2
 91 0 l 2
 74 0 61 6 49 18 c 0
 39 29 33 45 33 64 c 2
 33 155 l 2
 33 186 53 222 96 222 c 0
 128 223 152 202 157 171 c 0
 162 138 148 113 124 102 c 0
 100 91 76 101 76 101 c 1
 76 78 l 2
 76 68 78 61 84 54 c 0
 88 48 96 43 104 43 c 2
 220 43 l 2
 228 43 236 45 241 51 c 0
 245 57 245 66 245 75 c 2
 245 263 l 2
 245 268 246 270 245 276 c 0
 244 280 243 284 243 287 c 1
 236 283 200 259 131 261 c 0
 64 262 15 300 16 323 c 0
 18 346 79 387 153 387 c 0
 231 387 247 358 264 345 c 1
 266 346 276 357 281 366 c 0
 287 374 290 381 294 391 c 1
 326 369 l 1
232 322 m 0
 232 322 l 0
 204 342 187 351 154 350 c 0
 107 350 63 331 63 322 c 0
 63 314 112 292 154 295 c 0
 194 297 205 304 232 322 c 0
96 129 m 0
 135 129 135 190 96 190 c 0
 58 190 58 129 96 129 c 0
EndSplineSet
MinimumDistance: x6,-1 
EndChar
StartChar: uni0E2F
Encoding: 207 3631 175
OldEncoding: 3631
Width: 338
Flags: HW
HStem: -1 41
VStem: 277 47
Fore
291 94 m 1
 291 94 l 0
 291 75 287 43 263 23 c 0
 246 9 232 0 208 -1 c 1
 189 33 l 1
 199 33 217 38 233 54 c 0
 243 64 246 79 246 95 c 2
 246 243 l 1
 230 214 191 183 134 184 c 0
 49 185 17 254 23 314 c 0
 28 367 75 396 120 381 c 0
 165 367 166 305 136 279 c 0
 118 263 91 260 69 271 c 1
 72 261 74 230 113 221 c 0
 166 210 203 244 223 279 c 0
 248 324 247 375 246 385 c 1
 259 387 269 383 279 375 c 0
 288 368 291 358 291 346 c 2
 291 94 l 1
96 295 m 0
 136 295 136 356 96 356 c 0
 55 356 55 295 96 295 c 0
EndSplineSet
MinimumDistance: x4,-1 
EndChar
StartChar: uni0E30
Encoding: 208 3632 176
OldEncoding: 3632
Width: 333
Flags: HW
Fore
284 308 m 1
 284 308 l 0
 280 302 245 267 191 248 c 0
 158 237 96 229 59 264 c 0
 31 291 32 363 98 372 c 0
 134 376 166 354 169 322 c 0
 171 302 168 293 161 279 c 1
 172 282 199 290 227 311 c 0
 255 332 273 355 284 373 c 1
 284 308 l 1
284 76 m 1
 284 76 l 0
 280 70 245 35 191 16 c 0
 158 5 96 -3 59 32 c 0
 31 59 32 131 98 140 c 0
 134 144 166 122 169 90 c 0
 171 70 168 61 161 47 c 1
 172 50 199 58 227 79 c 0
 255 100 273 123 284 141 c 1
 284 76 l 1
107 279 m 0
 107 279 l 0
 148 279 148 342 107 342 c 0
 65 342 65 279 107 279 c 0
107 47 m 0
 148 47 148 110 107 110 c 0
 65 110 65 47 107 47 c 0
EndSplineSet
MinimumDistance: x8,-1 
EndChar
StartChar: uni0E31
Encoding: 209 3633 177
OldEncoding: 3633
Width: 0
Flags: HW
AnchorPoint: "AboveMark" -74 645 basemark 0
AnchorPoint: "AboveBase" -74 430 mark 0
Fore
51 530 m 1
 51 530 l 0
 30 511 -13 486 -57 476 c 0
 -123 459 -215 455 -244 520 c 0
 -257 549 -244 604 -193 610 c 0
 -145 616 -117 578 -122 540 c 0
 -126 515 -133 513 -139 506 c 1
 -112 505 -86 505 -45 523 c 0
 7 545 45 592 51 601 c 1
 51 530 l 1
-185 515 m 0
 -141 515 -141 581 -185 581 c 0
 -229 581 -229 515 -185 515 c 0
EndSplineSet
MinimumDistance: x2,-1 
EndChar
StartChar: uni0E32
Encoding: 210 3634 178
OldEncoding: 3634
Width: 286
Flags: HW
HStem: 0 41 361 41
VStem: 231 47
Fore
234 0 m 1
 189 0 l 1
 189 265 l 2
 189 323 176 347 123 347 c 0
 64 347 48 308 38 288 c 1
 4 311 l 1
 21 347 42 389 124 386 c 0
 219 383 234 328 234 273 c 2
 234 0 l 1
EndSplineSet
MinimumDistance: x0,-1 
EndChar
StartChar: uni0E33
Encoding: 211 3635 179
OldEncoding: 3635
Width: 286
Flags: HW
HStem: 0 41 361 41
VStem: 240 47
Fore
-119 441 m 0
 -119 441 l 0
 -211 441 -211 580 -119 580 c 0
 -27 580 -27 441 -119 441 c 0
-119 475 m 0
 -119 475 l 0
 -71 475 -71 546 -119 546 c 0
 -166 546 -166 475 -119 475 c 0
230 0 m 1
 185 0 l 1
 185 265 l 2
 185 323 172 347 119 347 c 0
 60 347 44 308 34 288 c 1
 0 311 l 1
 17 347 38 389 120 386 c 0
 215 383 230 328 230 273 c 2
 230 0 l 1
EndSplineSet
MinimumDistance: x0,-1 
MultipleSubs: 0 1 'ccmp' uni0E4D uni0E32
EndChar
StartChar: uni0E34
Encoding: 212 3636 180
OldEncoding: 3636
Width: 0
Flags: HW
HStem: 459 39 537 39
VStem: -393 293
AnchorPoint: "AboveMark" -74 645 basemark 0
AnchorPoint: "AboveBase" -74 430 mark 0
Fore
-73 428 m 0
 -73 428 l 0
 -129 451 -161 460 -227 459 c 0
 -280 459 -316 451 -366 432 c 1
 -365 514 -308 575 -220 576 c 0
 -136 577 -73 509 -73 428 c 0
-115 476 m 1
 -134 518 -171 541 -217 541 c 0
 -264 541 -295 520 -315 481 c 1
 -292 488 -270 494 -223 495 c 0
 -176 496 -141 485 -115 476 c 1
EndSplineSet
EndChar
StartChar: uni0E35
Encoding: 213 3637 181
OldEncoding: 3637
Width: 0
Flags: HW
HStem: 479 41 560 41
VStem: -124 47
AnchorPoint: "AboveMark" -74 645 basemark 0
AnchorPoint: "AboveBase" -74 430 mark 0
Fore
-64 431 m 4
 -64 431 l 0
 -120 454 -152 462 -218 462 c 0
 -271 461 -307 454 -357 435 c 1
 -358 517 -293 579 -212 579 c 0
 -139 579 -120 541 -119 541 c 1
 -119 624 l 1
 -74 624 l 1
 -74 496 l 1
 -74 496 -69 481 -67 466 c 0
 -65 452 -64 434 -64 431 c 4
-107 479 m 1
 -125 521 -162 544 -209 544 c 0
 -255 544 -287 522 -306 484 c 1
 -283 491 -262 496 -214 497 c 0
 -167 498 -133 488 -107 479 c 1
EndSplineSet
MinimumDistance: x10,-1 
EndChar
StartChar: uni0E36
Encoding: 214 3638 182
OldEncoding: 3638
Width: 0
Flags: HW
HStem: 466 41 546 41
VStem: -379 304
AnchorPoint: "AboveMark" -74 645 basemark 0
AnchorPoint: "AboveBase" -74 430 mark 0
Fore
-72 550 m 0
 -72 550 l 0
 -77 535 -88 525 -103 519 c 1
 -92 504 -87 498 -81 476 c 0
 -72 446 -73 433 -73 419 c 1
 -129 442 -160 450 -227 449 c 0
 -280 449 -315 442 -365 423 c 1
 -366 475 -342 520 -303 545 c 0
 -245 581 -190 566 -186 566 c 1
 -187 574 -192 586 -181 605 c 0
 -162 637 -116 636 -96 624 c 0
 -69 608 -62 577 -72 550 c 0
-128 544 m 0
 -128 544 l 0
 -88 544 -88 603 -128 603 c 0
 -167 603 -167 544 -128 544 c 0
-115 467 m 1
 -134 508 -171 531 -217 531 c 0
 -263 531 -295 510 -314 472 c 1
 -291 478 -270 484 -223 485 c 0
 -176 486 -141 475 -115 467 c 1
EndSplineSet
MinimumDistance: x12,-1 
EndChar
StartChar: uni0E37
Encoding: 215 3639 183
OldEncoding: 3639
Width: 0
Flags: HW
HStem: 460 39 542 29
VStem: -194 45 -116 45
AnchorPoint: "AboveMark" -74 645 basemark 0
AnchorPoint: "AboveBase" -74 430 mark 0
Fore
-59 429 m 0
 -59 429 l 0
 -115 452 -146 461 -213 460 c 0
 -266 460 -301 452 -351 433 c 1
 -352 455 -350 509 -307 547 c 0
 -269 581 -215 583 -195 580 c 1
 -195 625 l 1
 -151 625 l 1
 -151 572 l 1
 -150 572 -140 567 -133 563 c 0
 -125 558 -117 549 -117 549 c 1
 -117 625 l 1
 -73 625 l 5
 -73 494 l 2
 -73 492 -66 475 -64 463 c 0
 -61 449 -59 433 -59 429 c 0
-101 478 m 1
 -120 519 -157 542 -203 542 c 0
 -249 542 -281 521 -300 482 c 1
 -277 489 -256 495 -209 496 c 0
 -162 497 -127 486 -101 478 c 1
EndSplineSet
MinimumDistance: x11,-1 
EndChar
StartChar: uni0E38
Encoding: 216 3640 184
OldEncoding: 3640
Width: 0
Flags: HW
AnchorPoint: "BelowBase" -74 -23 mark 0
Fore
-73 -204 m 1
 -123 -204 l 1
 -123 -129 l 1
 -123 -129 -139 -137 -160 -128 c 0
 -182 -119 -195 -106 -194 -74 c 0
 -194 -48 -174 -22 -131 -23 c 4
 -85 -24 -73 -51 -73 -83 c 2
 -73 -204 l 1
-135 -98 m 0
 -106 -98 -106 -54 -135 -54 c 0
 -165 -54 -165 -98 -135 -98 c 0
EndSplineSet
MinimumDistance: x6,-1 
EndChar
StartChar: uni0E39
Encoding: 217 3641 185
OldEncoding: 3641
Width: 0
Flags: HW
HStem: -216 35
VStem: -240 40 -151 40
AnchorPoint: "BelowBase" -74 -23 mark 0
Fore
-139 -170 m 1
 -139 -170 l 1
 -139 -170 -137 -170 -130 -170 c 0
 -119 -170 -119 -165 -119 -154 c 0
 -119 -152 -119 -29 -119 -29 c 1
 -77 -29 l 1
 -77 -29 -77 -158 -77 -161 c 0
 -77 -182 -80 -201 -100 -201 c 0
 -115 -201 -142 -201 -142 -201 c 1
 -200 -201 l 1
 -200 -129 l 1
 -200 -129 -219 -137 -240 -128 c 0
 -261 -119 -274 -98 -270 -70 c 0
 -266 -43 -243 -26 -216 -26 c 0
 -175 -26 -159 -53 -159 -82 c 1
 -160 -170 l 1
 -139 -170 l 1
-218 -101 m 0
 -188 -101 -188 -57 -218 -57 c 0
 -247 -57 -247 -101 -218 -101 c 0
EndSplineSet
MinimumDistance: x17,-1 
EndChar
StartChar: uni0E3A
Encoding: 218 3642 186
OldEncoding: 3642
Width: 0
Flags: HW
AnchorPoint: "BelowBase" -74 -23 mark 0
Fore
-107 -128 m 0
 -159 -128 -159 -48 -107 -48 c 0
 -54 -48 -54 -128 -107 -128 c 0
EndSplineSet
EndChar
StartChar: dottedcircle
Encoding: 221 9676 187
OldEncoding: 63262
Width: 420
Flags: W
HStem: 3 24<212 214> 34 25<296 301> 87 24<50 55> 95 24<350 352> 184 24<26 31> 268 24<350 352> 271 25<55 57> 326 25<288 290> 331 24<121 123> 354 24<211 215>
VStem: 14 24<196 198> 38 24<99 101> 43 24<284 286> 102 25<40 42> 109 25<343 345> 200 24<15 20 366 368> 276 25<338 343> 284 24<46 48> 338 24<107 113 280 286> 361 25<192 196>
Fore
48 295 m 6
114 354 m 6
107 51 m 6
43 110 m 6
289 57 m 6
342 118 m 6
342 291 m 6
281 349 m 6
366 203 m 6
19 207 m 6
204 377 m 6
55 296 m 4,11,12
 62 296 67 290 67 284 c 4,13,14
 67 277 62 271 55 271 c 4,15,16
 48 271 43 277 43 284 c 4,17,18
 43 290 48 296 55 296 c 4,11,12
121 355 m 4,19,20
 128 355 134 350 134 343 c 4,21,22
 134 337 128 331 121 331 c 4,23,24
 115 331 109 337 109 343 c 4,25,26
 109 350 115 355 121 355 c 4,19,20
115 52 m 4,27,28
 121 52 127 46 127 40 c 4,29,30
 127 33 121 27 115 27 c 4,31,32
 108 27 102 33 102 40 c 4,33,34
 102 46 108 52 115 52 c 4,27,28
50 111 m 4,35,36
 57 111 62 106 62 99 c 4,37,38
 62 92 57 87 50 87 c 4,39,40
 43 87 38 92 38 99 c 4,41,42
 38 106 43 111 50 111 c 4,35,36
296 59 m 4,43,44
 303 59 308 53 308 46 c 4,45,46
 308 40 303 34 296 34 c 4,47,48
 290 34 284 40 284 46 c 4,49,50
 284 53 290 59 296 59 c 4,43,44
350 119 m 4,51,52
 357 119 362 114 362 107 c 4,53,54
 362 100 357 95 350 95 c 4,55,56
 343 95 338 100 338 107 c 4,57,58
 338 114 343 119 350 119 c 4,51,52
350 292 m 4,59,60
 357 292 362 287 362 280 c 4,61,62
 362 273 357 268 350 268 c 4,63,64
 343 268 338 273 338 280 c 4,65,66
 338 287 343 292 350 292 c 4,59,60
288 351 m 4,67,68
 295 351 301 345 301 338 c 4,69,70
 301 332 295 326 288 326 c 4,71,72
 282 326 276 332 276 338 c 4,73,74
 276 345 282 351 288 351 c 4,67,68
373 204 m 4,75,76
 380 204 386 199 386 192 c 4,77,78
 386 185 380 180 373 180 c 4,79,80
 367 180 361 185 361 192 c 4,81,82
 361 199 367 204 373 204 c 4,75,76
26 208 m 4,83,84
 33 208 38 203 38 196 c 4,85,86
 38 190 33 184 26 184 c 4,87,88
 19 184 14 190 14 196 c 4,89,90
 14 203 19 208 26 208 c 4,83,84
212 27 m 4,91,92
 219 27 224 22 224 15 c 4,93,94
 224 8 219 3 212 3 c 4,95,96
 206 3 200 8 200 15 c 4,97,98
 200 22 206 27 212 27 c 4,91,92
211 378 m 4,99,100
 218 378 223 372 223 366 c 4,101,102
 223 359 218 354 211 354 c 4,103,104
 205 354 199 359 199 366 c 4,105,106
 199 372 205 378 211 378 c 4,99,100
EndSplineSet
EndChar
StartChar: uni0E3F
Encoding: 223 3647 188
OldEncoding: 3647
Width: 411
Flags: HW
HStem: 0 53 213 53 414 53
VStem: 51 60 174 47 319 60
Fore
168 257 m 1
 168 407 l 1
 101 407 l 1
 101 257 l 1
 168 257 l 1
168 46 m 1
 168 210 l 1
 101 210 l 1
 101 46 l 1
 168 46 l 1
214 210 m 1
 214 46 l 1
 251 46 l 2
 314 46 333 92 333 130 c 0
 333 205 273 210 220 210 c 2
 214 210 l 1
214 407 m 0
 214 257 l 1
 225 257 l 2
 289 257 312 295 312 328 c 0
 312 357 298 403 214 407 c 0
168 508 m 1
 214 508 l 1
 214 453 l 1
 245 453 l 2
 282 453 359 425 359 339 c 0
 359 298 339 261 294 240 c 1
 307 233 314 230 322 226 c 0
 359 206 378 173 378 127 c 0
 378 34 300 0 270 0 c 2
 214 0 l 1
 214 -61 l 1
 168 -61 l 1
 168 0 l 1
 55 0 l 1
 55 453 l 1
 168 453 l 1
 168 508 l 1
EndSplineSet
MinimumDistance: x10,-1 y16,0 y16,17 y7,5 y7,6 y3,1 y2,4 x4,2 x4,3 
EndChar
StartChar: uni0E40
Encoding: 224 3648 189
OldEncoding: 3648
Width: 222
Flags: HW
HStem: -1 20
VStem: 62 47
Fore
191 50 m 0
 191 50 l 0
 186 19 160 -1 127 -1 c 0
 79 -1 61 32 61 66 c 2
 61 385 l 1
 106 385 l 1
 106 120 l 1
 106 120 131 130 156 119 c 0
 181 109 196 84 191 50 c 0
127 32 m 0
 168 32 168 92 127 92 c 0
 87 92 87 32 127 32 c 0
EndSplineSet
MinimumDistance: x0,-1 
EndChar
StartChar: uni0E41
Encoding: 225 3649 190
OldEncoding: 3649
Width: 392
Flags: HW
HStem: -1 20
VStem: 62 47 239 47
Fore
365 50 m 0
 365 50 l 0
 361 19 334 -1 302 -1 c 0
 254 -1 235 32 235 66 c 2
 235 385 l 1
 281 385 l 1
 281 120 l 1
 281 120 306 130 331 119 c 0
 356 109 370 84 365 50 c 0
191 50 m 0
 191 50 l 0
 186 19 160 -1 127 -1 c 0
 79 -1 61 32 61 66 c 2
 61 385 l 1
 106 385 l 1
 106 120 l 1
 106 120 131 130 156 119 c 0
 181 109 196 84 191 50 c 0
302 32 m 0
 302 32 l 0
 342 32 342 92 302 92 c 0
 261 92 261 32 302 32 c 0
127 32 m 0
 168 32 168 92 127 92 c 0
 87 92 87 32 127 32 c 0
EndSplineSet
MinimumDistance: x4,-1 
EndChar
StartChar: uni0E42
Encoding: 226 3650 191
OldEncoding: 3650
Width: 270
Flags: HW
HStem: -1 20
VStem: 115 47
Fore
230 628 m 1
 230 628 l 1
 230 628 215 610 180 612 c 0
 136 615 107 647 62 639 c 0
 43 636 31 625 28 623 c 1
 30 623 71 608 95 592 c 0
 121 575 136 559 136 528 c 2
 136 120 l 1
 136 120 161 130 186 119 c 0
 211 109 226 84 221 50 c 0
 216 19 190 -1 157 -1 c 0
 109 -1 91 32 91 66 c 2
 91 521 l 2
 91 553 76 563 37 583 c 0
 4 600 -35 611 -39 611 c 1
 -22 635 4 655 23 662 c 0
 101 692 145 645 183 650 c 0
 213 653 213 661 215 661 c 1
 230 628 l 1
157 32 m 0
 198 32 198 92 157 92 c 0
 117 92 117 32 157 32 c 0
EndSplineSet
MinimumDistance: x3,-1 
EndChar
StartChar: uni0E43
Encoding: 227 3651 192
OldEncoding: 3651
Width: 261
Flags: HW
HStem: -1 20 600 30 654 41
VStem: 111 47
Fore
227 50 m 0
 227 50 l 0
 222 19 196 -1 163 -1 c 0
 115 -1 97 32 97 66 c 2
 97 598 l 2
 97 618 81 637 60 637 c 0
 40 637 25 625 22 606 c 1
 25 606 33 610 50 602 c 0
 75 589 75 533 57 513 c 0
 39 492 -1 494 -17 526 c 0
 -28 547 -28 604 -5 634 c 0
 11 656 30 669 63 669 c 0
 115 669 142 636 142 595 c 2
 142 120 l 1
 142 120 167 130 192 119 c 0
 217 109 232 84 227 50 c 0
24 527 m 0
 24 527 l 0
 50 527 46 578 24 578 c 0
 1 578 -1 527 24 527 c 0
163 32 m 0
 204 32 204 92 163 92 c 0
 123 92 123 32 163 32 c 0
EndSplineSet
MinimumDistance: x14,-1 
EndChar
StartChar: uni0E44
Encoding: 228 3652 193
OldEncoding: 3652
Width: 293
Flags: HW
HStem: -1 20 657 41
VStem: 20 47 161 47
Fore
251 50 m 0
 251 50 l 0
 247 19 221 -1 188 -1 c 0
 140 -1 122 32 122 66 c 2
 122 610 l 2
 122 619 123 634 115 634 c 0
 107 634 105 623 103 616 c 1
 73 481 l 2
 69 462 60 444 36 442 c 0
 9 440 -3 461 -5 483 c 1
 -14 591 l 1
 -14 602 -16 611 -20 620 c 0
 -28 636 -45 635 -45 635 c 1
 -45 672 l 1
 -27 674 -10 669 3 658 c 0
 18 647 23 631 24 612 c 1
 35 475 l 1
 72 635 l 1
 76 651 90 673 121 672 c 0
 157 671 167 647 167 614 c 2
 167 120 l 1
 167 120 192 130 217 119 c 0
 242 109 256 84 251 50 c 0
188 32 m 0
 228 32 228 92 188 92 c 0
 147 92 147 32 188 32 c 0
EndSplineSet
MinimumDistance: x10,-1 
EndChar
StartChar: uni0E45
Encoding: 229 3653 194
OldEncoding: 3653
Width: 144
Flags: HW
HStem: 361 41
VStem: 238 47
Fore
106 -142 m 1
 61 -142 l 1
 61 245 l 2
 61 283 65 348 10 349 c 0
 -45 350 -58 328 -67 297 c 1
 -74 301 -103 317 -98 314 c 1
 -90 348 -75 385 8 385 c 0
 108 385 106 317 106 252 c 2
 106 -142 l 1
EndSplineSet
MinimumDistance: x0,-1 
EndChar
StartChar: uni0E46
Encoding: 230 3654 195
OldEncoding: 3654
Width: 369
Flags: HW
HStem: -165 41
VStem: 368 47
Fore
328 -38 m 1
 328 -38 l 0
 328 -72 318 -99 293 -121 c 0
 268 -143 231 -158 213 -159 c 1
 192 -126 l 1
 195 -126 237 -114 259 -94 c 0
 276 -80 282 -61 282 -38 c 2
 282 288 l 2
 282 305 279 321 266 331 c 0
 256 340 237 348 229 344 c 2
 183 317 l 1
 141 341 l 2
 134 344 110 333 100 314 c 0
 90 296 89 285 92 269 c 1
 92 269 108 285 142 281 c 0
 181 277 209 228 188 189 c 0
 165 146 108 152 81 175 c 0
 42 209 43 287 57 320 c 0
 73 356 100 375 137 385 c 1
 183 353 l 1
 227 385 l 1
 233 385 268 380 287 367 c 0
 312 349 328 322 328 298 c 2
 328 -38 l 1
131 187 m 0
 175 187 175 252 131 252 c 0
 88 252 88 187 131 187 c 0
EndSplineSet
MinimumDistance: x4,-1 
EndChar
StartChar: uni0E47
Encoding: 231 3655 196
OldEncoding: 3655
Width: 0
Flags: HW
VStem: -51 50
AnchorPoint: "AboveMark" -74 430 mark 0
AnchorPoint: "AboveBase" -74 430 mark 0
Fore
-42 636 m 1
 -42 636 l 0
 -42 625 -46 613 -51 603 c 0
 -74 562 -126 560 -166 564 c 0
 -183 566 -200 568 -216 570 c 0
 -248 573 -275 571 -289 550 c 0
 -299 537 -298 522 -294 507 c 1
 -293 502 l 1
 -263 543 -212 529 -179 500 c 1
 -169 551 -84 547 -85 482 c 0
 -85 449 -116 430 -148 438 c 0
 -171 443 -186 458 -203 472 c 0
 -218 484 -233 493 -254 486 c 0
 -273 481 -278 460 -278 438 c 2
 -278 433 l 1
 -312 446 -334 469 -338 506 c 0
 -344 554 -317 592 -283 601 c 0
 -229 616 -186 595 -133 598 c 0
 -108 599 -90 611 -90 636 c 2
 -90 639 l 1
 -42 639 l 1
 -42 636 l 1
-116 485 m 0
 -116 494 -121 502 -133 502 c 0
 -144 502 -149 494 -149 485 c 0
 -149 477 -144 468 -133 468 c 0
 -121 468 -116 477 -116 485 c 0
EndSplineSet
EndChar
StartChar: uni0E48
Encoding: 232 3656 197
OldEncoding: 3656
Width: 0
Flags: HW
HStem: 647 119
VStem: -119 45
AnchorPoint: "AboveMark" -74 645 mark 0
Fore
-74 647 m 5
 -117 647 l 1
 -117 769 l 1
 -74 769 l 1
 -74 647 l 5
EndSplineSet
MinimumDistance: x0,-1 
Substitution: 0 65534 'loww' uni0E48.low
Substitution: 0 65534 'amni' uni0E4D
EndChar
StartChar: uni0E49
Encoding: 233 3657 198
OldEncoding: 3657
Width: 0
Flags: HW
AnchorPoint: "AboveMark" -74 645 mark 0
Fore
11 720 m 1
 11 720 l 0
 -7 697 -25 676 -69 657 c 0
 -113 637 -153 638 -186 642 c 1
 -177 648 -168 656 -163 664 c 0
 -158 671 -154 683 -153 686 c 1
 -172 684 -187 690 -200 703 c 0
 -221 726 -214 780 -167 785 c 0
 -122 790 -107 764 -104 739 c 0
 -101 704 -123 672 -125 671 c 0
 -97 678 -71 693 -55 706 c 0
 -23 730 2 762 11 782 c 1
 11 720 l 1
-156 711 m 0
 -121 711 -127 763 -157 761 c 0
 -189 759 -191 711 -156 711 c 0
EndSplineSet
MinimumDistance: x10,-1 
Substitution: 0 65534 'loww' uni0E49.low
Substitution: 0 65534 'amni' uni0E4D
EndChar
StartChar: uni0E4A
Encoding: 234 3658 199
OldEncoding: 3658
Width: 0
Flags: HW
HStem: 698 16
AnchorPoint: "AboveMark" -74 645 mark 0
Fore
51 746 m 1
 51 746 l 0
 47 721 38 703 23 685 c 0
 -5 651 -40 638 -84 641 c 1
 -76 646 -58 668 -55 697 c 0
 -52 718 -58 745 -80 747 c 0
 -100 750 -114 736 -117 732 c 1
 -120 736 -142 750 -159 746 c 0
 -177 741 -185 725 -184 707 c 1
 -176 714 -170 717 -155 717 c 0
 -132 717 -117 697 -118 676 c 0
 -119 654 -137 637 -163 638 c 0
 -201 640 -223 682 -212 728 c 0
 -207 754 -190 775 -162 777 c 0
 -143 779 -128 770 -118 754 c 1
 -109 769 -92 777 -73 777 c 0
 -46 777 -25 755 -22 726 c 0
 -19 693 -35 669 -37 666 c 1
 -16 676 -4 692 7 711 c 0
 19 732 20 764 20 773 c 1
 51 746 l 1
-158 659 m 0
 -135 659 -136 695 -159 695 c 0
 -181 695 -182 659 -158 659 c 0
EndSplineSet
MinimumDistance: x18,-1 
Substitution: 0 65534 'loww' uni0E4A.low
Substitution: 0 65534 'amni' uni0E4D
EndChar
StartChar: uni0E4B
Encoding: 235 3659 200
OldEncoding: 3659
Width: 0
Flags: HW
HStem: 711 40
VStem: -121 46
AnchorPoint: "AboveMark" -74 645 mark 0
Fore
-21 686 m 1
 -73 686 l 1
 -73 636 l 1
 -114 636 l 1
 -114 686 l 1
 -169 686 l 1
 -169 727 l 1
 -114 727 l 1
 -114 780 l 1
 -73 780 l 1
 -73 727 l 1
 -21 727 l 1
 -21 686 l 1
EndSplineSet
MinimumDistance: x0,-1 y5,3 y5,4 y11,9 y11,10 x8,6 x8,7 x11,1 x11,0 
Substitution: 0 65534 'loww' uni0E4B.low
Substitution: 0 65534 'amni' uni0E4D
EndChar
StartChar: uni0E4C
Encoding: 236 3660 201
OldEncoding: 3660
Width: 0
Flags: HW
HStem: 581 29 660 29
AnchorPoint: "AboveMark" -74 645 mark 0
Fore
23 780 m 1
 23 780 l 0
 21 772 23 744 -10 726 c 0
 -50 704 -99 718 -134 701 c 0
 -151 692 -152 677 -153 674 c 1
 -144 681 -139 684 -121 684 c 0
 -94 684 -71 664 -71 634 c 0
 -71 602 -95 583 -123 581 c 0
 -173 580 -202 631 -190 676 c 0
 -176 727 -136 741 -70 741 c 0
 -18 741 -23 778 -20 780 c 1
 23 780 l 1
-124 607 m 0
 -89 607 -90 660 -125 660 c 0
 -161 660 -160 607 -124 607 c 0
EndSplineSet
MinimumDistance: x0,-1 
Substitution: 0 65534 'loww' uni0E4C.low
EndChar
StartChar: uni0E4D
Encoding: 237 3661 202
OldEncoding: 3661
Width: 0
Flags: HW
AnchorPoint: "AboveMark" -44 430 mark 0
AnchorPoint: "AboveMark" -44 645 basemark 0
AnchorPoint: "AboveBase" -44 430 mark 0
Fore
-111 413 m 0
 -111 413 l 0
 -199 413 -199 546 -111 546 c 4
 -22 546 -22 413 -111 413 c 0
-111 443 m 0
 -62 443 -62 516 -111 516 c 0
 -159 516 -159 443 -111 443 c 0
EndSplineSet
MinimumDistance: x1,-1 
Substitution: 0 65534 'G006' uni0E4B
Substitution: 0 65534 'G005' uni0E4A
Substitution: 0 65534 'G004' uni0E49
Substitution: 0 65534 'G003' uni0E48
EndChar
StartChar: uni0E4E
Encoding: 238 3662 203
OldEncoding: 3662
Width: 0
Flags: HW
HStem: 477 27<-87 -83.5> 673 22<-15.5 -13>
VStem: -170 56
AnchorPoint: "AboveBase" -21 430 mark 0
Fore
-21 500 m 5
 -39 485 -66 477 -101 477 c 0
 -127 477 -145 482 -156 493 c 0
 -166 502 -170 513 -170 527 c 0
 -171 542 -165 556 -154 568 c 0
 -136 589 -108 599 -72 599 c 1
 -83 600 -93 603 -104 611 c 0
 -113 618 -118 628 -118 641 c 1
 -112 669 -84 687 -33 694 c 0
 -28 695 -21 695 -10 695 c 0
 11 696 27 693 38 687 c 1
 13 668 l 2
 12 668 9 668 3 670 c 0
 -2 671 -8 672 -13 673 c 0
 -19 673 -25 672 -33 670 c 0
 -54 664 -66 653 -68 636 c 0
 -68 626 -64 618 -54 613 c 0
 -44 608 -34 605 -21 605 c 1
 -31 582 l 1
 -60 582 -82 576 -100 562 c 0
 -109 554 -114 544 -114 532 c 0
 -114 525 -112 520 -108 515 c 0
 -102 508 -93 504 -81 504 c 0
 -64 504 -52 508 -42 518 c 1
 -21 500 l 5
EndSplineSet
MinimumDistance: x3,-1 
EndChar
StartChar: uni0E4F
Encoding: 239 3663 204
OldEncoding: 3663
Width: 391
Flags: HW
HStem: 0 32
Fore
202 0 m 0
 202 0 l 0
 1 0 1 301 202 301 c 0
 402 301 402 0 202 0 c 0
202 20 m 0
 202 20 l 0
 374 20 374 280 202 280 c 0
 29 280 29 20 202 20 c 0
202 65 m 0
 202 65 l 0
 87 65 87 236 202 236 c 0
 316 236 316 65 202 65 c 0
201 85 m 0
 287 85 287 213 201 213 c 0
 115 213 115 85 201 85 c 0
EndSplineSet
MinimumDistance: x0,-1 
EndChar
StartChar: uni0E50
Encoding: 240 3664 205
OldEncoding: 3664
Width: 399
Flags: HW
HStem: -1 41 241 41
VStem: 46 47 317 47
Fore
359 136 m 0
 359 136 l 0
 359 57 304 -2 206 -1 c 0
 108 0 53 57 53 136 c 0
 53 215 110 271 206 271 c 0
 302 271 359 215 359 136 c 0
313 136 m 0
 313 192 279 236 206 236 c 0
 133 236 99 192 99 136 c 0
 99 80 135 37 206 37 c 0
 277 37 313 80 313 136 c 0
EndSplineSet
MinimumDistance: x8,-1 
EndChar
StartChar: uni0E51
Encoding: 241 3665 206
OldEncoding: 3665
Width: 399
Flags: HW
HStem: 240 41
VStem: 54 47 339 47
Fore
372 129 m 0
 372 129 l 0
 378 4 296 -44 279 -52 c 1
 254 -20 l 1
 292 -2 329 36 326 127 c 0
 325 175 289 236 209 234 c 0
 146 233 100 195 97 138 c 0
 95 93 110 58 149 43 c 0
 184 31 206 51 208 52 c 0
 181 49 156 61 143 84 c 0
 126 116 142 172 193 177 c 0
 249 183 276 137 272 97 c 0
 268 44 230 -1 172 -1 c 0
 83 0 49 65 52 139 c 0
 55 215 114 270 208 270 c 0
 312 270 367 210 372 129 c 0
206 85 m 0
 244 87 241 144 202 142 c 0
 164 141 167 83 206 85 c 0
EndSplineSet
MinimumDistance: x4,-1 
EndChar
StartChar: uni0E52
Encoding: 242 3666 207
OldEncoding: 3666
Width: 399
Flags: HW
HStem: 0 41 241 41
VStem: 75 47 293 34 394 47
Fore
390 75 m 1
 390 75 l 0
 390 54 393 36 381 20 c 0
 369 6 354 0 335 0 c 2
 90 0 l 2
 74 0 61 8 51 15 c 0
 42 23 37 44 37 63 c 2
 37 333 l 2
 37 343 34 349 24 355 c 0
 13 362 -8 362 -11 361 c 1
 -11 400 l 1
 -2 401 26 399 47 390 c 0
 73 377 83 356 83 335 c 2
 83 73 l 2
 83 64 83 57 88 49 c 0
 94 40 103 38 113 38 c 2
 308 38 l 2
 320 38 332 39 339 48 c 0
 345 55 345 65 345 75 c 2
 345 193 l 2
 345 212 339 233 316 233 c 0
 283 233 280 186 280 185 c 1
 248 185 l 1
 248 191 235 234 201 233 c 0
 169 232 166 210 164 202 c 1
 180 205 196 202 209 193 c 0
 242 172 243 108 201 90 c 0
 151 70 106 104 107 167 c 0
 108 218 140 270 191 271 c 0
 250 273 263 237 264 235 c 1
 265 238 275 271 321 271 c 0
 368 271 390 236 390 196 c 2
 390 75 l 1
173 117 m 0
 207 117 207 170 173 170 c 0
 138 170 138 117 173 117 c 0
EndSplineSet
MinimumDistance: x4,-1 
EndChar
StartChar: uni0E53
Encoding: 243 3667 208
OldEncoding: 3667
Width: 399
Flags: HW
HStem: -2 20 241 41
VStem: 233 47 381 47
Fore
403 0 m 1
 359 0 l 1
 359 172 l 2
 359 200 347 231 315 232 c 0
 282 233 261 201 261 170 c 2
 261 0 l 1
 216 0 l 1
 216 171 l 2
 216 195 196 231 147 231 c 0
 113 231 94 199 90 170 c 0
 86 150 86 128 89 116 c 1
 102 123 113 126 131 123 c 0
 162 118 181 91 181 58 c 0
 181 16 140 -9 103 0 c 0
 49 13 40 70 39 128 c 0
 36 197 68 269 148 271 c 0
 219 274 239 222 239 221 c 0
 240 224 252 271 313 271 c 0
 370 271 403 230 403 181 c 2
 403 0 l 1
118 33 m 0
 156 33 156 90 118 90 c 0
 79 90 79 33 118 33 c 0
EndSplineSet
EndChar
StartChar: uni0E54
Encoding: 244 3668 209
OldEncoding: 3668
Width: 399
Flags: HW
HStem: -4 20 19 68
VStem: 447 47
Fore
458 405 m 1
 458 405 l 0
 457 367 430 291 389 260 c 0
 322 210 236 248 159 229 c 0
 110 217 81 186 79 133 c 0
 77 67 120 29 173 39 c 0
 220 48 233 44 236 45 c 1
 232 45 160 69 149 123 c 0
 143 155 161 196 204 200 c 0
 255 205 281 166 276 127 c 0
 273 108 261 95 244 87 c 0
 245 87 256 72 283 66 c 0
 312 60 329 61 355 53 c 0
 379 45 385 40 401 31 c 1
 378 -4 l 1
 375 -3 341 16 298 18 c 0
 224 22 134 -35 69 33 c 0
 18 85 17 181 78 235 c 0
 177 323 316 224 378 312 c 0
 403 347 412 382 415 421 c 1
 458 405 l 1
215 112 m 0
 251 114 248 169 211 167 c 0
 174 166 178 110 215 112 c 0
EndSplineSet
MinimumDistance: x17,-1 
EndChar
StartChar: uni0E55
Encoding: 245 3669 210
OldEncoding: 3669
Width: 399
Flags: HW
HStem: -4 20 19 68
Fore
425 433 m 1
 425 433 l 0
 423 415 418 400 411 384 c 0
 403 363 389 348 388 346 c 1
 388 346 422 301 391 259 c 0
 346 198 234 248 157 229 c 0
 108 217 78 185 75 133 c 0
 73 67 117 29 170 39 c 0
 216 48 229 44 232 45 c 1
 228 45 156 69 146 123 c 0
 140 155 157 196 201 200 c 0
 252 205 278 166 272 127 c 0
 269 108 257 95 240 87 c 0
 241 87 253 72 279 66 c 0
 308 60 326 61 352 53 c 0
 376 45 381 40 397 31 c 1
 374 -4 l 1
 371 -3 337 16 294 18 c 0
 221 22 130 -35 65 33 c 0
 14 85 14 181 74 235 c 0
 141 294 230 265 301 269 c 0
 379 272 350 307 354 310 c 1
 353 307 316 279 269 291 c 0
 207 306 206 380 266 397 c 0
 319 411 359 382 359 381 c 1
 360 383 370 394 376 411 c 0
 380 424 382 434 382 449 c 1
 425 433 l 1
337 348 m 0
 337 348 l 0
 332 354 314 364 298 364 c 0
 282 364 266 360 265 346 c 0
 264 332 281 325 299 327 c 0
 324 330 333 341 337 348 c 0
211 112 m 0
 248 114 244 169 207 167 c 0
 171 166 175 110 211 112 c 0
EndSplineSet
MinimumDistance: x8,-1 
EndChar
StartChar: uni0E56
Encoding: 246 3670 211
OldEncoding: 3670
Width: 399
Flags: HW
HStem: 0 68 124 41
VStem: 95 34
Fore
365 153 m 0
 365 153 l 0
 374 64 317 2 231 0 c 0
 171 -1 106 29 106 87 c 0
 106 118 125 150 165 153 c 0
 208 156 236 123 233 85 c 0
 230 52 212 42 208 40 c 1
 243 35 277 47 297 71 c 0
 326 105 328 162 304 195 c 0
 280 230 240 242 196 232 c 0
 161 224 136 204 122 171 c 1
 109 171 l 1
 110 196 108 265 82 329 c 0
 70 358 57 377 38 401 c 1
 77 425 l 1
 99 397 112 375 124 341 c 0
 135 308 142 285 144 251 c 1
 176 272 213 276 245 274 c 0
 311 270 357 223 365 153 c 0
170 119 m 0
 132 120 130 63 168 62 c 0
 207 61 209 118 170 119 c 0
EndSplineSet
MinimumDistance: x0,-1 
EndChar
StartChar: uni0E57
Encoding: 247 3671 212
OldEncoding: 3671
Width: 399
Flags: HW
HStem: -3 20 92 41 242 41
VStem: 219 47
Fore
465 393 m 1
 465 393 l 0
 463 388 424 354 420 295 c 0
 413 190 426 116 373 54 c 0
 336 11 292 -1 235 -1 c 1
 240 6 268 55 280 100 c 0
 291 138 307 234 252 235 c 0
 206 236 205 167 205 164 c 1
 168 164 l 1
 168 167 167 232 117 235 c 0
 86 237 68 207 58 178 c 0
 49 151 50 120 55 105 c 1
 57 108 65 123 100 123 c 0
 143 123 176 71 149 26 c 0
 121 -20 62 -3 44 17 c 0
 9 56 -7 143 24 208 c 0
 43 245 68 272 117 272 c 0
 148 272 171 255 185 229 c 1
 201 258 226 272 258 272 c 0
 312 272 337 216 333 154 c 0
 330 91 301 47 299 44 c 1
 309 53 347 64 366 134 c 0
 385 203 367 248 382 318 c 0
 392 367 413 385 418 393 c 1
 465 393 l 1
97 33 m 0
 133 34 131 90 95 89 c 0
 58 88 60 32 97 33 c 0
EndSplineSet
EndChar
StartChar: uni0E58
Encoding: 248 3672 213
OldEncoding: 3672
Width: 399
Flags: HW
HStem: -1 20 149 41
VStem: 397 47
Fore
419 398 m 1
 419 398 l 0
 419 397 435 313 406 267 c 0
 365 202 271 232 183 232 c 0
 127 232 90 201 84 152 c 0
 76 87 110 73 110 72 c 0
 110 75 113 126 150 130 c 0
 204 135 255 29 313 38 c 0
 327 40 327 54 327 55 c 1
 320 54 287 52 266 76 c 0
 238 109 253 176 314 178 c 0
 366 180 385 139 385 98 c 0
 385 48 362 2 314 -1 c 0
 239 -6 179 90 159 84 c 0
 146 80 148 56 150 38 c 0
 152 23 161 4 164 -1 c 1
 106 3 61 39 45 93 c 0
 23 171 65 257 161 268 c 0
 237 276 312 249 353 276 c 0
 393 302 374 396 374 398 c 1
 419 398 l 1
318 89 m 0
 354 89 354 143 318 143 c 0
 281 143 281 89 318 89 c 0
EndSplineSet
MinimumDistance: x3,-1 
EndChar
StartChar: uni0E59
Encoding: 249 3673 214
OldEncoding: 3673
Width: 399
Flags: HW
HStem: -2 41 242 41
VStem: 63 47 368 47
Fore
385 315 m 0
 385 315 l 0
 385 269 382 208 343 201 c 0
 305 195 287 228 275 223 c 0
 257 217 278 178 307 130 c 0
 341 75 374 21 374 20 c 1
 337 0 l 1
 337 2 306 48 267 115 c 0
 232 176 199 236 150 233 c 0
 105 230 87 167 90 118 c 0
 92 79 110 35 149 34 c 0
 177 32 185 53 186 55 c 1
 186 55 159 44 138 64 c 0
 111 88 115 139 141 160 c 0
 165 179 210 172 224 141 c 0
 248 84 220 0 152 -2 c 0
 75 -4 43 70 44 139 c 0
 44 204 79 271 150 272 c 0
 194 273 222 244 232 228 c 1
 232 247 239 269 257 272 c 0
 283 277 306 240 329 245 c 0
 343 249 341 292 340 323 c 0
 339 355 330 402 330 403 c 1
 377 403 l 1
 377 401 385 347 385 315 c 0
174 84 m 0
 205 83 203 137 173 136 c 0
 147 134 144 85 174 84 c 0
EndSplineSet
MinimumDistance: x16,-1 
EndChar
StartChar: uni0E5A
Encoding: 250 3674 215
OldEncoding: 3674
Width: 408
Flags: HW
HStem: -2 20 191 37<129.5 142.5> 275 31<92.5 101> 370 30<91 96 96 96>
VStem: 24 45 132 31 232 47 352 47
Fore
96 370 m 0
 96 370 l 0
 86 370 80 367 73 360 c 0
 69 355 66 347 65 338 c 0
 65 330 68 322 74 315 c 0
 79 310 86 306 96 306 c 0
 106 306 114 309 120 315 c 0
 125 322 128 329 128 338 c 0
 128 347 125 354 120 360 c 0
 114 367 106 370 96 370 c 0
269 377 m 0
 269 377 l 0
 281 385 293 398 313 398 c 0
 372 398 374 355 374 352 c 0
 375 349 376 333 376 333 c 1
 376 93 l 2
 376 64 364 21 315 4 c 0
 298 -2 293 -2 293 -2 c 1
 273 33 l 1
 273 33 289 35 301 43 c 0
 313 52 326 61 328 75 c 1
 328 139 327 348 328 330 c 1
 328 330 331 355 302 355 c 0
 290 354 280 350 275 340 c 1
 275 98 l 2
 275 64 266 40 246 24 c 0
 227 8 208 0 189 -1 c 1
 169 34 l 1
 184 34 199 41 214 56 c 0
 223 65 228 79 228 99 c 2
 228 252 l 1
 217 231 205 216 193 206 c 0
 181 196 163 191 136 191 c 0
 98 191 68 204 49 229 c 0
 29 255 20 287 20 326 c 1
 22 348 32 365 46 379 c 0
 61 393 78 400 97 400 c 0
 106 400 114 399 121 396 c 0
 133 393 143 386 149 375 c 0
 156 365 159 354 159 340 c 0
 159 319 152 302 138 290 c 0
 127 280 114 275 98 275 c 0
 87 275 78 277 68 282 c 1
 69 279 70 275 71 270 c 0
 73 265 74 260 77 254 c 0
 80 249 84 243 90 239 c 0
 96 235 104 232 114 230 c 0
 119 229 125 228 134 228 c 0
 151 228 162 233 172 242 c 0
 184 253 193 265 204 287 c 0
 221 317 221 338 222 381 c 1
 225 404 251 401 259 395 c 0
 262 393 268 379 269 377 c 0
234 320 m 1
 233 320 233 320 234 319 c 1
 234 320 l 1
EndSplineSet
MinimumDistance: x44,-1 
EndChar
StartChar: uni0E5B
Encoding: 251 3675 216
OldEncoding: 3675
Width: 721
Flags: HW
HStem: 4 41 68 36 325 41
VStem: 38 44
Fore
684 186 m 0
 684 186 l 0
 703 186 710 186 711 186 c 1
 711 190 711 166 711 159 c 1
 711 159 704 159 671 158 c 0
 626 157 635 157 628 157 c 0
 619 157 610 156 586 156 c 0
 577 156 568 153 550 164 c 0
 544 168 539 174 539 174 c 1
 534 182 l 1
 527 191 l 1
 493 84 l 1
 462 191 l 1
 425 59 l 1
 389 195 l 1
 364 65 l 1
 347 65 l 1
 309 227 l 1
 299 188 277 110 253 80 c 0
 227 48 194 31 153 31 c 0
 65 31 19 117 19 196 c 0
 19 240 30 278 53 309 c 0
 75 340 104 357 138 357 c 0
 208 357 243 301 243 237 c 0
 243 186 219 118 157 118 c 0
 137 118 119 128 106 145 c 1
 95 163 89 180 89 196 c 0
 89 236 130 269 162 233 c 0
 171 223 175 211 175 196 c 0
 175 180 168 162 155 152 c 1
 158 152 l 2
 170 152 182 159 193 176 c 0
 203 193 209 214 209 238 c 0
 209 283 188 322 138 322 c 0
 119 322 98 311 80 285 c 0
 61 260 53 230 53 195 c 0
 53 158 63 127 83 103 c 0
 104 78 127 66 153 66 c 0
 200 66 226 94 243 134 c 0
 263 184 290 289 302 330 c 1
 318 330 l 1
 353 178 l 1
 378 302 l 1
 395 302 l 1
 426 179 l 1
 460 301 l 1
 494 189 l 1
 519 272 l 1
 531 248 563 186 580 186 c 0
 599 186 610 185 621 185 c 0
 650 186 670 186 684 186 c 0
139 211 m 0
 138 215 136 217 132 217 c 0
 125 217 121 200 120 195 c 1
 121 178 126 175 132 175 c 0
 134 175 136 175 139 180 c 0
 142 185 143 190 143 196 c 0
 143 202 142 206 139 211 c 0
EndSplineSet
MinimumDistance: x17,-1 
EndChar
StartChar: uni0E38.low
Encoding: 252 63256 217
OldEncoding: 63256
Width: 0
Flags: HW
Fore
-74 -395 m 5
 -111 -395 l 1
 -111 -307 l 1
 -111 -307 -134 -314 -155 -305 c 0
 -176 -296 -189 -275 -184 -247 c 0
 -180 -220 -158 -203 -130 -203 c 0
 -89 -203 -74 -231 -74 -260 c 2
 -74 -395 l 5
-130 -283 m 0
 -96 -283 -96 -231 -130 -231 c 0
 -165 -231 -165 -283 -130 -283 c 0
EndSplineSet
MinimumDistance: x4,-1 
EndChar
StartChar: uni0E39.low
Encoding: 253 63257 218
OldEncoding: 63257
Width: 0
Flags: HW
HStem: -539 35
VStem: -240 40 -151 40
Fore
-139 -330 m 1
 -139 -330 l 1
 -139 -330 -137 -330 -130 -330 c 0
 -119 -330 -119 -325 -119 -314 c 0
 -119 -312 -119 -194 -119 -194 c 1
 -77 -194 l 1
 -77 -194 -77 -318 -77 -321 c 0
 -77 -342 -80 -361 -100 -361 c 0
 -115 -361 -142 -361 -142 -361 c 1
 -200 -361 l 1
 -200 -294 l 1
 -200 -294 -219 -302 -240 -293 c 0
 -261 -284 -274 -263 -270 -235 c 0
 -266 -208 -243 -191 -216 -191 c 0
 -175 -191 -159 -218 -159 -247 c 1
 -160 -330 l 1
 -139 -330 l 1
-218 -266 m 0
 -188 -266 -188 -222 -218 -222 c 0
 -247 -222 -247 -266 -218 -266 c 0
EndSplineSet
MinimumDistance: x17,-1 
EndChar
StartChar: uni0E3A.low
Encoding: 254 63258 219
OldEncoding: 63258
Width: 0
Flags: HW
Fore
-70 -251 m 0
 -111 -251 -111 -188 -70 -188 c 0
 -28 -188 -28 -251 -70 -251 c 0
EndSplineSet
EndChar
StartChar: DEL
Encoding: 255 63259 220
OldEncoding: 63259
Width: 0
VWidth: 2048
Flags: HW
HStem: 0 10G<-300 0>
VStem: -300 300<0 500>
Fore
-300 500 m 1
 0 500 l 1
 0 0 l 1
 -300 0 l 1
 -300 500 l 1
EndSplineSet
EndChar
StartChar: exclamdown
Encoding: 256 161 221
OldEncoding: 161
Width: 217
VWidth: 2048
Flags: HW
HStem: 273 65<76 142>
VStem: 73 71<-129 -25>
Fore
142 338 m 1
 142 273 l 1
 76 273 l 1
 76 338 l 1
 142 338 l 1
127 222 m 1
 145 -25 l 1
 145 -129 l 1
 73 -129 l 1
 73 -25 l 1
 90 222 l 1
 127 222 l 1
EndSplineSet
MinimumDistance: x5,-1 
EndChar
StartChar: cent
Encoding: 257 162 222
OldEncoding: 162
Width: 362
VWidth: 2048
Flags: HW
HStem: -9 47<182 191>
VStem: 34 59<158 183>
DStem: 240 14 315 -9 165 -246 238 -267 416 614 486 584 271 116 341 84 516 957 588 936 443 704 515 683
Fore
237 285 m 1
 167 41 l 1
 173 39 180 38 186 38 c 0
 235 38 264 67 272 124 c 1
 330 118 l 1
 323 80 307 50 282 27 c 0
 256 3 224 -9 187 -9 c 0
 174 -9 164 -7 154 -4 c 1
 116 -130 l 1
 81 -120 l 1
 117 7 l 1
 62 35 34 89 34 167 c 0
 34 219 46 260 70 292 c 0
 97 328 135 346 184 346 c 0
 194 346 204 345 216 344 c 1
 252 467 l 1
 287 457 l 1
 251 333 l 1
 291 318 314 286 323 239 c 1
 268 230 l 1
 262 254 252 272 237 285 c 1
203 300 m 1
 188 300 l 2
 125 302 93 259 93 170 c 0
 93 114 106 76 132 57 c 1
 203 300 l 1
EndSplineSet
MinimumDistance: x16,-1 
EndChar
StartChar: sterling
Encoding: 258 163 223
OldEncoding: 163
Width: 362
VWidth: 2048
Flags: HW
HStem: -8 55<258 269> 21 47<125 137> 210 47<14 63 136 227> 428 47<180 200>
VStem: 47 61<341 354>
Fore
126 258 m 1
 227 258 l 1
 227 210 l 1
 136 210 l 1
 140 202 142 192 142 183 c 0
 142 142 123 101 85 61 c 1
 103 66 118 68 131 68 c 0
 150 68 169 65 191 60 c 0
 227 51 252 47 265 47 c 0
 281 47 301 53 326 64 c 1
 345 12 l 1
 313 -1 287 -8 268 -8 c 0
 255 -8 246 -7 240 -5 c 2
 199 6 l 1
 157 18 l 1
 145 20 135 21 127 21 c 0
 93 21 61 11 31 -9 c 1
 9 46 l 1
 58 74 82 116 82 171 c 0
 82 182 80 195 77 210 c 1
 14 210 l 1
 14 258 l 1
 63 258 l 1
 52 293 47 321 47 342 c 0
 47 383 61 416 89 440 c 0
 116 463 150 475 191 475 c 0
 273 475 320 435 333 354 c 1
 276 346 l 1
 267 401 239 428 190 428 c 0
 168 428 149 421 132 406 c 0
 116 391 108 373 108 350 c 0
 108 328 114 297 126 258 c 1
EndSplineSet
MinimumDistance: x30,-1 
EndChar
StartChar: currency
Encoding: 259 164 224
OldEncoding: 164
Width: 362
VWidth: 2048
Flags: HW
HStem: 96 52<171 188> 314 52<171 188>
VStem: 45 52<223 239> 262 53<223 239>
DStem: 48 716 123 794 139 627 214 703 139 320 214 245 48 231 123 153 523 245 599 320 614 153 690 231 614 794 690 716 523 703 599 627
Fore
68 306 m 1
 23 350 l 1
 60 388 l 1
 104 343 l 1
 127 359 153 366 180 366 c 0
 208 366 233 359 255 343 c 1
 300 388 l 1
 337 350 l 1
 292 306 l 1
 308 283 315 258 315 231 c 0
 315 204 308 179 292 156 c 1
 337 113 l 1
 300 75 l 1
 255 120 l 1
 233 104 208 96 180 96 c 0
 152 96 127 104 104 120 c 1
 60 75 l 1
 23 113 l 1
 68 156 l 1
 53 179 45 204 45 231 c 0
 45 258 53 283 68 306 c 1
97 231 m 0
 97 208 105 188 121 172 c 0
 137 156 156 148 180 148 c 0
 203 148 223 156 239 172 c 0
 254 188 262 208 262 231 c 0
 262 255 254 274 238 290 c 0
 222 306 202 314 180 314 c 0
 157 314 137 306 121 290 c 0
 105 274 97 255 97 231 c 0
EndSplineSet
MinimumDistance: x7,-1 
EndChar
StartChar: yen
Encoding: 260 165 225
OldEncoding: 165
Width: 362
VWidth: 2048
Flags: HW
HStem: 0 10G<152 209> 104 44<20 152 209 341> 193 47<20 128 232 341> 458 10G<-1 63 293 361>
VStem: 152 58<0 104 148 193>
DStem: -2 957 129 957 263 493 318 620
Fore
152 0 m 1
 152 104 l 1
 20 104 l 1
 20 148 l 1
 152 148 l 1
 152 193 l 1
 20 193 l 1
 20 241 l 1
 128 241 l 1
 -1 467 l 1
 63 467 l 1
 155 303 l 2
 163 288 171 272 179 254 c 1
 185 268 194 285 206 306 c 2
 293 467 l 1
 361 467 l 1
 232 241 l 1
 341 241 l 1
 341 193 l 1
 209 193 l 1
 209 148 l 1
 341 148 l 1
 341 104 l 1
 209 104 l 1
 209 0 l 1
 152 0 l 1
EndSplineSet
MinimumDistance: x17,-1 y1,24 y1,0 x20,22 x20,21 x19,17 x19,18 x5,7 x5,6 x1,3 x1,2 
EndChar
StartChar: brokenbar
Encoding: 261 166 226
OldEncoding: 166
Width: 169
VWidth: 2048
Flags: HW
HStem: -137 10G<60 110> 465 10G<60 110>
VStem: 60 50<-137 115 224 475>
Fore
110 475 m 1
 110 224 l 1
 60 224 l 1
 60 475 l 1
 110 475 l 1
110 115 m 1
 110 -137 l 1
 60 -137 l 1
 60 115 l 1
 110 115 l 1
EndSplineSet
MinimumDistance: x0,-1 
EndChar
StartChar: section
Encoding: 262 167 227
OldEncoding: 167
Width: 362
VWidth: 2048
Flags: HW
HStem: -137 48<174 191> 428 47<172 187>
VStem: 26 52<205 215> 57 56<374 378> 254 58<-36 -32> 279 54<137 148>
Fore
45 -22 m 1
 103 -14 l 1
 113 -64 140 -89 185 -89 c 0
 203 -89 218 -84 231 -75 c 0
 246 -65 254 -51 254 -34 c 0
 254 -15 237 6 205 30 c 0
 199 35 175 49 134 75 c 0
 100 96 76 113 62 127 c 0
 38 151 26 177 26 205 c 0
 26 251 50 281 98 295 c 1
 70 321 57 347 57 375 c 0
 57 405 69 430 93 449 c 0
 115 466 141 475 173 475 c 0
 252 475 296 438 306 365 c 1
 247 358 l 1
 239 405 216 428 178 428 c 0
 162 428 147 424 134 416 c 0
 120 405 112 393 112 377 c 0
 112 360 127 340 156 318 c 0
 161 314 183 300 222 277 c 0
 258 254 283 237 296 226 c 0
 321 202 333 176 333 148 c 0
 333 108 309 77 261 57 c 1
 295 31 312 1 312 -33 c 0
 312 -66 298 -92 272 -111 c 0
 248 -129 219 -137 185 -137 c 0
 104 -137 58 -99 45 -22 c 1
232 78 m 1
 263 94 279 114 279 137 c 0
 279 163 249 194 190 229 c 0
 164 245 142 260 125 273 c 1
 94 256 78 235 78 211 c 0
 78 186 104 157 158 125 c 0
 192 105 217 89 232 78 c 1
EndSplineSet
MinimumDistance: x21,-1 
EndChar
StartChar: dieresis
Encoding: 263 168 228
OldEncoding: 168
Width: 217
VWidth: 2048
Flags: HW
HStem: 405 65<20 80 138 198>
VStem: 20 60<405 470> 138 60<405 470>
Fore
20 405 m 1
 20 470 l 1
 80 470 l 1
 80 405 l 1
 20 405 l 1
138 405 m 1
 138 470 l 1
 198 470 l 1
 198 405 l 1
 138 405 l 1
EndSplineSet
MinimumDistance: x6,-1 
EndChar
StartChar: copyright
Encoding: 264 169 229
OldEncoding: 169
Width: 480
VWidth: 2048
Flags: HW
HStem: -6 40<227 251> 97 38<235 246> 334 36<235 251> 436 40<227 251>
VStem: 1 40<220 245> 116 43<220 245> 442 40<220 245>
Fore
242 475 m 0
 309 475 366 452 413 406 c 0
 459 359 482 302 482 234 c 0
 482 168 459 111 412 64 c 0
 365 17 308 -6 242 -6 c 0
 175 -6 118 17 71 64 c 0
 24 111 1 167 1 234 c 0
 1 302 24 360 70 406 c 0
 117 452 174 475 242 475 c 0
242 436 m 0
 186 436 138 416 99 377 c 0
 60 338 41 290 41 234 c 0
 41 178 60 131 99 92 c 0
 138 53 185 34 242 34 c 0
 298 34 345 53 384 92 c 0
 423 131 442 178 442 234 c 0
 442 290 422 337 383 376 c 0
 344 416 297 436 242 436 c 0
319 196 m 1
 358 184 l 1
 342 126 304 97 242 97 c 0
 202 97 170 110 148 136 c 0
 126 160 116 193 116 234 c 0
 116 275 127 308 150 333 c 0
 172 357 204 370 245 370 c 0
 301 370 337 345 353 294 c 1
 315 285 l 1
 301 318 277 334 243 334 c 0
 215 334 194 324 179 303 c 0
 166 285 159 262 159 233 c 0
 159 167 186 134 240 134 c 0
 281 134 308 155 319 196 c 1
EndSplineSet
EndChar
StartChar: ordfeminine
Encoding: 265 170 230
OldEncoding: 170
Width: 241
VWidth: 2048
Flags: HW
HStem: 238 38<93 104> 438 37<116 125>
VStem: 15 47<301 309> 170 46<302 352 389 398>
Fore
175 272 m 1
 149 249 122 238 93 238 c 0
 41 238 15 261 15 308 c 0
 15 338 30 358 61 369 c 1
 93 376 l 1
 140 383 l 1
 170 389 l 1
 170 422 154 438 120 438 c 0
 89 438 71 425 67 398 c 1
 23 409 l 1
 31 453 64 475 121 475 c 0
 184 475 216 449 216 398 c 1
 216 302 l 1
 215 274 220 254 229 244 c 1
 182 244 l 1
 177 253 175 262 175 272 c 1
170 352 m 1
 149 348 128 345 106 341 c 1
 77 334 62 323 62 308 c 0
 62 286 76 276 104 276 c 0
 148 276 170 301 170 352 c 1
EndSplineSet
MinimumDistance: x12,-1 
EndChar
StartChar: guillemotleft
Encoding: 266 171 231
OldEncoding: 171
Width: 362
VWidth: 2048
Flags: HW
Fore
108 168 m 1
 191 23 l 1
 145 23 l 1
 42 168 l 1
 145 313 l 1
 191 313 l 1
 108 168 l 1
232 168 m 1
 316 23 l 1
 268 23 l 1
 167 168 l 1
 268 313 l 1
 316 313 l 1
 232 168 l 1
EndSplineSet
EndChar
StartChar: logicalnot
Encoding: 267 172 232
OldEncoding: 172
Width: 381
VWidth: 2048
Flags: HW
HStem: 275 53<36 291>
VStem: 291 54<135 275>
Fore
345 135 m 1
 291 135 l 1
 291 275 l 1
 36 275 l 1
 36 328 l 1
 345 328 l 1
 345 135 l 1
EndSplineSet
MinimumDistance: x0,-1 y2,0 y2,1 x2,4 x2,3 
EndChar
StartChar: minus
Encoding: 268 173 233
OldEncoding: 173
Width: 217
VWidth: 2048
Flags: HW
HStem: 140 58<21 197>
Fore
21 140 m 1
 21 198 l 1
 197 198 l 1
 197 140 l 1
 21 140 l 1
EndSplineSet
EndChar
StartChar: registered
Encoding: 269 174 234
OldEncoding: 174
Width: 480
VWidth: 2048
Flags: HW
HStem: -6 40<227 251> 325 35<178 236> 436 40<227 251>
VStem: 1 40<220 248> 136 42<102 211 247 325> 292 44<283 292> 442 40<220 248>
DStem: 572 292 659 312 619 208 724 208
Fore
242 475 m 0
 309 475 366 452 413 406 c 0
 459 359 482 302 482 234 c 0
 482 168 459 111 412 64 c 0
 365 17 308 -6 242 -6 c 0
 175 -6 118 17 71 64 c 0
 24 111 1 167 1 234 c 0
 1 302 24 360 70 406 c 0
 117 452 174 475 242 475 c 0
242 436 m 0
 186 436 138 416 99 377 c 0
 60 338 41 290 41 234 c 0
 41 178 60 131 99 92 c 0
 138 53 185 34 242 34 c 0
 298 34 345 53 384 92 c 0
 423 131 442 178 442 234 c 0
 442 290 422 337 383 376 c 0
 344 416 297 436 242 436 c 0
136 102 m 1
 136 360 l 1
 225 360 l 2
 299 360 335 337 335 291 c 0
 335 270 328 253 313 239 c 0
 300 227 283 219 262 217 c 1
 278 212 298 191 322 152 c 2
 354 102 l 1
 302 102 l 1
 279 143 l 2
 266 167 256 183 250 189 c 0
 237 204 221 211 202 211 c 2
 178 211 l 1
 178 102 l 1
 136 102 l 1
178 247 m 1
 229 247 l 2
 271 247 292 260 292 287 c 0
 292 312 269 325 225 325 c 2
 178 325 l 1
 178 247 l 1
EndSplineSet
EndChar
StartChar: macron
Encoding: 270 175 235
OldEncoding: 175
Width: 360
VWidth: 2048
Flags: HW
HStem: 499 41<-10 370>
Fore
-10 499 m 1
 -10 540 l 1
 370 540 l 1
 370 499 l 1
 -10 499 l 1
EndSplineSet
EndChar
StartChar: degree
Encoding: 271 176 236
OldEncoding: 176
Width: 261
VWidth: 2048
Flags: HW
HStem: 298 35<126 135> 441 34<126 135>
VStem: 41 35<384 393> 183 35<384 393>
Fore
41 387 m 0
 41 411 50 432 67 449 c 0
 84 467 104 475 129 475 c 0
 154 475 175 467 192 449 c 0
 209 432 218 411 218 387 c 0
 218 362 209 341 192 324 c 0
 174 307 153 298 129 298 c 0
 104 298 84 307 67 324 c 0
 50 341 41 362 41 387 c 0
76 387 m 0
 76 372 81 359 91 349 c 0
 102 338 114 333 129 333 c 0
 144 333 157 338 167 349 c 0
 178 360 183 372 183 387 c 0
 183 401 178 414 167 425 c 0
 157 436 144 441 129 441 c 0
 114 441 102 436 91 425 c 0
 81 414 76 402 76 387 c 0
EndSplineSet
MinimumDistance: x4,-1 
EndChar
StartChar: plusminus
Encoding: 272 177 237
OldEncoding: 177
Width: 358
VWidth: 2048
Flags: HW
HStem: 0 54<25 333> 211 53<25 152 206 333>
VStem: 152 54<83 211 265 391>
Fore
152 83 m 1
 152 211 l 1
 25 211 l 1
 25 265 l 1
 152 265 l 1
 152 392 l 1
 206 392 l 1
 206 265 l 1
 333 265 l 1
 333 211 l 1
 206 211 l 1
 206 83 l 1
 152 83 l 1
333 0 m 1
 25 0 l 1
 25 54 l 1
 333 54 l 1
 333 0 l 1
EndSplineSet
MinimumDistance: x8,-1 y4,6 y4,5 y1,11 y1,0 x7,9 x7,8 x1,3 x1,2 
EndChar
StartChar: twosuperior
Encoding: 273 178 238
OldEncoding: 178
Width: 217
VWidth: 2048
Flags: HW
HStem: 233 39<83 206> 436 38<103 121>
Fore
8 233 m 1
 10 260 37 292 88 330 c 0
 114 349 128 359 129 360 c 0
 146 375 155 389 155 400 c 0
 155 424 141 436 111 436 c 0
 85 436 69 423 63 399 c 1
 15 404 l 1
 26 450 59 473 112 473 c 0
 174 473 205 451 205 408 c 0
 205 387 195 366 176 347 c 0
 168 338 150 324 121 303 c 0
 105 292 92 281 83 272 c 1
 207 272 l 1
 207 233 l 1
 8 233 l 1
EndSplineSet
EndChar
StartChar: threesuperior
Encoding: 274 179 239
OldEncoding: 179
Width: 217
VWidth: 2048
Flags: HW
HStem: 228 37<97 113> 342 10G<88 95> 438 36<104 113>
VStem: 145 50<407 415> 156 50<300 309>
Fore
11 296 m 1
 57 301 l 1
 64 277 81 265 106 265 c 0
 139 265 156 279 156 308 c 0
 156 331 139 343 105 343 c 1
 95 342 l 1
 88 342 l 1
 95 376 l 1
 128 376 145 387 145 409 c 0
 145 428 132 438 107 438 c 0
 84 438 69 427 62 405 c 1
 16 413 l 1
 30 453 61 473 107 473 c 0
 166 473 195 453 195 414 c 0
 195 389 180 371 151 362 c 1
 188 353 206 333 206 301 c 0
 206 277 195 258 174 245 c 0
 156 234 134 228 109 228 c 0
 52 228 20 251 11 296 c 1
EndSplineSet
MinimumDistance: x15,-1 
EndChar
StartChar: acute
Encoding: 275 180 240
OldEncoding: 180
Width: 217
VWidth: 2048
Flags: HW
HStem: 460 10G<113 188>
Fore
71 380 m 1
 113 470 l 1
 188 470 l 1
 118 380 l 1
 71 380 l 1
EndSplineSet
EndChar
StartChar: mu
Encoding: 276 181 241
OldEncoding: 181
Width: 375
VWidth: 2048
Flags: HW
HStem: -130 10G<51 108> -8 52<183 192> 0 10G<273 324> 329 10G<51 108 268 324>
VStem: 51 57<-130 34 167 338> 268 56<167 338>
Fore
324 338 m 1
 324 0 l 1
 273 0 l 1
 273 40 l 1
 254 8 226 -8 188 -8 c 0
 156 -8 129 6 108 34 c 1
 108 -130 l 1
 51 -130 l 1
 51 338 l 1
 108 338 l 1
 108 195 l 2
 108 148 111 115 116 97 c 0
 127 62 150 44 186 44 c 0
 222 44 247 61 258 96 c 0
 265 115 268 148 268 194 c 2
 268 338 l 1
 324 338 l 1
EndSplineSet
MinimumDistance: x0,-1 
EndChar
StartChar: paragraph
Encoding: 277 182 242
OldEncoding: 182
Width: 350
VWidth: 2048
Flags: HW
HStem: -130 10G<129 182 253 307> 412 55<182 253 307 353>
VStem: 129 53<-130 203> 253 54<-130 412>
Fore
129 -130 m 1
 129 203 l 1
 91 203 61 215 37 240 c 0
 13 264 0 295 0 333 c 0
 0 377 15 411 43 435 c 0
 69 456 105 467 151 467 c 2
 353 467 l 1
 353 412 l 1
 307 412 l 1
 307 -130 l 1
 253 -130 l 1
 253 412 l 1
 182 412 l 1
 182 -130 l 1
 129 -130 l 1
EndSplineSet
MinimumDistance: y12,0 y12,13 y8,10 y8,9 x8,6 x8,7 
EndChar
StartChar: periodcentered
Encoding: 278 183 243
OldEncoding: 183
Width: 181
VWidth: 2048
Flags: HW
HStem: 197 65<59 125>
VStem: 59 65<197 263>
Fore
59 197 m 1
 59 263 l 1
 125 263 l 1
 125 197 l 1
 59 197 l 1
EndSplineSet
MinimumDistance: x2,-1 
EndChar
StartChar: cedilla
Encoding: 279 184 244
OldEncoding: 184
Width: 217
VWidth: 2048
Flags: HW
VStem: 119 53<-75 -69>
Fore
69 -49 m 1
 85 7 l 1
 128 7 l 1
 118 -27 l 1
 154 -31 172 -46 172 -74 c 0
 172 -95 161 -111 140 -122 c 0
 123 -130 103 -134 80 -134 c 0
 63 -134 48 -133 34 -130 c 1
 38 -93 l 1
 67 -94 l 2
 102 -95 119 -87 119 -70 c 0
 119 -56 102 -49 69 -49 c 1
EndSplineSet
MinimumDistance: x4,-1 
EndChar
StartChar: onesuperior
Encoding: 280 185 245
OldEncoding: 185
Width: 217
VWidth: 2048
Flags: HW
HStem: 463 10G<117 152>
VStem: 105 46<233 410>
Fore
105 233 m 1
 105 410 l 1
 85 394 61 382 34 374 c 1
 34 414 l 1
 66 425 94 444 117 473 c 1
 152 473 l 1
 152 233 l 1
 105 233 l 1
EndSplineSet
MinimumDistance: x5,-1 
EndChar
StartChar: ordmasculine
Encoding: 281 186 246
OldEncoding: 186
Width: 238
VWidth: 2048
Flags: HW
HStem: 236 42<115 124> 433 42<115 124>
VStem: 14 47<345 361> 176 47<345 369>
Fore
119 475 m 0
 153 475 179 463 198 440 c 0
 215 418 224 390 224 355 c 0
 224 321 215 293 198 271 c 0
 179 248 153 236 119 236 c 0
 86 236 60 247 41 271 c 0
 23 292 14 320 14 354 c 0
 14 389 23 417 40 439 c 0
 59 463 85 475 119 475 c 0
119 433 m 0
 81 433 62 407 62 355 c 0
 62 304 81 278 119 278 c 0
 157 278 176 304 176 357 c 0
 176 407 157 433 119 433 c 0
EndSplineSet
MinimumDistance: x2,-1 
EndChar
StartChar: guillemotright
Encoding: 282 187 247
OldEncoding: 187
Width: 362
VWidth: 2048
Flags: HW
Fore
252 168 m 1
 169 313 l 1
 216 313 l 1
 318 168 l 1
 216 23 l 1
 169 23 l 1
 252 168 l 1
129 168 m 1
 44 313 l 1
 93 313 l 1
 193 168 l 1
 93 23 l 1
 44 23 l 1
 129 168 l 1
EndSplineSet
EndChar
StartChar: onequarter
Encoding: 283 188 248
OldEncoding: 188
Width: 544
VWidth: 2048
Flags: HW
HStem: 39 35<382 456 501 535> 463 10G<117 152> 465 10G<432 481>
VStem: 105 46<233 410> 456 46<-10 39 74 157>
DStem: 884 973 986 973 164 -37 267 -37 948 470 933 322 683 161 783 151
Fore
80 -18 m 1
 432 475 l 1
 481 475 l 1
 130 -18 l 1
 80 -18 l 1
105 233 m 1
 105 410 l 1
 85 394 61 382 34 374 c 1
 34 414 l 1
 66 425 94 444 117 473 c 1
 152 473 l 1
 152 233 l 1
 105 233 l 1
456 -10 m 1
 456 39 l 1
 333 39 l 1
 333 79 l 1
 463 229 l 1
 501 229 l 1
 501 74 l 1
 535 74 l 1
 535 39 l 1
 501 39 l 1
 501 -10 l 1
 456 -10 l 1
456 74 m 1
 456 157 l 1
 382 74 l 1
 456 74 l 1
EndSplineSet
MinimumDistance: x18,-1 x15,17 y17,15 y17,16 y12,21 y12,11 x17,19 x17,18 y14,12 x12,14 x12,13 
EndChar
StartChar: onehalf
Encoding: 284 189 249
OldEncoding: 189
Width: 544
VWidth: 2048
Flags: HW
HStem: -10 39<410 533> 191 38<432 448> 463 10G<117 152> 465 10G<423 474>
VStem: 105 46<233 410> 334 198<-10 -4>
DStem: 867 973 970 973 149 -37 251 -37
Fore
73 -18 m 1
 423 475 l 1
 474 475 l 1
 123 -18 l 1
 73 -18 l 1
105 233 m 1
 105 410 l 1
 85 394 61 382 34 374 c 1
 34 414 l 1
 66 425 94 444 117 473 c 1
 152 473 l 1
 152 233 l 1
 105 233 l 1
334 -10 m 1
 334 16 361 48 415 87 c 0
 459 119 481 142 481 157 c 0
 481 180 467 191 438 191 c 0
 413 191 397 180 389 156 c 1
 341 160 l 1
 353 206 385 229 438 229 c 0
 501 229 532 208 532 165 c 0
 532 144 522 123 503 103 c 0
 494 94 475 79 448 59 c 0
 431 46 418 36 410 29 c 1
 533 29 l 1
 533 -10 l 1
 334 -10 l 1
EndSplineSet
MinimumDistance: x22,-1 
EndChar
StartChar: threequarters
Encoding: 285 190 250
OldEncoding: 190
Width: 544
VWidth: 2048
Flags: HW
HStem: 39 35<382 456 501 535> 228 37<97 113> 438 36<104 113> 465 10G<431 481>
VStem: 145 50<408 415> 156 50<300 309> 456 46<-10 39 74 157>
DStem: 883 973 986 973 164 -37 267 -37 947 470 933 322 683 161 783 151
Fore
80 -18 m 1
 431 475 l 1
 481 475 l 1
 130 -18 l 1
 80 -18 l 1
11 296 m 1
 57 301 l 1
 64 277 81 265 106 265 c 0
 139 265 156 279 156 308 c 0
 156 333 140 344 106 343 c 2
 88 342 l 1
 95 376 l 1
 128 376 145 387 145 409 c 0
 145 428 132 438 107 438 c 0
 84 438 69 427 62 405 c 1
 16 413 l 1
 30 453 61 473 107 473 c 0
 166 473 195 453 195 414 c 0
 195 389 180 371 151 362 c 1
 188 353 206 333 206 301 c 0
 206 277 195 258 174 245 c 0
 156 234 134 228 109 228 c 0
 52 228 20 251 11 296 c 1
456 -10 m 1
 456 39 l 1
 333 39 l 1
 333 79 l 1
 462 229 l 1
 501 229 l 1
 501 74 l 1
 535 74 l 1
 535 39 l 1
 501 39 l 1
 501 -10 l 1
 456 -10 l 1
456 74 m 1
 456 157 l 1
 382 74 l 1
 456 74 l 1
EndSplineSet
MinimumDistance: x28,-1 x25,27 y27,25 y27,26 y22,31 y22,21 x27,29 x27,28 y24,22 x22,24 x22,23 
EndChar
StartChar: questiondown
Encoding: 286 191 251
OldEncoding: 191
Width: 398
VWidth: 2048
Flags: HW
HStem: -137 47<190 207> 329 10G<168 233>
VStem: 50 59<-12 -1> 168 65<273 338> 175 55<206 223>
Fore
233 338 m 1
 233 273 l 1
 168 273 l 1
 168 338 l 1
 233 338 l 1
230 224 m 1
 230 207 l 2
 230 175 224 150 212 129 c 0
 203 114 184 95 157 71 c 0
 125 43 109 18 109 -5 c 0
 109 -29 118 -49 136 -65 c 0
 155 -81 176 -89 200 -89 c 0
 252 -89 283 -58 293 5 c 1
 352 -2 l 1
 339 -92 289 -137 201 -137 c 0
 160 -137 125 -126 97 -104 c 0
 66 -81 50 -49 50 -9 c 0
 50 29 74 69 121 110 c 0
 144 130 158 147 165 159 c 0
 171 173 175 194 175 224 c 1
 230 224 l 1
EndSplineSet
MinimumDistance: x4,-1 
EndChar
StartChar: AE
Encoding: 293 198 258
OldEncoding: 198
Width: 652
VWidth: 2048
Flags: HW
HStem: 0 55<374 617> 135 55<157 312> 213 55<374 592> 412 55<265 312 374 608>
VStem: 312 62<55 135 189 213 268 412>
DStem: 461 957 543 844 1 0 322 388 461 957 268 276 1 0 138 0
Fore
0 0 m 1
 225 467 l 1
 608 467 l 1
 608 412 l 1
 374 412 l 1
 374 269 l 1
 592 269 l 1
 592 213 l 1
 374 213 l 1
 374 55 l 1
 617 55 l 1
 617 0 l 1
 312 0 l 1
 312 135 l 1
 131 135 l 1
 67 0 l 1
 0 0 l 1
157 189 m 1
 312 189 l 1
 312 412 l 1
 265 412 l 1
 157 189 l 1
EndSplineSet
MinimumDistance: x10,-1 x11,13 y13,11 y13,12 x9,11 x9,10 x5,7 x5,6 x4,2 x4,3 
EndChar
StartChar: Eth
Encoding: 303 208 268
OldEncoding: 208
Width: 471
VWidth: 2048
Flags: HW
HStem: 0 55<112 226> 212 42<-1 50 112 241> 412 55<112 226>
VStem: 50 62<55 212 255 412> 373 63<218 256>
Fore
50 0 m 1
 50 212 l 1
 -1 212 l 1
 -1 255 l 1
 50 255 l 1
 50 467 l 1
 211 467 l 2
 260 467 297 462 324 451 c 0
 357 437 384 412 405 375 c 0
 426 339 437 293 437 236 c 0
 437 79 364 0 219 0 c 2
 50 0 l 1
112 55 m 1
 212 55 l 2
 248 55 276 60 296 68 c 0
 320 79 339 99 353 128 c 0
 366 157 373 193 373 237 c 0
 373 320 350 373 304 396 c 0
 283 407 251 412 210 412 c 2
 112 412 l 1
 112 255 l 1
 241 255 l 1
 241 212 l 1
 112 212 l 1
 112 55 l 1
EndSplineSet
MinimumDistance: x9,-1 x6,4 y4,6 y4,5 x10,1 y1,10 y1,0 x19,21 x19,20 x1,3 x1,2 
EndChar
StartChar: multiply
Encoding: 310 215 275
OldEncoding: 215
Width: 381
VWidth: 2048
Flags: HW
DStem: 106 677 185 757 311 473 390 552 311 473 390 394 105 267 184 188 390 394 469 473 595 189 674 268 595 756 673 677 390 552 469 473
Fore
51 130 m 1
 152 231 l 1
 52 331 l 1
 90 370 l 1
 190 270 l 1
 291 369 l 1
 329 331 l 1
 229 231 l 1
 329 131 l 1
 291 92 l 1
 190 192 l 1
 90 92 l 1
 51 130 l 1
EndSplineSet
MinimumDistance: x6,-1 
EndChar
StartChar: Oslash
Encoding: 311 216 276
OldEncoding: 216
Width: 507
VWidth: 2048
Flags: HW
HStem: -8 53<245 261> 422 53<245 261>
VStem: 30 64<223 247> 414 63<215 247>
DStem: 169 145 228 84 54 16 119 -39 738 781 791 714 251 236 306 171 926 992 990 937 816 869 875 808
Fore
398 424 m 1
 452 484 l 1
 483 458 l 1
 427 395 l 1
 460 347 477 294 477 233 c 0
 477 163 458 106 419 62 c 0
 379 15 324 -8 255 -8 c 0
 205 -8 157 8 111 41 c 1
 58 -19 l 1
 26 8 l 1
 83 71 l 1
 48 123 30 176 30 232 c 0
 30 303 50 360 89 405 c 0
 130 452 186 475 255 475 c 0
 308 475 355 458 398 424 c 1
360 381 m 1
 327 409 292 422 255 422 c 0
 201 422 161 404 132 366 c 0
 107 333 94 288 94 233 c 0
 94 190 104 151 123 115 c 1
 360 381 l 1
386 349 m 1
 149 83 l 1
 181 58 215 45 253 45 c 0
 305 45 345 64 374 101 c 0
 400 135 414 179 414 232 c 0
 414 275 404 314 386 349 c 1
EndSplineSet
MinimumDistance: x2,-1 
EndChar
StartChar: Thorn
Encoding: 317 222 282
OldEncoding: 222
Width: 435
VWidth: 2048
Flags: HW
HStem: 0 10G<50 112> 95 55<112 246> 317 55<112 246> 458 10G<50 112>
VStem: 50 62<0 95 150 317 372 467> 343 63<226 243>
Fore
50 0 m 1
 50 467 l 1
 112 467 l 1
 112 372 l 1
 227 372 l 2
 283 372 325 364 353 347 c 0
 389 326 407 289 407 237 c 0
 407 142 348 95 232 95 c 2
 112 95 l 1
 112 0 l 1
 50 0 l 1
112 150 m 1
 233 150 l 2
 306 150 343 178 343 235 c 0
 343 267 332 290 310 302 c 0
 293 312 267 317 232 317 c 2
 112 317 l 1
 112 150 l 1
EndSplineSet
MinimumDistance: x6,-1 y3,1 y3,2 y8,0 y8,9 
EndChar
StartChar: germandbls
Encoding: 318 223 283
OldEncoding: 223
Width: 398
VWidth: 2048
Flags: HW
HStem: -8 47<254 268> 0 10G<49 106> 428 47<173 190>
VStem: 49 57<0 329> 196 59<245 254> 247 56<377 385> 320 59<91 101>
Fore
49 0 m 1
 49 318 l 2
 49 423 94 475 185 475 c 0
 215 475 242 468 264 453 c 0
 290 436 303 413 303 384 c 0
 303 367 294 341 277 307 c 2
 258 271 l 2
 256 267 255 261 255 254 c 0
 255 242 270 225 299 203 c 0
 336 175 357 159 361 153 c 0
 373 139 378 121 378 100 c 0
 378 68 367 42 343 21 c 0
 321 2 294 -8 262 -8 c 0
 209 -8 171 18 146 69 c 1
 196 92 l 1
 213 57 235 39 261 39 c 0
 277 39 291 44 302 55 c 0
 314 66 320 79 320 95 c 0
 320 113 305 132 274 153 c 0
 248 171 231 183 224 191 c 0
 205 209 196 227 196 245 c 0
 196 260 204 282 221 312 c 0
 239 342 247 364 247 378 c 0
 247 394 240 406 226 416 c 0
 214 424 200 428 184 428 c 0
 152 428 131 417 119 394 c 0
 110 377 106 351 106 316 c 2
 106 0 l 1
 49 0 l 1
EndSplineSet
MinimumDistance: x10,-1 
EndChar
StartChar: ae
Encoding: 325 230 290
OldEncoding: 230
Width: 580
VWidth: 2048
Flags: HW
HStem: -8 45<136 149> -8 47<396 413> 155 47<309 495> 299 47<169 186 396 413>
VStem: 21 61<85 96>
Fore
553 104 m 1
 529 29 479 -8 403 -8 c 0
 351 -8 309 13 277 56 c 1
 235 13 189 -8 137 -8 c 0
 105 -8 78 0 57 16 c 0
 33 34 21 58 21 89 c 0
 21 149 71 185 171 198 c 0
 202 202 229 207 252 213 c 1
 252 226 l 2
 252 253 246 272 235 283 c 0
 223 293 204 299 177 299 c 0
 123 299 93 277 87 233 c 1
 31 240 l 1
 45 311 94 346 178 346 c 0
 238 346 277 331 295 300 c 1
 322 331 358 346 403 346 c 0
 451 346 488 330 514 297 c 0
 542 262 555 221 554 174 c 1
 553 155 l 1
 309 155 l 1
 309 78 341 40 406 40 c 0
 452 40 481 63 493 111 c 1
 553 104 l 1
309 202 m 1
 495 202 l 1
 489 266 459 299 403 299 c 0
 376 299 353 290 335 271 c 0
 317 253 309 230 309 202 c 1
253 170 m 1
 217 162 182 155 146 147 c 1
 104 136 83 118 83 91 c 0
 83 56 104 38 148 38 c 0
 169 38 188 42 207 52 c 0
 227 63 240 77 246 95 c 0
 251 109 253 133 253 170 c 1
EndSplineSet
MinimumDistance: x28,-1 
EndChar
StartChar: eth
Encoding: 335 240 300
OldEncoding: 240
Width: 362
VWidth: 2048
Flags: HW
HStem: -8 47<168 189> 294 44<167 178> 458 10G<98 167>
VStem: 23 59<148 172> 277 60<156 180>
DStem: 336 849 388 794 180 778 209 711
Fore
98 467 m 1
 167 467 l 1
 184 455 197 444 207 435 c 1
 275 467 l 1
 290 435 l 1
 235 408 l 1
 303 330 337 249 337 166 c 0
 337 116 324 75 297 43 c 0
 268 9 229 -8 180 -8 c 0
 129 -8 90 8 62 41 c 0
 36 72 23 113 23 165 c 0
 23 213 35 254 58 285 c 0
 84 321 121 338 167 338 c 0
 189 338 212 332 235 320 c 1
 222 345 207 368 189 388 c 1
 102 347 l 1
 88 380 l 1
 164 415 l 1
 144 434 122 451 98 467 c 1
277 168 m 0
 277 203 270 231 254 254 c 0
 236 281 210 294 178 294 c 0
 144 294 119 280 103 252 c 0
 89 229 82 199 82 163 c 0
 82 128 89 100 104 78 c 0
 121 52 146 39 179 39 c 0
 212 39 238 53 255 81 c 0
 270 104 277 133 277 168 c 0
EndSplineSet
MinimumDistance: x6,-1 
EndChar
StartChar: divide
Encoding: 342 247 307
OldEncoding: 247
Width: 358
VWidth: 2048
Flags: HW
HStem: 204 54<25 333>
VStem: 146 65<102 167 294 359>
Fore
146 294 m 1
 146 359 l 1
 211 359 l 1
 211 294 l 1
 146 294 l 1
333 204 m 1
 25 204 l 1
 25 257 l 1
 333 257 l 1
 333 204 l 1
146 102 m 1
 146 167 l 1
 211 167 l 1
 211 102 l 1
 146 102 l 1
EndSplineSet
MinimumDistance: x2,-1 
EndChar
StartChar: oslash
Encoding: 343 248 308
OldEncoding: 248
Width: 398
VWidth: 2048
Flags: HW
HStem: -8 47<190 207> 299 47<191 207>
VStem: 42 59<154 178> 301 59<154 186>
DStem: 168 87 228 37 98 -5 159 -52 537 566 586 503 242 183 293 122 668 736 730 690 603 652 661 600
Fore
294 318 m 1
 326 359 l 1
 356 337 l 1
 323 293 l 1
 347 261 360 220 360 169 c 0
 360 116 347 74 321 42 c 0
 292 9 252 -8 201 -8 c 0
 167 -8 137 1 111 18 c 1
 78 -25 l 1
 48 -2 l 1
 82 42 l 1
 56 72 42 112 42 165 c 0
 42 218 55 261 81 293 c 0
 108 328 148 346 200 346 c 0
 232 346 263 337 294 318 c 1
262 276 m 1
 243 291 222 299 202 299 c 0
 168 299 142 285 125 258 c 0
 109 234 102 205 102 169 c 0
 102 137 107 111 118 89 c 1
 262 276 l 1
286 246 m 1
 143 60 l 1
 160 46 179 40 199 40 c 0
 234 40 260 53 278 80 c 0
 294 103 301 133 301 169 c 0
 301 200 296 226 286 246 c 1
EndSplineSet
MinimumDistance: x4,-1 
EndChar
StartChar: thorn
Encoding: 349 254 314
OldEncoding: 254
Width: 362
VWidth: 2048
Flags: HW
HStem: -130 10G<43 101> -8 47<183 194> 301 45<183 194> 458 10G<43 101>
VStem: 43 52<159 183> 43 58<-130 35 303 467> 278 59<159 183>
Fore
43 -130 m 1
 43 467 l 1
 101 467 l 1
 101 303 l 1
 126 332 157 346 193 346 c 0
 241 346 277 328 303 292 c 0
 326 261 337 221 337 172 c 0
 337 123 325 82 301 48 c 0
 274 11 237 -8 189 -8 c 0
 156 -8 126 7 101 35 c 1
 101 -130 l 1
 43 -130 l 1
95 167 m 0
 95 133 102 104 114 82 c 0
 130 54 154 40 186 40 c 0
 218 40 243 54 259 84 c 0
 272 107 278 137 278 172 c 0
 278 206 272 234 259 258 c 0
 243 287 219 301 188 301 c 0
 157 301 133 286 116 255 c 0
 102 230 95 201 95 167 c 0
EndSplineSet
MinimumDistance: x6,-1 
EndChar
StartChar: dotlessi
Encoding: 351 305 316
OldEncoding: 305
Width: 181
VWidth: 2048
Flags: HW
HStem: 0 10G<63 121> 329 10G<63 121>
VStem: 63 58<0 338>
Fore
63 0 m 1
 63 338 l 1
 121 338 l 1
 121 0 l 1
 63 0 l 1
EndSplineSet
MinimumDistance: x2,-1 
EndChar
StartChar: OE
Encoding: 352 338 317
OldEncoding: 338
Width: 652
VWidth: 2048
Flags: HW
HStem: -8 50<220 237> 0 55<415 632> 214 55<415 606> 412 55<415 622> 425 50<220 237>
VStem: 41 64<213 250>
Fore
632 55 m 1
 632 0 l 1
 357 0 l 1
 357 67 l 1
 329 17 286 -8 230 -8 c 0
 165 -8 116 17 83 67 c 0
 55 110 41 166 41 234 c 0
 41 303 55 359 83 401 c 0
 115 450 165 475 230 475 c 0
 286 475 328 451 357 404 c 1
 357 467 l 1
 622 467 l 1
 622 412 l 1
 415 412 l 1
 415 270 l 1
 606 270 l 1
 606 214 l 1
 415 214 l 1
 415 55 l 1
 632 55 l 1
229 425 m 0
 146 425 105 360 105 229 c 0
 105 180 113 139 130 106 c 0
 152 63 185 42 229 42 c 0
 276 42 309 65 330 110 c 0
 346 143 354 186 354 237 c 0
 354 286 345 328 329 361 c 0
 307 404 274 425 229 425 c 0
EndSplineSet
MinimumDistance: x20,-1 
EndChar
StartChar: oe
Encoding: 353 339 318
OldEncoding: 339
Width: 616
VWidth: 2048
Flags: HW
HStem: -8 47<174 191 432 449> 154 47<344 531> 299 47<174 191 432 449>
VStem: 26 59<154 180>
Fore
312 56 m 1
 280 13 238 -8 186 -8 c 0
 135 -8 95 8 67 41 c 0
 40 72 26 113 26 165 c 0
 26 219 39 262 65 294 c 0
 93 329 133 346 186 346 c 0
 242 346 284 325 312 281 c 1
 342 325 383 346 436 346 c 0
 489 346 530 327 557 288 c 0
 580 255 592 210 592 154 c 1
 342 154 l 1
 342 122 351 95 368 74 c 0
 387 51 412 40 443 40 c 0
 487 40 516 63 530 110 c 1
 587 102 l 1
 568 29 519 -8 442 -8 c 0
 385 -8 341 13 312 56 c 1
85 170 m 0
 85 133 92 104 107 81 c 0
 124 53 150 40 184 40 c 0
 217 40 242 54 260 82 c 0
 276 106 284 136 284 170 c 0
 284 205 276 234 261 258 c 0
 243 285 217 299 184 299 c 0
 151 299 125 285 108 257 c 0
 93 234 85 205 85 170 c 0
344 201 m 1
 531 201 l 1
 531 229 523 252 505 271 c 0
 488 289 466 299 439 299 c 0
 412 299 389 289 371 270 c 0
 353 251 344 228 344 201 c 1
EndSplineSet
MinimumDistance: x16,-1 
EndChar
StartChar: florin
Encoding: 357 402 322
OldEncoding: 402
Width: 362
VWidth: 2048
Flags: HW
HStem: 294 44<115 171 238 295> 422 53<278 289>
DStem: 351 602 471 602 236 -78 346 -111
Fore
15 -129 m 1
 26 -80 l 1
 50 -84 66 -87 74 -87 c 0
 96 -87 110 -71 115 -38 c 2
 171 294 l 1
 107 294 l 1
 115 338 l 1
 179 338 l 1
 187 381 l 2
 192 413 201 436 212 450 c 0
 226 467 248 476 277 476 c 0
 295 476 317 472 346 463 c 1
 334 415 l 1
 314 420 297 422 286 422 c 0
 271 422 261 417 254 407 c 0
 250 401 247 389 244 371 c 2
 238 338 l 1
 303 338 l 1
 295 294 l 1
 230 294 l 1
 169 -54 l 2
 159 -110 132 -137 86 -137 c 0
 64 -137 40 -134 15 -129 c 1
EndSplineSet
MinimumDistance: x19,-1 
EndChar
StartChar: circumflex
Encoding: 358 710 323
OldEncoding: 710
Width: 217
VWidth: 2048
Flags: HW
HStem: 460 10G<77 138>
Fore
110 435 m 1
 74 380 l 1
 8 380 l 1
 77 470 l 1
 138 470 l 1
 209 380 l 1
 145 380 l 1
 110 435 l 1
EndSplineSet
EndChar
StartChar: caron
Encoding: 359 711 324
OldEncoding: 711
Width: 217
VWidth: 2048
Flags: HW
HStem: 460 10G<13 79 149 214>
Fore
114 416 m 1
 149 470 l 1
 214 470 l 1
 143 380 l 1
 82 380 l 1
 13 470 l 1
 79 470 l 1
 114 416 l 1
EndSplineSet
EndChar
StartChar: ring
Encoding: 361 730 326
OldEncoding: 730
Width: 217
VWidth: 2048
Flags: HW
HStem: 367 24<106 115> 460 23<106 115>
VStem: 52 24<421 430> 144 23<421 430>
Fore
52 426 m 0
 52 442 57 456 68 467 c 0
 79 478 93 483 109 483 c 0
 125 483 139 478 150 466 c 0
 161 455 167 441 167 425 c 0
 167 409 161 396 150 384 c 0
 139 372 125 367 109 367 c 0
 92 367 79 372 68 384 c 0
 57 395 52 409 52 426 c 0
76 426 m 0
 76 403 87 391 110 391 c 0
 119 391 126 394 133 401 c 0
 140 409 144 417 144 425 c 0
 144 448 132 460 110 460 c 0
 87 460 76 449 76 426 c 0
EndSplineSet
MinimumDistance: x4,-1 
EndChar
StartChar: tilde
Encoding: 362 732 327
OldEncoding: 732
Width: 217
VWidth: 2048
Flags: HW
VStem: 2 42<389 397>
Fore
2 389 m 1
 2 437 24 461 67 461 c 0
 80 461 98 455 121 444 c 0
 133 438 143 435 151 435 c 0
 164 435 172 444 174 462 c 1
 215 462 l 1
 215 414 194 390 153 390 c 0
 139 390 121 396 100 407 c 0
 86 415 75 419 69 419 c 0
 53 419 44 409 44 389 c 1
 2 389 l 1
EndSplineSet
MinimumDistance: x9,-1 
EndChar
StartChar: quotesinglbase
Encoding: 365 8218 330
OldEncoding: 8218
Width: 145
VWidth: 2048
Flags: HW
HStem: -10 10G<40 69>
VStem: 40 62<-0 66>
Fore
40 0 m 1
 40 66 l 1
 101 66 l 1
 101 14 l 2
 101 -38 83 -71 48 -86 c 1
 34 -64 l 1
 58 -54 69 -33 69 0 c 1
 40 0 l 1
EndSplineSet
MinimumDistance: x2,-1 
EndChar
StartChar: quotedblbase
Encoding: 366 8222 331
OldEncoding: 8222
Width: 217
VWidth: 2048
Flags: HW
HStem: -10 10G<28 58 126 156>
VStem: 28 62<-0 66> 126 62<-0 66>
Fore
28 0 m 1
 28 66 l 1
 89 66 l 1
 89 14 l 2
 89 -38 72 -71 37 -86 c 1
 22 -64 l 1
 46 -54 58 -33 58 0 c 1
 28 0 l 1
126 0 m 1
 126 66 l 1
 188 66 l 1
 188 14 l 2
 188 -37 170 -71 135 -86 c 1
 122 -64 l 1
 145 -54 156 -33 156 0 c 1
 126 0 l 1
EndSplineSet
MinimumDistance: x9,-1 
EndChar
StartChar: dagger
Encoding: 367 8224 332
OldEncoding: 8224
Width: 362
VWidth: 2048
Flags: HW
HStem: 276 51<23 150 208 336>
VStem: 150 58<-110 276 327 457>
Fore
150 -110 m 1
 150 276 l 1
 23 276 l 1
 23 327 l 1
 150 327 l 1
 150 457 l 1
 208 457 l 1
 208 327 l 1
 336 327 l 1
 336 276 l 1
 208 276 l 1
 208 -110 l 1
 150 -110 l 1
EndSplineSet
MinimumDistance: x8,-1 y4,6 y4,5 y1,11 y1,0 x7,9 x7,8 x1,3 x1,2 
EndChar
StartChar: daggerdbl
Encoding: 368 8225 333
OldEncoding: 8225
Width: 362
VWidth: 2048
Flags: HW
HStem: 8 51<23 151 209 337> 290 51<23 151 209 337>
VStem: 151 58<-110 7 59 290 341 460>
Fore
151 -110 m 1
 151 8 l 1
 23 8 l 1
 23 59 l 1
 151 59 l 1
 151 290 l 1
 23 290 l 1
 23 341 l 1
 151 341 l 1
 151 461 l 1
 209 461 l 1
 209 341 l 1
 337 341 l 1
 337 290 l 1
 209 290 l 1
 209 59 l 1
 337 59 l 1
 337 8 l 1
 209 8 l 1
 209 -110 l 1
 151 -110 l 1
EndSplineSet
MinimumDistance: x12,-1 y8,10 y8,9 y1,19 y1,0 x15,17 x15,16 x11,13 x11,12 x5,7 x5,6 x1,3 x1,2 
EndChar
StartChar: perthousand
Encoding: 369 8240 334
OldEncoding: 8240
Width: 652
VWidth: 2048
Flags: HW
HStem: -17 40<332 340 548 552> 188 40<332 340 543 553> 226 40<101 106> 432 40<97 106> 465 10G<293 335>
VStem: 12 47<334 358> 147 47<334 358> 243 47<92 116> 379 47<92 116> 458 47<92 116> 594 47<92 116>
DStem: 601 973 687 973 209 -35 295 -35
Fore
102 -17 m 1
 293 475 l 1
 335 475 l 1
 144 -17 l 1
 102 -17 l 1
12 350 m 0
 12 431 42 471 103 471 c 0
 164 471 195 431 195 352 c 0
 195 268 164 226 104 226 c 0
 42 226 12 267 12 350 c 0
59 348 m 0
 59 293 74 266 105 266 c 0
 133 266 147 293 147 348 c 0
 147 404 133 432 104 432 c 0
 74 432 59 404 59 348 c 0
243 107 m 0
 243 188 273 228 334 228 c 0
 396 228 426 188 426 108 c 0
 426 25 396 -17 335 -17 c 0
 274 -17 243 24 243 107 c 0
291 104 m 0
 291 50 306 22 336 22 c 0
 365 22 379 50 379 105 c 0
 379 161 364 188 335 188 c 0
 305 188 291 160 291 104 c 0
458 107 m 0
 458 188 488 228 549 228 c 0
 611 228 641 188 641 108 c 0
 641 25 611 -17 550 -17 c 0
 489 -17 458 24 458 107 c 0
505 104 m 0
 505 50 521 22 551 22 c 0
 580 22 594 50 594 105 c 0
 594 161 579 188 550 188 c 0
 520 188 505 160 505 104 c 0
EndSplineSet
MinimumDistance: x22,-1 
EndChar
StartChar: guilsinglleft
Encoding: 370 8249 335
OldEncoding: 8249
Width: 217
VWidth: 2048
Flags: HW
Fore
93 168 m 1
 177 23 l 1
 130 23 l 1
 29 168 l 1
 130 313 l 1
 177 313 l 1
 93 168 l 1
EndSplineSet
EndChar
StartChar: guilsinglright
Encoding: 371 8250 336
OldEncoding: 8250
Width: 217
VWidth: 2048
Flags: HW
Fore
125 169 m 1
 41 313 l 1
 88 313 l 1
 185 171 l 1
 88 23 l 1
 41 23 l 1
 125 169 l 1
EndSplineSet
EndChar
StartChar: trademark
Encoding: 372 8482 337
OldEncoding: 8482
Width: 652
VWidth: 2048
Flags: HW
HStem: 429 39<72 156 199 284>
VStem: 156 43<208 429> 313 40<208 429> 529 40<208 425>
DStem: 723 878 771 957 865 425 906 532 1036 957 1083 871 906 532 946 425
Fore
156 208 m 1
 156 429 l 1
 72 429 l 1
 72 467 l 1
 284 467 l 1
 284 429 l 1
 199 429 l 1
 199 208 l 1
 156 208 l 1
313 208 m 1
 313 467 l 1
 376 467 l 1
 442 260 l 1
 506 467 l 1
 568 467 l 1
 568 208 l 1
 529 208 l 1
 529 425 l 1
 462 208 l 1
 422 208 l 1
 353 429 l 1
 353 208 l 1
 313 208 l 1
EndSplineSet
MinimumDistance: x13,-1 y1,7 y1,0 x6,4 x6,5 x1,3 x1,2 
EndChar
StartChar: uniF71D
Encoding: 376 63261 341
OldEncoding: 63261
Width: 222
VWidth: 2048
Flags: HW
HStem: -57 55<57 162>
Fore
12 -90 m 1
 12 -2 l 1
 210 -2 l 1
 210 -90 l 1
 162 -90 l 1
 162 -57 l 1
 57 -57 l 1
 57 -90 l 1
 12 -90 l 1
EndSplineSet
MinimumDistance: x2,-1 x0,6 y6,0 y6,7 x3,5 y5,3 y5,4 
EndChar
